<?xml version="1.0" encoding="utf-8"?>
<svg viewBox="197.05465698242188 49.17658615112305 458.1886901855469 402.7555847167969" width="458.1886901855469" height="402.7555847167969" xmlns="http://www.w3.org/2000/svg" xmlns:xlink="http://www.w3.org/1999/xlink"><clipPath id="SVGID_2_">
		<use style="overflow:visible;" xlink:href="#SVGID_1_"/>
	</clipPath><defs><path d="M 0 2 H 837 V 542 H 0 V 2 Z" id="SVGID_1_"/></defs><g transform="matrix(0.9999999999999999, 0, 0, 0.9999999999999999, 0, -1.4210854715202004e-14)"><path class="st0" d="M57,278.4c-1-3.5,1-9.5,0.2-14.7c-0.2-1.5-1.2-2.8-1.3-4c-1-8.8,2-16.7,1.6-24.2c0.6-0.3,0.9-0.2,1.2,0.2&#10;&#9;&#9;c5.2,17,7.5,36.5,18.7,46.2c20.2,17.4,51.2,24.5,72.8,36.1c1.8,6.2,4.7,13,5.9,17.8c-12.6-4.8-30.4-0.5-43.3-6.5&#10;&#9;&#9;c-3.5-1.6-7.3-4.5-11.2-6.4c-10.7-5.3-21.1-11.4-29.4-22.3c-2.4-3.1-5.1-7.3-7.6-11C61.9,285.5,57.8,281.4,57,278.4 M64.3,208.9&#10;&#9;&#9;c6.9,12.3,3.9,22.1,10.8,34.2c6.5,11.3,20,23,31.1,30.8c3.8,2.7,8.6,4.6,12.7,7.6c4.2,3.2,8.2,7.1,12,9c4.8,2.4,10.3,2.2,12.7,5.9&#10;&#9;&#9;c3.4,5.5,1,12.3,4.7,15.9c0,0.7-0.3,1.3-1.2,1.5c-19.5-7.7-39.8-15.5-58.5-26.8c-3.6-2.2-7.8-4.1-10.6-6.6&#10;&#9;&#9;c-11-9.4-12.8-28.7-17.5-46C64.3,227.3,61.5,216.7,64.3,208.9z M66.7,209.3c-0.2-2.9,2.4-6,3.1-9.5c1.3-6.2,2-12.7,2.9-18.4&#10;&#9;&#9;c0.4-0.2,0.5,0,0.7,0.3c0.4-0.2,0.5,0,0.7,0.3c7.4,19.9,6.1,34.8,16.7,48.6c6.7,8.7,17,18,24,23c3,2.2,7.3,3.5,11,5.9&#10;&#9;&#9;c4.4,2.9,11.7,8,13.2,10.8c3.5,6.7,1.7,15.4,3.9,21.8c-9.5-0.5-17.9-8.9-26.2-14.4c-2.7-1.8-6.1-2.6-8.8-4.4&#10;&#9;&#9;c-9.5-6.4-26.2-21.4-32.6-33.7c-3.5-6.8-3.3-12.1-5-20.3C69.3,216.1,66.9,212.4,66.7,209.3z M79.6,178.5c3-6.7,4.3-14.2,7.1-21&#10;&#9;&#9;c0.6-0.3,0.9-0.2,1.2,0.2c1.4,11.7-1.3,20.2,4.7,34.5c5.2,12.3,12.4,23.1,22.1,31c4.9,4,16.7,11,19.8,18.8&#10;&#9;&#9;c2.8,7.3,0.1,15.9,3.2,23.2c-10-6.1-21.2-11.3-30.9-20.2c-7.8-7.1-16.4-14-20.9-25.7c-4.7-11.9-5.1-24.3-10.5-38.2&#10;&#9;&#9;C74.4,178.8,79.1,180.7,79.6,178.5z M98.2,144.7c5.6,14.6,6.3,30.1,13.2,44.7c4.7,10,14.5,16.3,19.8,23.9&#10;&#9;&#9;c1.3,7.8,2.4,15.6,3.2,23.2c-16-12.8-38-26.9-44.3-56.9c-1.4-6.7,0.7-11.9-0.2-19.1C93.8,155.7,96.3,150.3,98.2,144.7z&#10;&#9;&#9; M100.1,141.8c7.1,2.2,10-3.5,11.2-8.8c0.6,0,1.6,0.5,0.8,0.9c1.5,10.9,1.6,22,7.9,30.6c1.6,2.2,4.6,3.2,5.7,5.4&#10;&#9;&#9;c1.9,3.8,1.2,10.4,1.8,15.7c1,8.3,1.5,13.9,2.4,22.3c-5.2-5.8-12.9-11.3-17.1-19.1C105.3,174.6,104.9,157.6,100.1,141.8z&#10;&#9;&#9; M113.3,129c2-0.9,2.3,1.6,3.9,1.5c3.6-5.4,7.4-10.6,11-16c1.5,0-0.5,2.4,2,1c0,1.3-1.4,1.9-1.9,2.9c-0.7,15.9-1.9,31.5-2.9,47.2&#10;&#9;&#9;C114.6,159.9,114.9,138.6,113.3,129z M133.1,115.6c2.3,1,1.9,7.4,4.4,9.8c1.8,0.6,2.4,0.2,4.2-0.8c0.5,9.5-2.2,17.5-7.8,24&#10;&#9;&#9;C132,136.8,133.2,126.6,133.1,115.6z M130.8,149.6c1.5,3.4,0.9,9.4,0.5,13.4C129.7,159.5,130.4,153.5,130.8,149.6z M145.7,131.7&#10;&#9;&#9;c3-1,3.3-1.7,6.1-2c0.3,22.7-1.8,44.2-17.6,58.8c-1.3-12.1-0.3-23-0.8-34.7c4.9-7.3,9.4-14.7,10-24.2&#10;&#9;&#9;C145,128.6,144.6,131.7,145.7,131.7z M154.4,132.2c2.8,1.2,3.8,5.9,5.4,9.5c2.8,0.9,3.2-2.5,6.4-2.7c1.6,22.5-0.5,41.6-9.7,59&#10;&#9;&#9;c-4.4,8.3-6,17-15.8,22.1c-1.4-7.5-5-19.7-4.7-27.7c6.3-11.9,14.9-22.9,17-37.2c1-7-1-14.1,0.7-21.6&#10;&#9;&#9;C153.6,133,154.6,132.9,154.4,132.2z M179,153.9c-1.8,11.5,1.9,22.7,1,33.5c-1.1,13.2-6.3,25.9-11.2,37.5&#10;&#9;&#9;c-4.9,11.7-12.2,24.1-24.1,31.1c-1.7-8.9-3.8-21.6-4.2-31.3c22.6-21,27.7-50.7,28.3-82.7C173.6,143.3,174.2,152.8,179,153.9z&#10;&#9;&#9; M181.2,153.7c5.6,3,10.6,11.4,12.5,19c0.9,1.9,3.4,0.5,4.2,2.5c1.1,17.7-0.4,36.4-3.3,52.9c-2.1,12-5.3,20.7-11.2,32.5&#10;&#9;&#9;c-6.8,13.6-12.6,26.7-29.5,35.2c-5.1-11.8-7.3-24.2-9.4-35.2c16.2-13.8,25.3-29.6,31.5-49.4c2.4-7.6,5.2-16.8,5.4-24.3&#10;&#9;&#9;C181.8,176.1,179.1,165.1,181.2,153.7z M207.4,193.5c0.3,1.9,2.9-0.6,3.5,0.5c6.2,8.4,2.6,19.4,7.4,25.7&#10;&#9;&#9;c-5.1,23-12.1,46.1-23.4,66.9c-7.7,14.1-15.4,27.8-32.7,37.3c-3.4-8.7-6.7-17.6-7.4-25.7c10.8-7.2,20-15.8,25.9-27.2&#10;&#9;&#9;c9.9-19.1,17.8-42.8,19-64.9c0.5-8.3,0-17.4,0-25.4C203.8,182,205.4,188.2,207.4,193.5z M220,223.1c3.1,3.6,0.7,11.6,1,16.6&#10;&#9;&#9;c7.4,6.1,3.5,18.5,2.3,25.7c0.4,2,2.3,1,3.4,1.7c0.1,7.9-2.3,14.6-4.7,21.3c-0.9,2,2.4,0.9,2.4,3.7c-0.1,10-1.8,15.8-9,23.8&#10;&#9;&#9;c-6.6,7.4-14.2,13.8-23.7,20.3c-8.1,5.6-16.4,9.4-23.2,15c-1.6-8.6-3-14.5-6.2-23.9C199.6,301.7,208.2,261.6,220,223.1z&#10;&#9;&#9; M129.1,169.9c4.4,18.9,3.9,41.8,8.1,63.3C132.4,212.7,126.9,188.3,129.1,169.9z M172.3,396.7c-3.5-2.2-1.1-6.4-1.3-9.1&#10;&#9;&#9;c-0.9-9.1-4.2-18.9-6.2-28.9c-3-14.7-6.4-28.6-8.6-44.5c2.1,0.7,1,2.9,1.5,4.6c3.1,10.9,10.9,27.7,8.4,38.9&#10;&#9;&#9;C169.5,369.7,173.3,385.5,172.3,396.7z M168.6,397.4c-3-4.7,0.5-10.8-2.3-15.6C169.9,386.8,168.1,392.6,168.6,397.4z M151.8,321.3&#10;&#9;&#9;c-0.5-1.4-0.9-2.7-1.3-4.1C152.3,316.7,154,320.6,151.8,321.3z M166.1,374.6c-2.6-3.4-2-8.9-3.2-13&#10;&#9;&#9;C165.9,365.2,164.8,370.4,166.1,374.6z M137.8,242c0.5-0.1,0.6,0.5,0.8,0.9c0.8,24,16.3,55.4,16.3,78&#10;&#9;&#9;C144.4,296.2,138,266.7,137.8,242z M136.3,234c1.7,1.3,1.5,5.3,1.8,7.3C136.1,239.8,137.5,236.5,136.3,234z M147.8,309.1&#10;&#9;&#9;c2.1-0.2,2,3.9,3,5.8C148,314.6,149.1,311.9,147.8,309.1z M150.8,348.7c-6.9-1.5-15.3-2.1-22.3-2.7c-1.7-1.5-3.9-1.7-5.6-3.2&#10;&#9;&#9;c-12.1-0.5-25-6.6-35.2-14.2c-8.3-6.2-19.8-14.8-24.3-29.1c-1.2-3.8-0.6-8.5-3-12.5c10,17.4,23.8,28.7,39.4,37.1&#10;&#9;&#9;c8.3,4.5,15.9,9.6,25.5,10.7c11.1,1.3,22.8-1.8,32.3,5.6c1,3.7,1.8,7.4,1.9,10.7C157.3,352.6,153.6,349.3,150.8,348.7z M61,294&#10;&#9;&#9;c0.2,1.4-0.6,2.9-0.3,4.1c0.4,1.6,1.8,4.7,2.7,6.4c5.8,11.1,13.8,19.2,21.1,24.5c2.1,1.5,4.2,3.5,6.1,4.7c3.4,2.2,7,2.5,9.8,4.1&#10;&#9;&#9;c1.3,0.7,1.9,2.3,3.2,2.9c6.8,3.2,15.1,2.6,20.3,6.8c6.3-0.5,11.6,1.2,18.3,2.4c4.8,0.8,14.4,1.3,17.1,5.6c1.8,2.9,1.4,8,2,11.2&#10;&#9;&#9;c2.2,10.6,4.6,23.5,4.5,34c2.6,0.7,6.9-0.4,9.5-2c1.4-12.8-4.9-29.8-5.7-42.6c-0.4-6.1,12.4-10.4,17.9-13.8c1.2-0.8,2-2.4,3.4-3.4&#10;&#9;&#9;c9.1-6.5,15.1-9.5,22.3-17.6c10.1-11.2,14.2-18.1,14.4-33c-0.2-2.1-2.5-1.8-1.7-3.4c0.4-7.3,7.7-16.3,0.7-23.3&#10;&#9;&#9;c0.8-6.9,3.6-19.5-3.2-24.9c0.8-6.5,0.3-13.7-0.8-21.2c-0.9-1.6-3.4,0.1-4.1-2c-0.8-7.4-2.2-16.8-6.7-23.7&#10;&#9;&#9;c-0.6-1.3-2.7,0.4-3.6-0.5c-4.6-8.5-6.7-16.7-13.2-21c-2.6-7.6-9.4-13-13.2-21c-2.4-0.8-2.5,2.3-4.6,1.5c-2.3-5.7-7.3-8.9-8.3-14.7&#10;&#9;&#9;c-2.7,1.2-4,3.1-7.8,3.7c-2.2-4-5-8.6-6.3-12c-1.7-0.4-5.8,3-8.3,2.2c-0.7-2.2-0.4-5.6-2.4-7.1c-2.4-0.9-4.1,2.6-5.6,1.9&#10;&#9;&#9;c-2-3.9-2.8-8.8-4.9-14.7c-1.3-0.2-2.3-1.1-3.7-1c-3.3,7.4-8.6,13.7-12.9,20.6c-2.3,0.8-2.8-2.3-5.4-1c-2.7,4.4-2.8,10.1-6.6,14&#10;&#9;&#9;c-2.9,0.2-4.4-2.5-7.8-1.4c-3.1,4.8-1.9,11.7-6.6,15.7c-1.4-0.6-1.3-4.2-2.7-4.7c-6.3,8.1-5,20.1-10.8,28.4&#10;&#9;&#9;c-2.3,0.3-3.9-0.6-6.6,0.5c0.3,9.4-3.5,16.8-5.1,25.4c-1.3,0.1-1.7-1.6-3.5-0.5c-0.2,8.6-0.3,17.3-1.7,25.4&#10;&#9;&#9;c-1.3,0.2-1.5-1.5-3.1-0.7c-3,13.3-3.9,27.6-1.2,43.8C50.6,278.3,59.8,286.2,61,294z" style="clip-path: url('#SVGID_2_'); fill-rule: evenodd; clip-rule: evenodd; fill: rgb(204, 204, 204); opacity: 1;" transform="matrix(-0.18515293300151825, 0.45502117276191706, -0.45502117276191706, -0.18515293300151825, 713.2994384765623, 365.4506530761719)"/><path class="st0" d="M200,429.4c1-3.5,5.8-7.6,7.8-12.5c0.6-1.4,0.4-3,0.9-4.2c3.6-8,10.3-13.3,13.8-19.9c0.6,0,0.9,0.3,0.9,0.8&#10;&#9;&#9;c-4.3,17.2-12.5,35.1-7.9,49.2c8.3,25.4,31.1,47.4,43.7,68.6c-1.6,6.2-2.7,13.5-4.1,18.3c-8.3-10.6-25.8-16.2-33.7-27.9&#10;&#9;&#9;c-2.1-3.2-3.9-7.6-6.2-11.3c-6.4-10.1-12.1-20.7-13.6-34.3c-0.4-3.9-0.6-8.9-0.8-13.3C200.6,438,199.2,432.4,200,429.4&#10;&#9;&#9; M242.2,373.7c-0.5,14.1-8.1,20.9-8.4,34.8c-0.3,13.1,5.3,30,10.7,42.4c1.8,4.2,5,8.4,6.9,13.1c2,4.9,3.4,10.3,5.6,13.9&#10;&#9;&#9;c2.8,4.5,7.7,7.2,7.8,11.6c0.1,6.4-5.5,11-4.2,16c-0.4,0.6-0.9,0.9-1.8,0.7c-12.7-16.7-26.1-33.9-36.2-53.2&#10;&#9;&#9;c-2-3.8-4.5-7.6-5.7-11.2c-4.5-13.8,3.8-31.2,8.8-48.5C232.8,389.4,235.9,378.9,242.2,373.7z M244.1,375.2c1.3-2.6,5.2-3.9,7.5-6.5&#10;&#9;&#9;c4.3-4.7,8.3-9.9,12-14.3c0.5,0,0.5,0.3,0.4,0.6c0.5,0,0.4,0.3,0.4,0.6c-3.9,20.8-12.8,32.9-10.8,50.2c1.2,10.9,5.2,24.2,8.6,32.1&#10;&#9;&#9;c1.5,3.4,4.4,6.7,6.3,10.7c2.3,4.7,5.9,12.9,5.7,16.1c-0.4,7.5-6.5,14.1-8,20.7c-7.9-5.3-10.7-16.9-15-25.9&#10;&#9;&#9;c-1.4-2.9-3.9-5.3-5.3-8.3c-4.8-10.4-11.4-31.9-10.5-45.7c0.5-7.7,3.4-12.1,6.2-20C242.9,382.4,242.7,378,244.1,375.2z M271,355.6&#10;&#9;&#9;c6-4.2,11-9.9,16.9-14.3c0.6,0.1,0.9,0.3,0.9,0.8c-4.9,10.7-11.6,16.6-13.8,32c-2,13.2-1.3,26.1,2.9,37.9c2.2,6,8.6,18.1,7.2,26.3&#10;&#9;&#9;c-1.4,7.7-8.1,13.7-9.3,21.5c-5.4-10.4-12.3-20.7-16-33.3c-3-10.1-6.8-20.4-4.6-32.9c2.2-12.6,8.2-23.4,10.8-38.1&#10;&#9;&#9;C266.5,353.2,269.5,357.2,271,355.6z M304.5,336.3c-2.8,15.4-10.1,29-11.8,45c-1.2,11,4,21.5,4.6,30.6c-2.9,7.4-6,14.6-9.2,21.5&#10;&#9;&#9;c-7.1-19.2-18.6-42.7-8.5-71.6c2.3-6.5,6.8-9.9,9.8-16.4C295,343.5,299.9,340.1,304.5,336.3z M307.6,334.8&#10;&#9;&#9;c4.9,5.6,10.4,2.2,14.1-1.7c0.6,0.3,1.1,1.2,0.3,1.2c-4.3,10.1-10,19.7-9.1,30.3c0.2,2.7,2.3,5.1,2.1,7.6&#10;&#9;&#9;c-0.3,4.3-4.3,9.5-6.6,14.4c-3.5,7.6-5.9,12.6-9.5,20.3c-1.4-7.6-5.2-16.3-4.7-25.2C295.1,365.5,303.5,350.8,307.6,334.8z&#10;&#9;&#9; M325.5,330.6c2.2,0.3,1.1,2.6,2.5,3.3c5.9-2.7,11.9-5.3,17.7-8c1.3,0.8-1.7,1.8,1.2,1.9c-0.7,1.1-2.1,0.9-3.1,1.5&#10;&#9;&#9;c-8.8,13.2-17.9,26-26.9,38.9C310.7,357.8,321.9,339.7,325.5,330.6z M349.3,329.4c1.5,2-2.2,7.3-1.3,10.7c1.2,1.4,1.9,1.4,4.1,1.5&#10;&#9;&#9;c-4.5,8.4-10.9,13.9-19.1,16.5C337.5,347,343.8,338.9,349.3,329.4z M329.8,357.4c-0.5,3.7-4.1,8.5-6.5,11.7&#10;&#9;&#9;C323.8,365.3,327.5,360.5,329.8,357.4z M351.9,349.8c3.1,0.7,3.7,0.3,6.3,1.4c-11.5,19.6-24.4,36.9-45.5,41.2&#10;&#9;&#9;c5.2-11,11.6-19.9,17.2-30.1c8-3.7,15.7-7.7,21.1-15.5C352.9,346.7,350.9,349.2,351.9,349.8z M359,354.7c1.8,2.4,0.2,7-0.3,10.9&#10;&#9;&#9;c1.9,2.2,4-0.5,6.9,1c-10.3,20.1-21.9,35.3-38.8,45.5c-8,4.9-13.9,11.4-24.9,10.8c2.7-7.1,5.9-19.5,10.3-26.2&#10;&#9;&#9;c11.5-7,24.6-11.9,33.7-23.1c4.4-5.5,6.4-12.6,11.8-18.2C358,354.9,358.8,355.3,359,354.7z M368.9,386&#10;&#9;&#9;c-7.4,8.9-10.1,20.4-16.5,29.2c-7.8,10.7-18.7,18.9-29,26.3c-10.3,7.5-22.9,14.3-36.7,14.2c3.1-8.5,7.9-20.5,12.6-28.9&#10;&#9;&#9;c30.2-6.3,49.9-29.1,67-56.1C369.7,374.1,365.4,382.5,368.9,386z M370.9,387c3.2,5.4,3.2,15.2,0.9,22.7c-0.2,2.1,2.7,2.2,2.3,4.4&#10;&#9;&#9;c-8.3,15.7-19.2,31-30.2,43.6c-8,9.2-15.3,15-26.4,22c-12.8,8.1-24.7,16.3-43.4,14.8c1.7-12.8,6.3-24.4,10.1-35&#10;&#9;&#9;c21-3.5,37-12.3,52.5-25.9c6-5.3,13.1-11.6,17.2-18C359.8,406.4,363.2,395.6,370.9,387z M372.7,434.5c-0.7,1.8,2.8,0.9,2.8,2.3&#10;&#9;&#9;c1,10.4-7.8,17.9-6.9,25.8c-16.3,17-34.2,33.2-54.7,45.2c-13.9,8.1-27.5,15.8-47.3,15.1c1.6-9.2,3.4-18.6,7-25.8&#10;&#9;&#9;c13-0.6,25.3-3.2,36.2-9.9c18.3-11.2,37.3-27.4,49.8-45.7c4.7-6.8,9.1-14.9,13.1-21.7C375.6,422.9,373.7,428.9,372.7,434.5z&#10;&#9;&#9; M368.2,466.4c0.8,4.7-5.4,10.3-7.7,14.7c3.1,9-6.6,17.7-11.3,23.2c-0.7,1.9,1.5,2,2,3.2c-4,6.8-9.6,11.3-15.1,15.8&#10;&#9;&#9;c-1.7,1.2,1.6,2,0.1,4.4c-5.3,8.5-9.7,12.6-20,15.8c-9.5,2.9-19.3,4.5-30.8,5.1c-9.8,0.6-18.9-0.4-27.6,0.9c3.1-8.2,5-13.9,7-23.6&#10;&#9;&#9;C310.1,523.1,338.2,493.2,368.2,466.4z M317.9,373.9c-6,18.4-18.3,37.7-25.8,58.3C298.5,412.2,306.5,388.5,317.9,373.9z&#10;&#9;&#9; M237.6,590.3c-1.9-3.7,2.4-6,3.6-8.5c4-8.2,6.2-18.4,9.6-28c5.1-14.1,9.3-27.8,15.7-42.5c1.4,1.7-0.6,3-1.1,4.7&#10;&#9;&#9;c-3,11-5,29.4-12.9,37.6C249.2,565.7,244.2,581.2,237.6,590.3z M234.1,589c-0.2-5.6,6-9,6-14.5C240.7,580.6,236.1,584.7,234.1,589z&#10;&#9;&#9; M259,515.1c0.3-1.4,0.6-2.8,0.9-4.2C261.8,511.5,261.2,515.7,259,515.1z M243.7,568.2c-0.4-4.2,2.9-8.7,4-12.8&#10;&#9;&#9;C248.4,560,244.8,563.9,243.7,568.2z M288.1,440c0.5,0.1,0.3,0.7,0.3,1.2c-11.7,21-14.7,55.9-26.4,75.2&#10;&#9;&#9;C265.7,489.8,275.5,461.3,288.1,440z M290.9,432.4c0.8,2-1.4,5.3-2.2,7.2C287.7,437.3,290.7,435.2,290.9,432.4z M261.9,502.6&#10;&#9;&#9;c1.8,0.9-0.3,4.3-0.4,6.5C259.2,507.5,261.6,505.7,261.9,502.6z M244,538.1c-5.1-4.9-12-9.7-17.7-13.9c-0.7-2.1-2.5-3.5-3.1-5.6&#10;&#9;&#9;c-10.1-6.7-17.9-18.6-22.7-30.4c-3.9-9.6-9.3-23-5.8-37.5c0.9-3.9,3.9-7.6,3.9-12.3c-0.4,20,5.6,36.9,14.5,52.1&#10;&#9;&#9;c4.8,8.1,8.7,16.4,16.3,22.3c8.8,6.8,20.5,10.3,24.7,21.5c-1.1,3.7-2.3,7.2-3.9,10.1C247.5,544.8,246,540.1,244,538.1z&#10;&#9;&#9; M195.4,444.8c-0.5,1.3-2,2.1-2.4,3.3c-0.5,1.6-0.9,5-1,6.9c-0.8,12.5,1.9,23.6,5.4,31.9c1,2.3,1.8,5.2,2.8,7.2&#10;&#9;&#9;c1.7,3.7,4.7,5.8,6.3,8.6c0.8,1.3,0.5,3,1.3,4.1c4.2,6.3,11.6,10,13.9,16.3c5.7,2.9,9.3,7,14.4,11.5c3.7,3.2,11.6,8.5,11.7,13.6&#10;&#9;&#9;c0,3.5-3,7.5-4,10.6c-3.6,10.2-8.2,22.5-13.7,31.4c1.9,2,6.1,3.2,9.2,3.2c7.8-10.2,11.2-28,17.2-39.4c2.8-5.4,16-2.5,22.5-2.6&#10;&#9;&#9;c1.4,0,3-1,4.6-1.1c11.1-0.8,17.9-0.4,28.2-3.5c14.5-4.4,21.5-8.1,29.4-20.8c0.9-1.9-1.2-2.8,0.3-3.8c4.2-6.1,15-9.9,12.7-19.6&#10;&#9;&#9;c4.3-5.5,13.2-14.8,10.1-22.9c4-5.2,7.3-11.6,10.2-18.5c0.1-1.8-3-1.7-2.4-3.8c3.2-6.7,6.8-15.5,6.5-23.8c0.1-1.4-2.6-1.1-2.8-2.3&#10;&#9;&#9;c0.4-9.6,2.9-17.8-0.4-24.8c1.8-7.9-1.4-16-0.4-24.8c-1.6-1.9-3.4,0.7-4.7-1.1c1-6.1-1.6-11.4,0.5-16.9c-2.9-0.4-5,0.5-8.6-0.8&#10;&#9;&#9;c0.2-4.6,0.2-10,0.9-13.5c-1.2-1.2-6.5-0.4-8.2-2.4c0.6-2.2,2.5-5,1.7-7.3c-1.6-2.1-4.8,0.1-5.7-1.3c0.3-4.4,2.1-9,3.4-15.1&#10;&#9;&#9;c-1-0.9-1.3-2.1-2.7-2.8c-6.6,4.6-14.4,7.3-21.7,11c-2.4-0.6-1.2-3.4-4.1-3.7c-4.6,2.4-7.7,7.2-12.9,8.6c-2.6-1.4-2.5-4.4-6-5.2&#10;&#9;&#9;c-5.1,2.5-7.7,9.1-13.8,10c-0.9-1.2,1.1-4.2,0.1-5.5c-9.6,3.7-14.6,14.6-24,18.7c-2.1-0.9-3-2.6-5.9-3&#10;&#9;&#9;c-4.6,8.2-11.7,12.6-17.5,19.1c-1.2-0.6-0.6-2.3-2.8-2.3c-4.7,7.3-9.2,14.7-14.6,20.8c-1.2-0.4-0.6-2-2.3-2.2&#10;&#9;&#9;c-9.5,9.8-17.6,21.6-23.7,36.9C194.6,426,198.5,437.5,195.4,444.8z" style="clip-path: url('#SVGID_2_'); fill-rule: evenodd; clip-rule: evenodd; fill: rgb(204, 204, 204); opacity: 1;" transform="matrix(0.38201954960823054, 0, 0, 0.38201954960823054, 396.3350219726562, -49.42282485961915)"/><path class="st1" d="M57.9,410.2c7.3,3.3,14.1,1.5,20.3-3c0.4,1.2,0.8,2.4,1.3,3.5c0.9,1.9,1.4,4.1,2.2,6c0.4,1,2.4,2.9,2.4,4&#10;&#9;&#9;c0,2.5,3.8,2.5,3.8,0c0-2.4-1.9-3.8-2.9-5.9c-1.2-2.3-2-4.9-2.7-7.5c2,0.7,4.1,1.6,5.9,2.1c2.7,0.7,5.7,0.4,8.5,0&#10;&#9;&#9;c5.6-0.8,13-3.9,16.9-8.1c0.6-0.7,0.7-1.5,0.3-2.3c-2.5-5.6-12.8-6.2-18-5.9c-6.3,0.4-11.3,2.2-16,5.6c-2.1-7.5-3.3-15.5-4.3-23.2&#10;&#9;&#9;c1.6-0.5,3.9,0,5.5,0c2.5,0,5.1-0.9,7.4-1.5c4.4-1.2,8.8-3.2,12.6-5.6c3.4-2.1,10.9-8.6,8.2-13.4c-1.2-2.1-4.1-2.3-6.2-2.3&#10;&#9;&#9;c-4.5,0-8.1-0.6-12.5,1c-6.4,2.3-12.1,5.9-16.2,11.1c-0.4-5.2-0.8-10.3-1.3-15.5c-0.2-2.5-0.4-5-0.5-7.5c3.2,1,6.7,0.4,10,0.2&#10;&#9;&#9;c5.5-0.4,11.1-2,15.6-5.2c4-2.8,6.5-7,8.2-11.4c1-2.6,4.4-8.2,2.4-10.9c-2-2.6-6-2.6-9-2.9c-5.7-0.6-10.9,2-15.3,5.3&#10;&#9;&#9;c-5,3.7-7.9,7.9-11.7,12.7c-0.3,0.3-0.5,0.7-0.8,1c-0.2-2.4-0.6-4.9-1-7.3c-1-4.8-2.2-9.4-3.6-14c3.3-0.6,6.3-1.1,9.5-3.4&#10;&#9;&#9;c4.4-3.2,9-7.7,11.1-12.8c3.2-7.5,3.3-17.6,0.2-25c-0.8-1.9-3.2-4.9-5.6-3.5c-4.3,2.4-8.2,7.7-11.1,11.7c-3.1,4.2-5.2,9.3-6.7,14.3&#10;&#9;&#9;c-0.7,2.3-0.9,4.7-1.2,7c-2.4-7.1-5.9-13.9-8.4-21c-0.5-1.3-0.9-2.5-1.4-3.8c1.6-1.1,3.1-2.6,4.3-3.6c4.9-3.9,8.2-9.1,10.5-14.8&#10;&#9;&#9;c2.1-5.2,2.6-10.7,1.3-16.2c-1.4-6.4-5.2-10.6-9.5-15.2c-0.9-1-2.4-0.6-3,0.4c-5.5,8.1-9.6,15.5-10.6,25.3&#10;&#9;&#9;c-0.4,3.3-0.3,6.5,0.1,9.8c-0.8-1.2-1.6-2.5-2.5-3.7c-4.6-6.1-8.6-13-13.8-18.6c5.2-6.9-0.9-16.4-7.1-20.9&#10;&#9;&#9;c-5.4-3.9-10.7-6.7-17-8.6c-3.4-1-7.4-5.1-11.2-3.8c-0.9,0.3-1.7,1.3-1.4,2.4c3.5,9.3,6.8,19.2,13.1,27.1c4,5,14.2,9.7,20.6,6.3&#10;&#9;&#9;c4.9,5.2,8,11.7,12.6,17.1c2.8,3.3,5,7,6.8,11c-1.6-1.2-3.1-2.4-4.6-3.6c-4.2-3.2-8.9-5.1-13.8-6.8c-7.7-2.7-18.8-4.9-26.3-0.5&#10;&#9;&#9;c-0.8,0.5-1.4,1.8-0.7,2.6c6.5,8.6,12.5,15.5,22.8,19.5c4.4,1.7,9.4,1.7,14,1.6c2.3,0,4.5-0.4,6.7-0.8c1.4-0.3,4.6-2.4,5.8-2.4&#10;&#9;&#9;c0.1,0,0.1,0,0.2,0c0.5,1.4,1,2.8,1.5,4.2c2.6,7.1,6.1,13.8,8.3,21c0.2,0.8,0.5,1.6,0.7,2.4c-2.3-2-4.6-4-7-5.7&#10;&#9;&#9;c-4.1-2.9-9.5-4.5-14.2-5.9c-4.4-1.3-9.6-1.4-14.2-1.6c-3.3-0.1-7.4-0.2-10.4,1.4c-0.9,0.5-1.2,1.7-0.7,2.6&#10;&#9;&#9;c2.1,4.1,6.1,6.9,9.4,9.9c3.6,3.3,7.4,5.7,11.9,7.5c4.4,1.7,9.1,1.6,13.7,1.8c4.9,0.2,9.5-0.4,13.8-2.8c1.4,4.8,2.7,9.6,3.7,14.6&#10;&#9;&#9;c0.7,3.4,1,6.9,1.2,10.4c-6-6.2-13.5-9.9-22.2-11c-5.1-0.6-10.3-0.6-15.5-0.6c-2.6,0-5.5,1-5.6,3.9c-0.1,1,0.8,1.9,1.5,2.5&#10;&#9;&#9;c2,1.9,3.7,4,5.6,5.9c3.5,3.6,7.7,6.7,12.4,8.5c3.8,1.4,8.7,2.4,12.8,1.3c3.8-1,7.8-0.9,11.4-2.4c0.1,2.2,0.2,4.5,0.4,6.7&#10;&#9;&#9;c0.6,6.1,1,12.2,1.6,18.4c-2.3-2.5-4.3-5.1-7.4-7c-3.9-2.4-8.6-3.8-13-4.6c-4.5-0.8-9.1-0.8-13.6-0.3c-1.9,0.2-4.7-0.2-4.9,2.5&#10;&#9;&#9;c-0.3,2.7,3.2,6,4.8,7.9c3.4,3.7,7,6.8,11.6,9.1c6.5,3.2,16.7,2.8,23.1-1c0,0.3,0.1,0.6,0.1,0.9c1,8.1,2.5,16.2,4.6,24&#10;&#9;&#9;c-4.6-4.1-9.5-7.6-16-8.9c-3.2-0.7-6.9-0.2-10.1,0.2c-2.7,0.3-4.6-0.3-6.8,1.5c-0.7,0.6-0.6,1.6-0.3,2.3c1.2,2.8,4,5.3,5.8,7.7&#10;&#9;&#9;C51.3,406.6,54.4,408.6,57.9,410.2 M51.5,263.8c-0.6-4.5-1.3-8.8-1-13.3c0.6-8.8,4.2-15.8,8.9-22.9c2.5,2.8,4.4,5.4,6,9.2&#10;&#9;&#9;c1.9,4.6,1.8,9.3,0.5,14c-1.1,4.3-3.8,9.2-6.9,12.3c-0.8,0.8-4.1,4.6-6.5,6.4c-0.3-0.7-0.6-1.3-0.9-2&#10;&#9;&#9;C51.6,266.1,51.6,264.7,51.5,263.8z M15.1,234.2c-4-1.7-6.6-5.8-8.7-9.4c-3.2-5.3-5.5-11.7-7.7-17.7c1.9,0.8,4.1,2.5,5.4,2.9&#10;&#9;&#9;c4.1,1.5,7.8,2.6,11.5,4.8c5.3,3.2,18.7,13,11,20.2C24,237.4,18,235.4,15.1,234.2z M48.2,273.4c-1.8,0.7-3.6,1.9-5.5,2.2&#10;&#9;&#9;c-4.5,0.9-9.8,0.6-14.3-0.2c-9.8-1.9-16.4-9.4-22.1-16.9c7.1-2.7,16.4,0,23.1,2.3c5,1.8,9.3,4.2,13.4,7.5c1.7,1.4,3.4,3,5.1,4.4&#10;&#9;&#9;C48,273,48,273.2,48.2,273.4z M67.2,300.6c0.8-4,1.1-8,2.4-11.9c1.5-4.5,4.1-9,7.1-12.6c1.3-1.5,6.8-8.9,8.3-6&#10;&#9;&#9;c3.2,6.3,1.9,16.5-0.8,22.7c-1.8,4.1-6.8,8.2-10.4,10.8c-2.2,1.6-4.6,1.9-7,2.2C67,304.1,66.8,302.3,67.2,300.6z M37.5,308.6&#10;&#9;&#9;c-3.8-1.3-7.3-3.7-10.2-6.4c-2.5-2.4-5.4-4.4-7.5-7.2c2.6-0.5,5.9-0.2,8.3-0.1c4.4,0.2,8.9,0.6,13.1,1.9&#10;&#9;&#9;c7.7,2.3,13.9,6.5,19.8,11.8C54,311.7,44.3,310.9,37.5,308.6z M72.6,337.3c0.4-1.9,3.1-5,3.9-6c2.5-3.2,4.4-6.7,7.7-9.2&#10;&#9;&#9;c6.5-4.9,12.3-7.8,20.5-5.9c1.9,0.5-1.2,6-1.4,6.7c-1.4,4.8-4,8.6-8.1,11.5c-3.5,2.4-8.3,3.3-12.4,3.7c-2.9,0.3-7.1,1.1-9.7-0.3&#10;&#9;&#9;c-0.2-0.1-0.3-0.1-0.5-0.2C72.6,337.6,72.6,337.4,72.6,337.3z M59.5,342.5c-3.9,0.6-7.1,1.1-11,0.1c-7.7-1.9-12.9-8.2-18.1-13.7&#10;&#9;&#9;c-1.3-1.4,1-0.4,2-0.4c1.7,0,3.4,0,5.1,0.1c3.9,0.1,7.8,0.2,11.6,0.9c7.4,1.2,13.9,5.7,18.7,11.3C65.2,342,62.2,342.1,59.5,342.5z&#10;&#9;&#9; M75.2,371.2c3-6.2,7.8-9.5,13.9-12.6c3.4-1.7,6.3-2.4,10-2.3c1.5,0,7.3-0.2,6.5,2.2c-2.2,6.1-10.7,9.3-16.2,11.2&#10;&#9;&#9;c-3.1,1.1-6.4,2-9.7,2c-1.9,0-3-0.2-4.5,0C75.2,371.6,75.2,371.4,75.2,371.2z M51.7,374c-3.7-1.3-6.8-3.8-9.6-6.5&#10;&#9;&#9;c-1.4-1.3-2.5-2.8-3.7-4.3l-1.4-1.9c5.9-0.2,11.3-0.4,17,1.2c3.3,0.9,6.4,2.4,9.3,4.2c2.4,1.5,4,4.1,5.9,6.2&#10;&#9;&#9;C64.2,375.5,56.7,375.7,51.7,374z M81.1,402.6c3.7-2.9,7.3-4.4,12.2-5.4c3.6-0.7,13.2-1,16.5,2.5c-3.8,3.3-9.4,5.1-14,6&#10;&#9;&#9;c-5.5,1.1-9.6-1.7-14.5-2.6C81.2,402.9,81.1,402.8,81.1,402.6z M53,395.6c2.6-0.2,5.3-0.3,7.9,0.2c5.8,1.2,10.1,5,14.2,8.8&#10;&#9;&#9;c-5.9,3.8-11.4,4.4-18.1,0.9c-3.3-1.8-5.3-4.7-7.5-7.6c-0.6-0.7-1.2-1.4-1.8-2.2C49.6,395.6,52.3,395.7,53,395.6z" style="clip-path: url('#SVGID_2_'); fill: rgb(204, 204, 204); opacity: 1;" transform="matrix(0.7093231678009033, -0.7048834562301636, 0.7048834562301636, 0.7093231678009033, 144.28630065917963, 133.72302246093747)"/><path class="st3" d="M257.4,153.3c-6.3,2.2-14.5,5.5-15.8,13c0,0.1-0.1,0.2-0.1,0.3c-2.7,1.5-5.5,2.8-8.2,4.1&#10;&#9;&#9;c0.9-1.1,1.6-2.2,2.3-3.1c2.9-4.2,2.6-8.2,3.3-12.9c0.2-1.3-1.4-2.8-2.7-2c-7.3,4.2-13.5,11.9-11.7,20.8c0,0.2,0.1,0.4,0.2,0.5&#10;&#9;&#9;c-4.5,1.3-9.1,2-14.1,1.7c6-4.8,10.2-11.9,9-19.9c-0.2-1.1-1.5-2.1-2.7-1.5c-6.4,3.4-14.6,12.9-12.2,20.8&#10;&#9;&#9;c-5.1-0.7-10.2-1.8-15.1-3.5c2.5-1.3,4.9-2.4,6.8-4.8c2.2-2.8,3.7-6.1,3.8-9.7c0-1.5-1.8-3.1-3.1-1.8c-0.6,0.6-2.7,1.4-3.6,2.2&#10;&#9;&#9;c-1.5,1.1-2.8,2.5-4.1,3.8c-1.8,2-4.2,5.4-4.1,8.4c-1.4-0.7-2.8-1.4-4.3-2c-2.7-1.1-5.6-1-8.3-1.9c2.6-7.4,5.5-14.7,8.6-22&#10;&#9;&#9;c0.9,0.7,1.7,1.4,2.9,1.9c2.1,1,5.1,0.8,7.4,0.7c2.2-0.1,4.3-1.1,6-2.3c1.3-1,2.8-1.4,3.4-3c1.4-3.3-5.2-5.5-7.2-6&#10;&#9;&#9;c-3.4-0.8-6.5,0.3-9.5,1.6c0.2-0.4,0.4-0.9,0.6-1.3c1.6-3.6,3.1-7.3,4.7-11c5.8,4.7,16,2.1,20-3.7c0.6-0.9,0.5-2-0.4-2.7&#10;&#9;&#9;c-2.6-2-6.4-2-9.5-1.7c-1.8,0.2-3.6,0.8-5.4,1.3c-0.6,0.2-1.2,0.3-1.8,0.4c1.9-3.9,4-7.7,6.3-11.2c2.9-0.1,5.9-2.7,7.5-4.7&#10;&#9;&#9;c3.9-4.9,3.4-9.9,2.7-15.7c-0.2-1.7-2.4-2.2-3.5-0.9c-3.2,3.9-7,7-9.6,11.5c-0.8,1.3-1.4,3.1-1.4,4.6c0.1,1.2,0.2,1.7,0.6,2.8&#10;&#9;&#9;c0.1,0.3,0.2,0.5,0.2,0.7c-2.1,3.2-4,6.6-5.7,10.1c0-2,0-4-0.3-6c-0.6-3.1-2.6-6-4.5-8.4c-0.8-1-2.3-1-3.1,0&#10;&#9;&#9;c-2.7,3.6-3,7.7-2.1,11.9c0.7,3.2,3.1,8.6,6.6,9.8c-1,2.3-2,4.5-3,6.7c-1,2.1-1.9,4.3-2.9,6.4c-1-5.2-3.3-10.6-7.4-13.6&#10;&#9;&#9;c-1.3-0.9-2.8-0.1-3.1,1.3c-0.9,4.1-1.2,7.2,0,11.3c0.9,3,4.5,6.8,7.6,7.7c-2.4,5.6-4.6,11.1-6.6,16.8&#10;&#9;&#9;c-4.5,12.5-9.2,24.9-13.7,37.5c-4.1-1.7-7.8-5.6-11-8.4c0,0,0,0,0,0c5-8,6.9-17.5,2.5-26.4c-0.8-1.5-2.8-1.5-3.5,0&#10;&#9;&#9;c-3.3,6.5-6.9,13-5.8,19.9c-1.8-1.8-3.5-3.6-5.1-5.6c-1.8-2.2-3.5-4.4-5.2-6.6c2.4-3.3,4.8-6.5,6.4-10.3c1.9-4.7,0.1-9.4-0.3-14.1&#10;&#9;&#9;c-0.2-2.1-2.9-2-3.7-0.5c-2.9,5.3-7.7,10.9-7.8,17.1c-2.4-4-4.4-8.2-5.7-12.9c3.8-7-0.9-14.4-6.7-18.7c-1.1-0.8-2.9-0.2-3.1,1.3&#10;&#9;&#9;c-0.5,5.1-1.9,9.4,0.2,14.4c0.9,2.2,3.5,4.4,6.1,4.6c1.7,5.7,4.2,10.7,7.3,15.4c-2.7-1.4-5.4-2.9-8.3-3.9&#10;&#9;&#9;c-3.5-1.2-8.7-2.7-12.4-1.4c-1.1,0.4-1.3,1.6-1,2.5c1.5,5.1,8.1,9.5,12.8,11c2.4,0.8,5.5,0.7,7.8-0.2c1.6-0.7,3.8-1,5.3-2&#10;&#9;&#9;c1.3,1.8,2.7,3.5,4.1,5.4c2.1,2.7,4.4,5.2,6.8,7.6c-0.8-0.2-1.6-0.4-2.4-0.6c-3.4-0.9-8.6-2.1-12.1-1.4c-1.3,0.2-1.9,1.4-1.5,2.7&#10;&#9;&#9;c0.6,2.2,3.3,4.2,4.9,5.7c2.1,2,4.7,3.2,7.5,3.8c2.8,0.6,8.9,0,11.3-2.7c3.3,3.1,7.1,6.6,11.2,8.2c-2.4,6.9-4.8,13.8-7,20.7&#10;&#9;&#9;c-6.4,20.4-12.4,41-17.6,61.7c-0.4,1.5-0.8,3-1.2,4.4c-0.8-0.7-1.6-1.4-2.3-2c-2.2-2.2-4.4-4.5-6.7-6.7c-1.9-1.8-3.8-3.6-5.7-5.3&#10;&#9;&#9;c1.9-2.8,3.8-7.4,4.3-10.6c0.7-4-0.1-8.4-1.6-12.2c-0.6-1.5-2.4-1.4-3.3-0.4c-4.8,5.6-5.5,11.7-4.7,18.3c-2.6-2.4-5.1-4.8-7.7-7.1&#10;&#9;&#9;c-0.1-0.1-0.3-0.3-0.4-0.4c0.1-0.1,0.1-0.2,0.2-0.3c3.9-6.9,3.6-15.8,1.1-23.1c-0.5-1.5-2.4-1.3-3.3-0.4&#10;&#9;&#9;c-4.7,4.8-5.9,11.3-4.6,17.4c-2.5-2.6-5-5.2-7.3-8c2.1-2.3,3.6-7.4,3.4-10.2c-0.2-4.3-0.8-8.6-2.2-12.6c-0.6-1.7-2.9-1.4-3.5,0&#10;&#9;&#9;c-2.2,4.8-4.2,9.3-4.3,14c-1-1.4-2.1-2.7-3.1-4.1c-0.5-0.7-0.9-1.5-1.3-2.2c1.1-3.7-1.1-9-2.6-12.2c-1.3-2.6-5-7.7-8.4-7.5&#10;&#9;&#9;c-0.9,0-1.5,0.9-1.7,1.7c-0.8,4.7-1.2,9.9,0.7,14.4c1.2,2.9,5.4,5.5,8.7,5.3c0.6,0.7,3.3,5.2,3.7,5.7c0.7,0.9,1.4,1.8,2,2.7&#10;&#9;&#9;c-4.3-2-9.1-3.2-13.6-2.1c-1.3,0.3-2.3,1.9-1.3,3.1c2.3,2.9,4.5,6,8.4,6.9c3.5,0.7,8.6,1.4,11.8-0.9c2.7,3.4,5.7,6.5,8.8,9.6&#10;&#9;&#9;c-4.4-1-9.1-0.9-13.7-0.8c-1.6,0-2,2-1.3,3.1c2.6,3.9,5.4,6.7,10.3,6.6c2.6,0,8.5-0.4,11-2.8c2.1,2,4.1,3.9,6.2,5.9&#10;&#9;&#9;c-0.5,0-1-0.1-1.6-0.1c-3.6,0-7.8-0.3-11.3,0.9c-0.9,0.3-1.5,1.6-1,2.5c4,7.4,15.3,10.3,21.1,3.3c0.6,0.5,1.1,1.1,1.7,1.6&#10;&#9;&#9;c3,2.7,5.9,5.6,8.7,8.5l3.2,3.2c-0.1-0.1,2.1,2.4,1.7,1.5c0.1,0.2,0.1,0.3,0.2,0.4c-2.2,7.3-4.5,14.6-6.2,22.1&#10;&#9;&#9;c-1.1,5.1-1.9,10.4-2.4,15.6c-0.1,0.9-0.1,11.3,0.1,11.2c-2.2,1-0.7,4.6,1.5,3.5c1.9-0.9,2-2.5,2-4.5c-0.2-5.1,0.2-10,0.9-15&#10;&#9;&#9;c1.4-11,4.7-21.4,7.9-32c2.8-9.5,5.5-19.1,8.1-28.7c2.4,2.1,5.4,3.2,8.5,4.2c-2.7,5.4-2,10.7,0.2,16.3c0.6,1.5,2.4,1.4,3.3,0.4&#10;&#9;&#9;c3.2-3.3,3.8-9.2,3.1-14.1c3,1.6,6.3,2.9,9.7,4c-0.7,2.6-0.6,5.4-0.3,8.1c0.4,3.5,2.7,6.1,4.5,9c0.7,1,2.4,0.9,3.1,0&#10;&#9;&#9;c2.5-3.7,3.3-9.8,1.6-14.5c0.9,0.2,1.8,0.5,2.7,0.7c3.8,0.9,7.5,1.6,11.3,2c0.1,5.6,3.5,11,8.3,13.9c0.9,0.5,2,0.5,2.7-0.4&#10;&#9;&#9;c1.9-2.5,0.6-6.8-0.3-9.5c-0.4-1.1-0.9-2.3-1.6-3.4c1,0,2.1,0.1,3.2,0.1c2.8,0,5.4-0.2,8-0.5c0,0,0,0.1,0,0.1&#10;&#9;&#9;c1.6,5.4,5,11.1,10.3,13.5c0.9,0.4,2.2-0.1,2.5-1.1c1.6-4.9-1.2-10.3-5.1-13.7c1.6-0.3,3.2-0.5,4.8-0.8c0.3,0.2,0.6,0.4,1,0.4&#10;&#9;&#9;c6.5,0.9,15.2-2.4,17-9.3c1.1-4.3-5-2.3-6.7-2c-4.5,0.8-8.7,3.2-11.5,6.8c-0.1,0.1-0.1,0.1-0.2,0.2c-1.3,0.2-2.5,0.4-3.7,0.6&#10;&#9;&#9;c4.4-4.2,8-9.9,7-16.1c-0.2-1.3-1.5-1.9-2.7-1.5c-7,2.5-11.5,11.7-11.7,18.7c0,0,0,0,0,0.1c-2.8,0.4-5.6,0.7-8.6,0.6&#10;&#9;&#9;c-1.8,0-3.5-0.1-5.3-0.2c6-4.5,10.2-12.7,8.8-19.7c-0.2-1-1.1-1.8-2.2-1.7c-3.5,0.6-7.4,5.4-9.5,8.1c-1.7,2.1-2.7,4.5-3.6,6.9&#10;&#9;&#9;c-0.7,1.9-0.8,3.8-1.1,5.7c-2.4-0.3-4.8-0.7-7.3-1.2c-2.5-0.5-5.1-1.1-7.6-1.8c7.6-4.3,11.5-11.9,11.5-20.8c0-1.6-1.6-2.9-3.1-1.8&#10;&#9;&#9;c-6.8,5.1-15.8,11.3-14.9,20.6c-2.3-0.8-4.6-1.6-6.8-2.6c-1.3-0.5-2.5-1.2-3.7-1.8c5-4.3,7.9-14,4.7-19.5c-0.6-0.9-2-0.9-2.7-0.3&#10;&#9;&#9;c-1,0.7-1.6,2-2.5,2.9c-1.7,1.9-3.1,4.2-4.3,6.4c-1.5,2.7-1.5,5.2-1,7.8c-2.9-0.9-5.7-1.8-7.9-3.9c-0.2-0.2-0.4-0.3-0.6-0.4&#10;&#9;&#9;c3-10.8,5.9-21.5,9.2-32.2c6-19.7,13.6-39,20.5-58.4c2.7,0.9,5.5,1,8.1,1.8c1.3,0.4,2.6,1,3.8,1.6c-0.8,2.6-1,5.2-0.9,8&#10;&#9;&#9;c0.1,3.8,1.9,5.9,3.7,9c0.7,1.2,2.3,0.7,3.1,0c2.4-2.5,1.9-7.8,1.7-11c0-0.8-0.1-1.7-0.3-2.8c4.3,1.4,8.8,2.1,13.3,2.8&#10;&#9;&#9;c0,1.1-0.3,2.4-0.2,3.5c0.1,1.8,0.7,3.6,1.4,5.2c1.6,3.5,4.8,5.1,7.7,7.3c1.5,1.1,3.1-0.2,3.1-1.8c0-3.8-0.5-7.9-2.4-11.3&#10;&#9;&#9;c-0.4-0.6-0.8-1.3-1.3-2c5,0.1,9.6-0.7,14.2-2.1c3.8,6.4,9.8,7.6,16.9,7.6c1.6,0,2.9-1.6,1.7-3.1c-2.4-3.1-5.7-6.4-9.5-8.1&#10;&#9;&#9;c2.7-1.3,5.5-2.7,8.2-4.2c0.2-0.1,0.3-0.2,0.4-0.3c0,0,0.1,0,0.1,0c2.8,1.2,7.5-1.5,9.6-3.1c3.4-2.5,5.5-7,6-11.1&#10;&#9;&#9;C260.3,153.8,258.8,152.8,257.4,153.3 M100.7,275.9c0.2,0,0.4,0.1,0.6,0.1c1.5,0.3,2.9,0.5,4.4,0.6&#10;&#9;&#9;C104.1,276.9,102.3,276.6,100.7,275.9z" style="clip-path: url('#SVGID_2_'); fill: rgb(204, 204, 204); opacity: 1;" transform="matrix(0.9999999999999999, 0, 0, 0.9999999999999999, 381.16906738281244, 30.850015640258775)"/><path class="st5" d="M93,17.5c1.6,1.4,2.6,4.9,4.6,7c0.6,0.6,1.5,0.9,1.9,1.5c3.3,3.8,4.4,8.6,7,12c-0.2,0.3-0.4,0.4-0.6,0.3&#10;&#9;&#9;C98,31.9,90.7,23.4,82.3,22.4c-15.2-1.7-32.1,4.8-46.1,6.3c-2.9-2.3-6.4-4.7-8.5-6.5c7.5-1.8,14.6-9.5,22.6-10.8&#10;&#9;&#9;c2.2-0.3,4.9-0.2,7.4-0.5c6.8-0.9,13.6-1.3,21.1,1.2c2.1,0.7,4.8,1.8,7.1,2.8C88.4,15.8,91.6,16.4,93,17.5 M111.8,52.8&#10;&#9;&#9;c-7.2-3.6-8.9-9.2-16.1-12.7c-6.7-3.3-16.9-4.5-24.6-4.6c-2.6-0.1-5.5,0.6-8.5,0.5c-3-0.1-6.2-0.7-8.6-0.4c-3,0.4-5.6,2.3-7.9,1.3&#10;&#9;&#9;c-3.4-1.5-4.4-5.5-7.3-6c-0.2-0.3-0.3-0.7,0.1-1.1c11.7-2.6,23.9-5.4,36.3-6.1c2.4-0.1,5-0.5,7.2-0.3c8.2,1,15.3,9.5,23.1,16.2&#10;&#9;&#9;C105.9,44.1,110.6,48.2,111.8,52.8z M110.6,53.4c1,1.3,0.8,3.6,1.6,5.5c1.4,3.4,3.2,6.7,4.5,9.7c-0.1,0.2-0.3,0.2-0.4,0.1&#10;&#9;&#9;c-0.1,0.2-0.3,0.2-0.4,0.1c-9.9-7-14.1-14.6-23.5-17.7c-6-2-13.8-3.1-18.8-3.2c-2.1-0.1-4.6,0.7-7.1,0.7c-3,0.1-8.1,0-9.7-0.9&#10;&#9;&#9;c-3.8-2-5.8-6.8-8.8-9.1c4.6-2.8,11.4-1.5,17-1.6c1.8,0,3.7-0.7,5.6-0.7c6.6,0,19.3,1.7,26.3,5.5c3.9,2.1,5.5,4.7,8.9,8&#10;&#9;&#9;C107.1,51,109.4,52,110.6,53.4z M114.3,72.1c0.7,4.1,2.5,8.1,3.4,12.2c-0.2,0.3-0.4,0.4-0.6,0.3c-4.4-5.1-5.9-10-13.3-14.9&#10;&#9;&#9;c-6.4-4.2-13.3-7-20.4-7.6c-3.6-0.3-11.5,0.2-15.4-2.6c-3.7-2.6-5.2-7.5-9-10c6.7-0.3,13.7-1.5,21.1-0.4c6,0.9,12.3,1.4,18.2,5.5&#10;&#9;&#9;c6,4.2,10.2,9.9,17.2,14.8C116.7,70.3,113.9,71,114.3,72.1z M116.3,94.1C109,89,103.7,81.9,95.8,77.2c-5.4-3.2-12.1-3.1-17-5&#10;&#9;&#9;c-3.1-3.3-6.1-6.6-9-10C81.5,63.2,96.5,62.8,109,75c2.8,2.7,3.5,5.9,6.2,9C114.9,87.5,115.4,90.8,116.3,94.1z M116.4,96.1&#10;&#9;&#9;c-4.1,1.2-3.6,4.9-2.5,7.8c-0.3,0.2-0.9,0.3-0.7-0.1c-4.2-4.7-7.8-9.9-13.6-12c-1.5-0.5-3.2,0-4.5-0.7c-2.1-1.2-3.9-4.5-5.9-6.9&#10;&#9;&#9;c-3.1-3.6-5.2-6.1-8.3-9.8c4.3,1.1,9.7,1.2,14.2,3.6C103.4,82.2,109,90.2,116.4,96.1z M114.2,106.4c-0.7,1.1-1.6,0-2.3,0.5&#10;&#9;&#9;c0,3.7-0.1,7.4-0.1,11.1c-0.7,0.5-0.6-1.3-1.3,0.2c-0.4-0.6,0-1.3,0-2c-4.8-7.7-9.2-15.5-13.8-23.3&#10;&#9;&#9;C103.7,92.2,110.4,102.4,114.2,106.4z M109.1,119.1c-1.4,0.3-3.3-2.9-5.2-3.2c-1,0.3-1.2,0.7-1.7,1.8c-3.3-4.4-4.6-9-4-13.9&#10;&#9;&#9;C102.9,108.7,105.6,114,109.1,119.1z M99.3,102.3c-1.8-1.1-3.4-4.2-4.5-6.2C96.6,97.2,98.2,100.3,99.3,102.3z M98,115.6&#10;&#9;&#9;c-1.1,1.4-1,1.8-2.2,2.9c-7.4-10.7-13.3-21.5-10.5-33.6c4.5,5.3,7.6,10.8,11.5,16.2c0,5,0.3,10,3,14.7&#10;&#9;&#9;C99.3,116.8,98.5,115.2,98,115.6z M93.7,118.1c-1.7,0.3-3.7-1.6-5.6-2.8c-1.6,0.5-0.7,2.2-2.2,3.3c-8-10.2-13.1-19.9-14.3-31.1&#10;&#9;&#9;C71,82.2,69,77.6,72,72c3.1,3.1,8.7,7.7,11.1,11.6c0.9,7.7,0.3,15.7,3.9,23.1c1.8,3.6,5,6.4,6.6,10.5&#10;&#9;&#9;C93.8,117.5,93.4,117.8,93.7,118.1z M75.1,115.7c-2.9-6-8.2-10.1-11.2-15.6c-3.7-6.6-5.3-14.3-6.7-21.4c-1.4-7.1-1.9-15.3,1.4-22.5&#10;&#9;&#9;c3.7,3.7,8.8,9,12,13.5c-4,17.2,3.2,32.9,13.1,48.3C81,119,77.7,114.7,75.1,115.7z M74.1,116.5c-3.6,0.4-8.7-2-12-5&#10;&#9;&#9;c-1-0.6-1.8,0.9-2.8,0.2c-6.2-8.1-11.5-17.4-15.4-26.1c-2.8-6.3-4.1-11.5-5.1-19c-1.1-8.6-2.6-16.7,2.7-26.1&#10;&#9;&#9;c6.2,4,11.2,9.1,15.8,13.7c-3.2,11.8-2.5,22.2,0.9,33.5c1.3,4.4,2.9,9.6,5.2,13.3C66.6,106.1,71.4,110.4,74.1,116.5z M48.9,106.1&#10;&#9;&#9;c-0.8-0.8-1.2,1.2-1.8,0.9c-5.6-2-7.4-8.4-11.8-9.8c-5-12.6-9.1-25.7-10.4-39.2c-0.9-9.2-1.6-18.1,3.5-28.2c4.4,3,8.8,6.2,11.8,9.8&#10;&#9;&#9;c-2.8,6.9-4.4,13.9-3.5,21.2c1.4,12.2,5.3,26,11.8,36.9c2.4,4.1,5.6,8.3,8.1,12C54.3,110.4,51.6,107.9,48.9,106.1z M33.4,96.1&#10;&#9;&#9;c-2.6-0.7-4.1-5.3-5.8-7.5c-5.4-0.5-7.6-7.7-9.4-11.4c-0.8-0.8-1.4,0.3-2.1,0.3c-2.6-3.7-3.6-7.7-4.6-11.6c-0.2-1.2-1.4,0.4-2.3-1&#10;&#9;&#9;C6,60,5,56.7,5.8,50.6c0.8-5.6,2.3-11.1,4.7-17.2c2.1-5.2,4.7-9.7,6.2-14.6c3.5,3.6,6.1,5.9,10.6,9.3C17.9,52.3,26.7,74,33.4,96.1z&#10;&#9;&#9; M93.6,92.1c-8.2-7.5-15.2-18.6-24.1-27.4C78.3,72.9,88.7,82.7,93.6,92.1z M0.3-1.5c2.4-0.1,2.6,2.7,3.6,3.9&#10;&#9;&#9;c3.3,4,8.1,7.6,12.2,11.7c6.1,6,12.2,11.5,18.3,18.3c-1.2,0.3-1.4-1-2.2-1.7c-5-4.2-14.1-9.6-16.5-15.7C10.3,10.4,3.5,4.1,0.3-1.5z&#10;&#9;&#9; M1.8-3.1c3,1.3,3.2,5.3,6.1,6.6C4.6,2.4,3.6-1,1.8-3.1z M34.3,27.6c0.6,0.5,1.3,1,1.9,1.5C35.5,30,33.4,28.6,34.3,27.6z M10.4,7&#10;&#9;&#9;c2.3,0.8,3.8,3.6,5.7,5.1C13.5,11.4,12.3,8.5,10.4,7z M66.3,60.8c-0.2,0.2-0.4,0-0.7-0.1c-8.1-11.1-25.5-21.1-32.8-31.7&#10;&#9;&#9;C45.8,37.2,58.3,49.1,66.3,60.8z M69.6,64c-1.3-0.1-2.4-2-3.2-2.9C67.9,61.2,68.2,63.3,69.6,64z M40.1,32.1&#10;&#9;&#9;c-0.9,0.7-2.2-1.2-3.3-1.8C38.2,29.6,38.5,31.2,40.1,32.1z M26,14.3c3.8-1.5,7.9-3.9,11.5-5.9c1.3,0.2,2.4-0.4,3.7-0.3&#10;&#9;&#9;c5.9-3.7,14-4.9,21.2-4.5c5.9,0.3,14.2,0.7,20.9,6c1.8,1.4,3,3.9,5.5,5c-10.3-5-20.5-5.9-30.6-4.9c-5.4,0.5-10.6,0.6-15.5,3.1&#10;&#9;&#9;c-5.7,2.9-10.2,8.2-17.1,7.7c-1.6-1.5-3.2-2.9-4.3-4.5C21.6,14.5,24.4,14.9,26,14.3z M86.1,11.4c-0.6-0.6-0.6-1.6-1.1-2&#10;&#9;&#9;c-0.7-0.6-2.4-1.7-3.3-2.2c-6.3-3.4-12.7-4.7-17.9-4.9c-1.5-0.1-3.1-0.3-4.4-0.3c-2.3,0-4.2,1.1-6,1.2c-0.9,0.1-1.7-0.5-2.4-0.3&#10;&#9;&#9;c-4.3,0.7-8,3.6-11.8,3.3c-2.9,2.3-5.9,3.1-9.4,4.7c-2.5,1.1-7.2,4-9.9,2.8c-1.8-0.8-3.2-3.3-4.5-4.6C10.8,4.8,5.5-0.5,2.2-5.5&#10;&#9;&#9;C0.7-5-1-3.1-1.7-1.5C1.8,5,10.2,11.1,14.7,16.9c2.1,2.8-2.5,8.9-4.1,12.3c-0.3,0.8-0.2,1.8-0.5,2.7c-2.3,6-4.1,9.4-4.9,15.5&#10;&#9;&#9;C4,56,4.2,60.5,8.9,67.6c0.8,0.9,1.8,0.1,1.9,1.1C13,72.3,12.4,78.9,18,80c1.8,3.5,4.5,10.4,9.5,10.8c1.7,3.3,4.3,6.6,7.2,9.8&#10;&#9;&#9;c0.9,0.5,1.6-1.1,2.6-0.3c2.7,3.3,6.4,7.3,10.8,9.1c0.7,0.4,1.2-1.1,1.8-0.9c4.9,2.5,8.6,5.8,13,5.7c3.7,2.8,8.6,3.1,13,5.7&#10;&#9;&#9;c1.4-0.4,0.5-1.9,1.7-2.2c2.9,2,6.3,1.9,8.6,4.3c0.9-1.4,0.9-2.7,2.5-4.3c2.3,1.2,5.1,2.5,6.8,3.7c0.9-0.3,1.8-3.3,3.2-3.7&#10;&#9;&#9;c1,0.8,2,2.5,3.4,2.6c1.4-0.3,1.1-2.5,2-2.7c2.2,1.2,4.2,3.2,7,5.4c0.7-0.3,1.4-0.2,2.1-0.7c-0.8-4.6-0.4-9.3-0.5-13.9&#10;&#9;&#9;c0.9-1.1,2.1,0.2,2.9-1.3c-0.1-3-1.9-5.7-1.4-8.8c1.3-1,2.9-0.2,4.1-1.9c-0.1-3.3-2.9-6.2-1.9-9.6c0.9-0.2,2,1.6,2.8,1.4&#10;&#9;&#9;c0.4-5.9-4.1-11.1-4-16.9c1-0.9,2.1-1,3-2.4c-3.2-4.4-3.7-9.1-5.7-13.7c0.6-0.5,1.3,0.2,1.8-0.9c-2.7-4.2-5.4-8.3-7.3-12.6&#10;&#9;&#9;c0.5-0.5,1.2,0.2,1.7-0.7c-2.8-7.3-7-14.4-13.5-21.2C96,15.5,89.1,14.7,86.1,11.4z" style="clip-path: url('#SVGID_2_'); fill-rule: evenodd; clip-rule: evenodd; fill: rgb(204, 204, 204); opacity: 1;" transform="matrix(-0.9659278392791747, -0.2588196098804474, 0.2588196098804474, -0.9659278392791747, 371.1120300292968, 264.3905029296875)"/><g transform="matrix(0.8007922768592833, -0.5989430546760559, 0.5989430546760559, 0.8007922768592833, -66.7731704711914, 389.63568115234375)"><g transform="matrix(0.9999999999999999, 0, 0, 0.9999999999999999, 0, -7.105427357601002e-15)"><g transform="matrix(0.9999999999999999, 0, 0, 0.9999999999999999, 0, -7.105427357601002e-15)"><g transform="matrix(0.9999999999999999, 0, 0, 0.9999999999999999, 0, -7.105427357601002e-15)"><g transform="matrix(0.9999999999999999, 0, 0, 0.9999999999999999, 0, -7.105427357601002e-15)"><g transform="matrix(0.9999999999999999, 0, 0, 0.9999999999999999, 0, -7.105427357601002e-15)"><g transform="matrix(0.9999999999999999, 0, 0, 0.9999999999999999, 0, -7.105427357601002e-15)"><path class="st7" d="M80.9,409.1c1-3.5,5.8-7.6,7.8-12.5c0.6-1.4,0.4-3,0.9-4.2c3.6-8,10.3-13.3,13.8-19.9c0.6,0,0.9,0.3,0.9,0.8&#10;&#9;&#9;c-4.3,17.2-12.5,35.1-7.9,49.2c8.3,25.4,31.1,47.4,43.7,68.6c-1.6,6.2-2.7,13.5-4.1,18.3c-8.3-10.6-25.8-16.2-33.7-27.9&#10;&#9;&#9;c-2.1-3.2-3.9-7.6-6.2-11.3C89.7,460,84,449.4,82.5,435.8c-0.4-3.9-0.6-8.9-0.8-13.3C81.5,417.7,80.1,412,80.9,409.1 M123.1,353.4&#10;&#9;&#9;c-0.5,14.1-8.1,20.9-8.4,34.8c-0.3,13.1,5.3,30,10.7,42.4c1.8,4.2,5,8.4,6.9,13.1c2,4.9,3.4,10.3,5.6,13.9&#10;&#9;&#9;c2.8,4.5,7.7,7.2,7.8,11.6c0.1,6.4-5.5,11-4.2,16c-0.4,0.6-0.9,0.9-1.8,0.7c-12.7-16.7-26.1-33.9-36.2-53.2&#10;&#9;&#9;c-2-3.8-4.5-7.6-5.7-11.2c-4.5-13.8,3.8-31.2,8.8-48.5C113.6,369.1,116.7,358.6,123.1,353.4z M125,354.9c1.3-2.6,5.2-3.9,7.5-6.5&#10;&#9;&#9;c4.3-4.7,8.3-9.9,12-14.3c0.5,0,0.5,0.3,0.4,0.6c0.5,0,0.4,0.3,0.4,0.6c-3.9,20.8-12.8,32.9-10.8,50.2c1.2,10.9,5.2,24.2,8.6,32.1&#10;&#9;&#9;c1.5,3.4,4.4,6.7,6.3,10.7c2.3,4.7,5.9,12.9,5.7,16.1c-0.4,7.5-6.5,14.1-8,20.7c-7.9-5.3-10.7-16.9-15-25.9&#10;&#9;&#9;c-1.4-2.9-3.9-5.3-5.3-8.3c-4.8-10.4-11.4-31.9-10.5-45.7c0.5-7.7,3.4-12.1,6.2-20C123.7,362.1,123.6,357.7,125,354.9z&#10;&#9;&#9; M151.9,335.2c6-4.2,11-9.9,16.9-14.3c0.6,0.1,0.9,0.3,0.9,0.8c-4.9,10.7-11.6,16.6-13.8,32c-2,13.2-1.3,26.1,2.9,37.9&#10;&#9;&#9;c2.2,6,8.6,18.1,7.2,26.3c-1.4,7.7-8.1,13.7-9.3,21.5c-5.4-10.4-12.3-20.7-16-33.3c-3-10.1-6.8-20.4-4.6-32.9&#10;&#9;&#9;c2.2-12.6,8.2-23.4,10.8-38.1C147.3,332.8,150.4,336.9,151.9,335.2z M185.3,315.9c-2.8,15.4-10.1,29-11.8,45&#10;&#9;&#9;c-1.2,11,4,21.5,4.6,30.6c-2.9,7.4-6,14.6-9.2,21.5c-7.1-19.2-18.6-42.7-8.5-71.6c2.3-6.5,6.8-9.9,9.8-16.4&#10;&#9;&#9;C175.9,323.1,180.8,319.8,185.3,315.9z M188.4,314.4c4.9,5.6,10.4,2.2,14.1-1.7c0.6,0.3,1.1,1.2,0.3,1.2&#10;&#9;&#9;c-4.3,10.1-10,19.7-9.1,30.3c0.2,2.7,2.3,5.1,2.1,7.6c-0.3,4.3-4.3,9.5-6.6,14.4c-3.5,7.6-5.9,12.6-9.5,20.3&#10;&#9;&#9;c-1.4-7.6-5.2-16.3-4.7-25.2C175.9,345.2,184.4,330.4,188.4,314.4z M206.4,310.3c2.2,0.3,1.1,2.6,2.5,3.3c5.9-2.7,11.9-5.3,17.7-8&#10;&#9;&#9;c1.3,0.8-1.7,1.8,1.2,1.9c-0.7,1.1-2.1,0.9-3.1,1.5c-8.8,13.2-17.9,26-26.9,38.9C191.5,337.5,202.8,319.4,206.4,310.3z&#10;&#9;&#9; M230.2,309.1c1.5,2-2.2,7.3-1.3,10.7c1.2,1.4,1.9,1.4,4.1,1.5c-4.5,8.4-10.9,13.9-19.1,16.5C218.3,326.7,224.7,318.5,230.2,309.1z&#10;&#9;&#9; M210.7,337c-0.5,3.7-4.1,8.5-6.5,11.7C204.7,344.9,208.4,340.2,210.7,337z M232.7,329.4c3.1,0.7,3.7,0.3,6.3,1.4&#10;&#9;&#9;c-11.5,19.6-24.4,36.9-45.5,41.2c5.2-11,11.6-19.9,17.2-30.1c8-3.7,15.7-7.7,21.1-15.5C233.8,326.4,231.8,328.8,232.7,329.4z&#10;&#9;&#9; M239.8,334.3c1.8,2.4,0.2,7-0.3,10.9c1.9,2.2,4-0.5,6.9,1c-10.3,20.1-21.9,35.3-38.8,45.5c-8,4.9-13.9,11.4-24.9,10.8&#10;&#9;&#9;c2.7-7.1,5.9-19.5,10.3-26.2c11.5-7,24.6-11.9,33.7-23.1c4.4-5.5,6.4-12.6,11.8-18.2C238.8,334.6,239.7,335,239.8,334.3z&#10;&#9;&#9; M249.8,365.6c-7.4,8.9-10.1,20.4-16.5,29.2c-7.8,10.7-18.7,18.9-29,26.3c-10.3,7.5-22.9,14.3-36.7,14.2&#10;&#9;&#9;c3.1-8.5,7.9-20.5,12.6-28.9c30.2-6.3,49.9-29.1,67-56.1C250.6,353.8,246.2,362.2,249.8,365.6z M251.7,366.6&#10;&#9;&#9;c3.2,5.4,3.2,15.2,0.9,22.7c-0.2,2.1,2.7,2.2,2.3,4.4c-8.3,15.7-19.2,31-30.2,43.6c-8,9.2-15.3,15-26.4,22&#10;&#9;&#9;c-12.8,8.1-24.7,16.3-43.4,14.8c1.7-12.8,6.3-24.4,10.1-35c21-3.5,37-12.3,52.5-25.9c6-5.3,13.1-11.6,17.2-18&#10;&#9;&#9;C240.7,386.1,244,375.3,251.7,366.6z M253.6,414.2c-0.7,1.8,2.8,0.9,2.8,2.3c1,10.4-7.8,17.9-6.9,25.8&#10;&#9;&#9;c-16.3,17-34.2,33.2-54.7,45.2c-13.9,8.1-27.5,15.8-47.3,15.1c1.6-9.2,3.4-18.6,7-25.8c13-0.6,25.3-3.2,36.2-9.9&#10;&#9;&#9;c18.3-11.2,37.3-27.4,49.8-45.7c4.7-6.8,9.1-14.9,13.1-21.7C256.5,402.5,254.6,408.6,253.6,414.2z M249.1,446.1&#10;&#9;&#9;c0.8,4.7-5.4,10.3-7.7,14.7c3.1,9-6.6,17.7-11.3,23.2c-0.7,1.9,1.5,2,2,3.2c-4,6.8-9.6,11.3-15.1,15.8c-1.7,1.2,1.6,2,0.1,4.4&#10;&#9;&#9;c-5.3,8.5-9.7,12.6-20,15.8c-9.5,2.9-19.3,4.5-30.8,5.1c-9.8,0.6-18.9-0.4-27.6,0.9c3.1-8.2,5-13.9,7-23.6&#10;&#9;&#9;C190.9,502.8,219,472.9,249.1,446.1z M198.8,353.5c-6,18.4-18.3,37.7-25.8,58.3C179.4,391.8,187.4,368.1,198.8,353.5z M118.4,570&#10;&#9;&#9;c-1.9-3.7,2.4-6,3.6-8.5c4-8.2,6.2-18.4,9.6-28c5.1-14.1,9.3-27.8,15.7-42.5c1.4,1.7-0.6,3-1.1,4.7c-3,11-5,29.4-12.9,37.6&#10;&#9;&#9;C130,545.4,125.1,560.8,118.4,570z M114.9,568.7c-0.2-5.6,6-9,6-14.5C121.5,560.2,117,564.3,114.9,568.7z M139.9,494.8&#10;&#9;&#9;c0.3-1.4,0.6-2.8,0.9-4.2C142.7,491.2,142.1,495.4,139.9,494.8z M124.6,547.8c-0.4-4.2,2.9-8.7,4-12.8&#10;&#9;&#9;C129.3,539.7,125.6,543.6,124.6,547.8z M169,419.7c0.5,0.1,0.3,0.7,0.3,1.2c-11.7,21-14.7,55.9-26.4,75.2&#10;&#9;&#9;C146.6,469.5,156.3,440.9,169,419.7z M171.8,412.1c0.8,2-1.4,5.3-2.2,7.2C168.6,416.9,171.5,414.8,171.8,412.1z M142.7,482.3&#10;&#9;&#9;c1.8,0.9-0.3,4.3-0.4,6.5C140.1,487.1,142.4,485.4,142.7,482.3z M124.8,517.7c-5.1-4.9-12-9.7-17.7-13.9c-0.7-2.1-2.5-3.5-3.1-5.6&#10;&#9;&#9;c-10.1-6.7-17.9-18.6-22.7-30.4c-3.9-9.6-9.3-23-5.8-37.5c0.9-3.9,3.9-7.6,3.9-12.3c-0.4,20,5.6,36.9,14.5,52.1&#10;&#9;&#9;c4.8,8.1,8.7,16.4,16.3,22.3c8.8,6.8,20.5,10.3,24.7,21.5c-1.1,3.7-2.3,7.2-3.9,10.1C128.4,524.4,126.9,519.7,124.8,517.7z&#10;&#9;&#9; M76.3,424.5c-0.5,1.3-2,2.1-2.4,3.3c-0.5,1.6-0.9,5-1,6.9c-0.8,12.5,1.9,23.6,5.4,31.9c1,2.3,1.8,5.2,2.8,7.2&#10;&#9;&#9;c1.7,3.7,4.7,5.8,6.3,8.6c0.8,1.3,0.5,3,1.3,4.1c4.2,6.3,11.6,10,13.9,16.3c5.7,2.9,9.3,7,14.4,11.5c3.7,3.2,11.6,8.5,11.7,13.6&#10;&#9;&#9;c0,3.5-3,7.5-4,10.6c-3.6,10.2-8.2,22.5-13.7,31.4c1.9,2,6.1,3.2,9.2,3.2c7.8-10.2,11.2-28,17.2-39.4c2.8-5.4,16-2.5,22.5-2.6&#10;&#9;&#9;c1.4,0,3-1,4.6-1.1c11.1-0.8,17.9-0.4,28.2-3.5c14.5-4.4,21.5-8.1,29.4-20.8c0.9-1.9-1.2-2.8,0.3-3.8c4.2-6.1,15-9.9,12.7-19.6&#10;&#9;&#9;c4.3-5.5,13.2-14.8,10.1-22.9c4-5.2,7.3-11.6,10.2-18.5c0.1-1.8-3-1.7-2.4-3.8c3.2-6.7,6.8-15.5,6.5-23.8c0.1-1.4-2.6-1.1-2.8-2.3&#10;&#9;&#9;c0.4-9.6,2.9-17.8-0.4-24.8c1.8-7.9-1.4-16-0.4-24.8c-1.6-1.9-3.4,0.7-4.7-1.1c1-6.1-1.6-11.4,0.5-16.9c-2.9-0.4-5,0.5-8.6-0.8&#10;&#9;&#9;c0.2-4.6,0.2-10,0.9-13.5c-1.2-1.2-6.5-0.4-8.2-2.4c0.6-2.2,2.5-5,1.7-7.3c-1.6-2.1-4.8,0.1-5.7-1.3c0.3-4.4,2.1-9,3.4-15.1&#10;&#9;&#9;c-1-0.9-1.3-2.1-2.7-2.8c-6.6,4.6-14.4,7.3-21.7,11c-2.4-0.6-1.2-3.4-4.1-3.7c-4.6,2.4-7.7,7.2-12.9,8.6c-2.6-1.4-2.5-4.4-6-5.2&#10;&#9;&#9;c-5.1,2.5-7.7,9.1-13.8,10c-0.9-1.2,1.1-4.2,0.1-5.5c-9.6,3.7-14.6,14.6-24,18.7c-2.1-0.9-3-2.6-5.9-3&#10;&#9;&#9;c-4.6,8.2-11.7,12.6-17.5,19.1c-1.2-0.6-0.6-2.3-2.8-2.3c-4.7,7.3-9.2,14.7-14.6,20.8c-1.2-0.4-0.6-2-2.3-2.2&#10;&#9;&#9;c-9.5,9.8-17.6,21.6-23.7,36.9C75.5,405.7,79.3,417.2,76.3,424.5z" style="clip-path: url('#SVGID_2_'); fill-rule: evenodd; clip-rule: evenodd; fill: rgb(204, 204, 204); opacity: 1;" transform="matrix(0.9999999999999999, 0, 0, 0.9999999999999999, 337.9790649414062, -215.95010375976562)"/></g></g></g></g></g></g></g><g transform="matrix(0.9999999999999999, 0, 0, 0.9999999999999999, 163.8478393554687, 345.5201721191406)"><path class="st8" d="M185.1,18.7c-6.2-0.5-7,9.1-0.8,9.6C190.4,28.8,191.3,19.2,185.1,18.7" style="clip-path: url('#SVGID_2_'); fill: rgb(204, 204, 204); opacity: 1;" transform="matrix(0.9999999999999999, 0, 0, 0.9999999999999999, 0, -7.105427357601002e-15)"/><path class="st8" d="M213.7,39.1c6.2,0.5,7-9.1,0.8-9.6C208.3,29,207.5,38.6,213.7,39.1" style="clip-path: url('#SVGID_2_'); fill: rgb(204, 204, 204); opacity: 1;" transform="matrix(0.9999999999999999, 0, 0, 0.9999999999999999, 0, -7.105427357601002e-15)"/><path class="st8" d="M222.3,19.2c6.2,0.5,7-9.1,0.8-9.6C217,9,216.1,18.6,222.3,19.2" style="clip-path: url('#SVGID_2_'); fill: rgb(204, 204, 204); opacity: 1;" transform="matrix(0.9999999999999999, 0, 0, 0.9999999999999999, 0, -7.105427357601002e-15)"/><path class="st8" d="M235.3,44.1c9.3,0.8,10.6-13.6,1.3-14.4C227.3,28.9,226,43.3,235.3,44.1" style="clip-path: url('#SVGID_2_'); fill: rgb(204, 204, 204); opacity: 1;" transform="matrix(0.9999999999999999, 0, 0, 0.9999999999999999, 0, -7.105427357601002e-15)"/><path class="st8" d="M218.6,68.9c9.3,0.8,10.6-13.6,1.3-14.4C210.6,53.7,209.3,68.1,218.6,68.9" style="clip-path: url('#SVGID_2_'); fill: rgb(204, 204, 204); opacity: 1;" transform="matrix(0.9999999999999999, 0, 0, 0.9999999999999999, 0, -7.105427357601002e-15)"/><path class="st8" d="M165.7,3.5c-9.3-0.8-10.6,13.6-1.3,14.4C173.7,18.7,175,4.3,165.7,3.5" style="clip-path: url('#SVGID_2_'); fill: rgb(204, 204, 204); opacity: 1;" transform="matrix(0.9999999999999999, 0, 0, 0.9999999999999999, 0, -7.105427357601002e-15)"/></g><g transform="matrix(-0.5547658205032349, 0.3271205723285675, -0.3271205723285675, -0.5547658205032349, 511.32775878906244, 346.3424072265625)"><path class="st8" d="M21.8,465.9c6.2,0.5,7-9.1,0.8-9.6C16.5,455.8,15.6,465.4,21.8,465.9" style="clip-path: url('#SVGID_2_'); fill: rgb(204, 204, 204); opacity: 1;" transform="matrix(0.9999999999999999, 0, 0, 0.9999999999999999, 0, -7.105427357601002e-15)"/><path class="st8" d="M30.5,446c6.2,0.5,7-9.1,0.8-9.6C25.1,435.8,24.3,445.4,30.5,446" style="clip-path: url('#SVGID_2_'); fill: rgb(204, 204, 204); opacity: 1;" transform="matrix(0.9999999999999999, 0, 0, 0.9999999999999999, 0, -7.105427357601002e-15)"/><path class="st8" d="M43.5,470.9c9.3,0.8,10.6-13.6,1.3-14.4C35.5,455.7,34.2,470.1,43.5,470.9" style="clip-path: url('#SVGID_2_'); fill: rgb(204, 204, 204); opacity: 1;" transform="matrix(0.9999999999999999, 0, 0, 0.9999999999999999, 0, -7.105427357601002e-15)"/><path class="st8" d="M26.8,495.7c9.3,0.8,10.6-13.6,1.3-14.4C18.8,480.5,17.5,494.9,26.8,495.7" style="clip-path: url('#SVGID_2_'); fill: rgb(204, 204, 204); opacity: 1;" transform="matrix(0.9999999999999999, 0, 0, 0.9999999999999999, 0, -7.105427357601002e-15)"/></g><g transform="matrix(0.9999999999999999, 0, 0, 0.9999999999999999, 316.72680664062494, -146.02340698242188)"><path class="st8" d="M241.4,225.3c6.2,0.5,7-9.1,0.8-9.6C236.1,215.2,235.2,224.8,241.4,225.3" style="clip-path: url('#SVGID_2_'); fill: rgb(204, 204, 204); opacity: 1;" transform="matrix(0.9999999999999999, 0, 0, 0.9999999999999999, 0, -7.105427357601002e-15)"/><path class="st8" d="M250.1,205.4c6.2,0.5,7-9.1,0.8-9.6C244.7,195.2,243.9,204.8,250.1,205.4" style="clip-path: url('#SVGID_2_'); fill: rgb(204, 204, 204); opacity: 1;" transform="matrix(0.9999999999999999, 0, 0, 0.9999999999999999, 0, -7.105427357601002e-15)"/><path class="st8" d="M263.1,230.3c9.3,0.8,10.6-13.6,1.3-14.4C255,215.1,253.8,229.5,263.1,230.3" style="clip-path: url('#SVGID_2_'); fill: rgb(204, 204, 204); opacity: 1;" transform="matrix(0.9999999999999999, 0, 0, 0.9999999999999999, 0, -7.105427357601002e-15)"/><path class="st8" d="M246.4,255.1c9.3,0.8,10.6-13.6,1.3-14.4C238.4,239.9,237.1,254.3,246.4,255.1" style="clip-path: url('#SVGID_2_'); fill: rgb(204, 204, 204); opacity: 1;" transform="matrix(0.9999999999999999, 0, 0, 0.9999999999999999, 0, -7.105427357601002e-15)"/></g><path class="st5" d="M270.2,63.3c1.2-0.4,3.3,0.2,5-0.1c0.5-0.1,0.9-0.4,1.4-0.5c3-0.5,5.7,0.5,8.3,0.2c0.1,0.2,0.1,0.3,0,0.4&#10;&#9;&#9;c-5.8,2-12.4,3-15.6,7c-5.7,7.1-7.7,17.8-11.4,25.4c-2.1,0.7-4.4,1.8-6,2.2c1.5-4.4-0.2-10.4,1.7-14.9c0.5-1.2,1.5-2.6,2.1-3.9&#10;&#9;&#9;c1.7-3.7,3.6-7.4,7.3-10.3c1-0.9,2.4-1.8,3.7-2.7C267.9,65.1,269.2,63.7,270.2,63.3 M294.1,65c-4.1,2.5-7.5,1.6-11.6,4.1&#10;&#9;&#9;c-3.8,2.4-7.6,7.1-10.1,11c-0.9,1.3-1.5,3-2.4,4.4c-1,1.5-2.3,2.9-2.9,4.2c-0.8,1.7-0.6,3.6-1.9,4.4c-1.8,1.2-4.2,0.5-5.4,1.8&#10;&#9;&#9;c-0.2,0-0.4-0.1-0.5-0.4c2.4-6.8,4.8-13.8,8.4-20.4c0.7-1.3,1.3-2.7,2.1-3.7c3.1-3.9,9.6-4.8,15.5-6.6&#10;&#9;&#9;C287.8,65.2,291.4,64.1,294.1,65z M294,65.8c1-0.1,2.1,0.7,3.3,0.9c2.2,0.3,4.4,0.5,6.3,0.8c0.1,0.1,0,0.2-0.1,0.2&#10;&#9;&#9;c0.1,0.1,0,0.2-0.1,0.2c-6.7,2.8-11.8,2.5-16.4,6.3c-2.9,2.4-5.9,6-7.6,8.5c-0.7,1.1-1.1,2.5-1.9,3.8c-0.9,1.5-2.6,4.1-3.5,4.7&#10;&#9;&#9;c-2.2,1.3-5.3,0.8-7.4,1.6c0-3.2,2.8-6.2,4.6-9.2c0.6-0.9,0.8-2.1,1.4-3.1c2.1-3.3,7-9.3,11.1-11.6c2.3-1.3,4.1-1.3,6.9-2&#10;&#9;&#9;C291.7,66.8,293,65.9,294,65.8z M304.7,69.8c2.3,0.9,4.9,1.3,7.3,2.2c0.1,0.2,0.1,0.3,0,0.4c-4,0.6-6.9-0.2-11.8,2&#10;&#9;&#9;c-4.2,1.9-7.7,4.5-10.3,8c-1.3,1.7-3.6,5.9-6.2,7c-2.5,1.1-5.4,0.3-7.9,1.4c2-3.5,3.6-7.4,6.5-10.8c2.3-2.8,4.6-5.8,8.5-7.5&#10;&#9;&#9;c4-1.7,8.2-2,13-4.1C304.6,68,304,69.7,304.7,69.8z M316.5,75.7c-4.9,2.1-10.2,2.6-15.1,5.1c-3.4,1.7-5.4,5.2-7.9,7.1&#10;&#9;&#9;c-2.7,0.5-5.3,1-7.9,1.4c4.2-5.6,8.7-13.4,18.9-15.9c2.3-0.6,4.1,0.1,6.5-0.3C312.7,74.4,314.6,75.2,316.5,75.7z M317.5,76.3&#10;&#9;&#9;c-0.7,2.5,1.3,3.4,3.2,3.7c0,0.2-0.1,0.5-0.3,0.3c-3.7,0.7-7.5,0.8-10.4,3.1c-0.7,0.6-1,1.6-1.8,2c-1.3,0.7-3.5,0.5-5.4,0.8&#10;&#9;&#9;c-2.8,0.4-4.7,0.7-7.6,1.1c1.9-1.8,3.7-4.6,6.3-6.1C306.4,78.5,312.2,78.2,317.5,76.3z M322.1,80.7c0.3,0.7-0.5,0.8-0.5,1.3&#10;&#9;&#9;c1.9,1.2,3.7,2.4,5.6,3.6c0,0.5-0.8-0.1-0.3,0.7c-0.4,0-0.7-0.4-1-0.6c-5.4,0-10.8-0.2-16.2-0.4C311.5,81.6,318.8,81.4,322.1,80.7z&#10;&#9;&#9; M326.9,87.3c-0.3,0.8-2.5,0.7-3.3,1.6c-0.2,0.6,0,0.8,0.3,1.4c-3.3,0.3-6-0.5-8.3-2.4C319.7,87.2,323.2,87.5,326.9,87.3z&#10;&#9;&#9; M315.3,87c-1.2,0.5-3.2,0.4-4.6,0.3C311.9,86.7,313.9,86.9,315.3,87z M321.6,91.9c0.4,1,0.6,1.1,0.8,2.1&#10;&#9;&#9;c-7.8,0.4-15.2-0.1-20.4-5.3c4.1-0.6,7.9-0.4,11.9-0.7c2.6,1.6,5.2,3,8.4,3.1C322.6,91.6,321.6,91.5,321.6,91.9z M321.5,94.8&#10;&#9;&#9;c-0.4,1-2,1.4-3.2,2c-0.3,1,0.9,1,1,2.2c-7.7,0.8-14.2,0.4-20.3-2.6c-2.9-1.4-5.9-1.8-7.8-5.1c2.5-0.6,6.7-2,9.4-2&#10;&#9;&#9;c4.2,2,8,4.8,12.9,5.3c2.4,0.2,4.8-0.5,7.4,0C321.2,94.6,321.3,94.9,321.5,94.8z M314.4,103.5c-4-0.5-7.7,0.9-11.5,0.8&#10;&#9;&#9;c-4.5-0.2-8.9-1.8-13-3.4c-4.1-1.5-8.4-3.9-10.9-7.8c3-0.7,7.4-1.6,10.7-1.8c7.5,7.5,17.7,8.8,28.7,8.6&#10;&#9;&#9;C318,101.5,314.7,101.9,314.4,103.5z M314.5,104.3c-0.9,1.9-3.8,3.8-6.3,4.5c-0.6,0.3-0.1,1.2-0.8,1.5c-6.1,0.6-12.5,0.3-18.2-0.4&#10;&#9;&#9;c-4.1-0.6-7.2-1.6-11.2-3.4c-4.7-2.2-9.3-4-12.4-9.6c4-1.9,8.2-2.8,11.9-3.7c4.9,5.4,10.5,8.3,17.3,10.2c2.6,0.7,5.8,1.6,8.4,1.6&#10;&#9;&#9;C306.8,104.8,310.6,103.7,314.5,104.3z M301.2,113.7c-0.6,0.1,0.2,1-0.1,1.2c-2.8,2.2-6.6,1.1-8.7,2.9c-7.9-1.5-15.9-3.6-23.2-7.2&#10;&#9;&#9;c-4.9-2.4-9.7-4.9-13.2-10.7c2.9-1.3,6-2.5,8.7-2.9c2.6,3.6,5.7,6.6,9.6,8.5c6.6,3.1,14.9,5.5,22.5,5.7c2.8,0.1,6-0.2,8.7-0.3&#10;&#9;&#9;C305.1,112.4,303,113,301.2,113.7z M291.2,118.4c-1.2,1.1-4,0.4-5.7,0.6c-2,2.6-6.3,1.4-8.8,1.1c-0.7,0.2-0.3,0.8-0.5,1.2&#10;&#9;&#9;c-2.7,0.1-5-0.6-7.4-1.4c-0.7-0.3-0.3,0.8-1.2,0.9c-3.4,0.1-5.4-0.4-8.3-2.8c-2.6-2.2-4.9-4.7-7.2-7.9c-2-2.7-3.4-5.5-5.4-7.7&#10;&#9;&#9;c2.9-0.6,4.9-1.2,8.1-2.4C264.1,112.5,277.9,114.9,291.2,118.4z M308.3,86.7c-6.4,1.8-14.2,1.9-21.5,3.6&#10;&#9;&#9;C293.7,88.3,302,86.1,308.3,86.7z M231.2,104.3c0.7-1.2,2.2-0.5,3.1-0.6c3.1-0.4,6.4-1.7,9.8-2.5c5-1.2,9.7-2.6,15.1-3.5&#10;&#9;&#9;c-0.2,0.7-1,0.4-1.5,0.6c-3.7,1.2-9.4,4.1-13.2,3.4C240.4,103,235.1,104.5,231.2,104.3z M230.9,103.1c1.6-1.1,3.7,0,5.3-1&#10;&#9;&#9;C234.6,103.4,232.5,102.8,230.9,103.1z M256.8,96.3c0.5-0.2,0.9-0.3,1.4-0.5C258.3,96.4,257,97.1,256.8,96.3z M238.7,101.9&#10;&#9;&#9;c1.1-0.9,3-0.8,4.4-1.3C241.9,101.7,240.1,101.4,238.7,101.9z M283.7,90.5c0.1,0.2-0.2,0.2-0.3,0.3c-8.2,0.6-18.8,6.3-26.5,6.6&#10;&#9;&#9;C265.3,93.5,275.3,90.9,283.7,90.5z M286.4,89.9c-0.4,0.6-1.8,0.6-2.5,0.7C284.5,89.9,285.6,90.4,286.4,89.9z M260.9,94.8&#10;&#9;&#9;c0.1,0.7-1.3,0.7-1.9,1.1C259,95,259.9,95.3,260.9,94.8z M247.4,96.3c0.4-2.4,0.5-5.3,0.7-7.7c0.5-0.6,0.5-1.4,1-2&#10;&#9;&#9;c0-4.1,2-8.6,4.4-12.2c2-2.9,4.8-7,9.7-8.7c1.3-0.5,2.9-0.3,4.2-1.2c-5.8,3.6-9.5,8.5-12.2,13.9c-1.4,2.9-3.1,5.6-3.3,8.9&#10;&#9;&#9;c-0.3,3.8,0.9,7.8-1.5,11.1c-1.3,0.4-2.5,0.7-3.6,0.8C246.1,98.6,247.2,97.3,247.4,96.3z M265,64.9c-0.5,0.1-1-0.2-1.4-0.1&#10;&#9;&#9;c-0.5,0.2-1.6,0.7-2.2,1c-3.7,2.1-6.4,5-8.1,7.5c-0.5,0.7-1.1,1.5-1.5,2.1c-0.7,1.2-0.8,2.4-1.3,3.4c-0.2,0.5-0.8,0.7-0.9,1.1&#10;&#9;&#9;c-1,2.4-0.7,5.2-2.1,7c0.2,2.2-0.3,4-0.6,6.3c-0.2,1.7-0.3,4.9-1.7,5.9c-1,0.7-2.7,0.6-3.8,0.8c-3.6,0.9-8,1.9-11.6,2&#10;&#9;&#9;c-0.2,0.9,0.2,2.4,0.8,3.2c4.4,0.3,10.1-2,14.5-2.5c2.1-0.2,3.7,4.1,5,6c0.3,0.4,0.9,0.7,1.2,1.1c2.3,3,3.5,5.1,6.3,7.4&#10;&#9;&#9;c4,3.3,6.4,4.6,11.5,4.5c0.7-0.1,0.6-0.9,1.1-0.6c2.5,0.1,5.7,2.4,8-0.1c2.4,0.2,6.7,1,8.5-1.4c2.2,0.2,4.7-0.1,7.2-0.6&#10;&#9;&#9;c0.5-0.3-0.1-1.2,0.6-1.4c2.5-0.4,5.7-1,8-2.6c0.4-0.2-0.2-0.9,0.1-1.2c2.8-1.7,5.6-2.5,7-4.8c2.6-1,4.3-3.4,7-4.8&#10;&#9;&#9;c0.2-0.8-0.8-0.8-0.6-1.5c1.9-0.9,3-2.6,4.9-3c-0.4-0.9-1.1-1.3-1.4-2.6c1.4-0.8,2.9-1.8,4-2.3c0.1-0.6-1.1-1.9-0.9-2.8&#10;&#9;&#9;c0.7-0.3,1.9-0.2,2.4-0.9c0.3-0.8-0.9-1.4-0.7-1.9c1.3-0.7,3-1.1,5-1.9c0.1-0.5,0.4-0.8,0.3-1.3c-2.6-1-4.8-2.8-7.2-4.1&#10;&#9;&#9;c-0.3-0.8,0.7-1,0.3-1.9c-1.6-0.9-3.5-0.8-4.9-2.1c-0.1-1,0.8-1.5,0.4-2.7c-1.7-1-4-0.5-5.5-2.1c0.2-0.5,1.4-0.5,1.6-1&#10;&#9;&#9;c-2.9-2.1-6.9-1.4-9.9-3.4c-0.1-0.8,0.2-1.3-0.3-2.3c-3.2,0.2-5.8-1-8.7-1.4c-0.1-0.5,0.5-0.6,0.1-1.2c-3,0-5.9,0.1-8.7-0.3&#10;&#9;&#9;c-0.1-0.4,0.5-0.5,0.2-1.1c-4.6-0.9-9.5-1-15,0.1C270.2,61.1,267.6,64.4,265,64.9z" style="clip-path: url('#SVGID_2_'); fill-rule: evenodd; clip-rule: evenodd; fill: rgb(204, 204, 204); opacity: 1;" transform="matrix(0.7071073055267334, -0.7071070671081543, 0.7071070671081543, 0.7071073055267334, 133.52803039550776, 263.05419921875)"/><path class="st5" d="M349,206.5c-0.1,1.3-1.5,2.9-1.9,4.7c-0.1,0.5,0,1-0.1,1.5c-0.8,2.9-2.7,5.1-3.5,7.5c-0.2,0-0.3-0.1-0.4-0.2&#10;&#9;&#9;c0.5-6.1,2.2-12.6-0.2-17.1c-4.3-8.1-13.3-14.2-18.7-20.6c0.2-2.2,0.1-4.7,0.3-6.4c3.4,3.1,9.6,3.9,13,7.5c0.9,1,1.8,2.4,2.8,3.4&#10;&#9;&#9;c2.8,3,5.3,6.3,6.6,10.8c0.4,1.3,0.7,3,1.1,4.5C348.3,203.6,349.1,205.4,349,206.5 M338,227.7c-0.7-4.8,1.5-7.5,0.8-12.2&#10;&#9;&#9;c-0.7-4.4-3.5-9.8-6.1-13.7c-0.9-1.3-2.2-2.5-3.1-4c-1-1.5-1.7-3.3-2.7-4.4c-1.2-1.4-3-2-3.3-3.5c-0.4-2.2,1.2-4,0.5-5.7&#10;&#9;&#9;c0.1-0.2,0.3-0.4,0.6-0.3c5.2,4.9,10.8,9.9,15.3,15.8c0.9,1.2,2,2.3,2.6,3.4c2.3,4.4,0.5,10.7-0.1,16.9&#10;&#9;&#9;C340.3,221.9,339.9,225.6,338,227.7z M337.3,227.3c-0.3,0.9-1.5,1.6-2.2,2.6c-1.2,1.8-2.2,3.8-3.2,5.5c-0.2,0-0.2-0.1-0.2-0.2&#10;&#9;&#9;c-0.2,0-0.2-0.1-0.2-0.2c0.1-7.3,2.4-11.9,0.7-17.6c-1.1-3.6-3.2-7.8-4.8-10.3c-0.7-1.1-1.9-2-2.8-3.3c-1-1.5-2.7-4-2.9-5.1&#10;&#9;&#9;c-0.3-2.6,1.4-5.1,1.5-7.4c3,1.3,4.6,5.1,6.6,7.9c0.6,0.9,1.6,1.6,2.3,2.5c2.2,3.2,5.7,10.1,6.2,14.8c0.3,2.6-0.4,4.3-0.9,7.1&#10;&#9;&#9;C337.3,224.8,337.6,226.3,337.3,227.3z M329.4,235.5c-1.8,1.8-3.1,4-4.9,5.8c-0.2,0-0.3-0.1-0.4-0.2c1-3.9,2.9-6.3,2.8-11.6&#10;&#9;&#9;c-0.1-4.6-1.1-8.9-3.2-12.6c-1.1-1.9-4-5.6-4-8.5c0-2.7,1.9-5.1,1.9-7.8c2.4,3.2,5.4,6.3,7.4,10.3c1.6,3.2,3.5,6.5,3.5,10.8&#10;&#9;&#9;c0,4.4-1.4,8.4-1.4,13.5C331.1,236.1,329.8,234.9,329.4,235.5z M319.2,244c0-5.4,1.7-10.4,1.4-15.9c-0.2-3.8-2.6-7-3.3-10.1&#10;&#9;&#9;c0.6-2.7,1.2-5.3,1.9-7.8c3.5,6.1,8.8,13.3,7,23.7c-0.4,2.3-1.7,3.7-2.3,6.1C322,241,320.5,242.4,319.2,244z M318.3,244.7&#10;&#9;&#9;c-2-1.6-3.6-0.1-4.7,1.4c-0.2-0.1-0.4-0.3-0.2-0.4c0.9-3.7,2.2-7.2,1.3-10.8c-0.2-0.9-1.1-1.6-1.2-2.4c-0.1-1.5,0.9-3.5,1.4-5.2&#10;&#9;&#9;c0.7-2.8,1.3-4.6,2-7.4c0.9,2.5,2.7,5.2,3.1,8.2C320.7,233.6,318.7,239,318.3,244.7z M312.5,247.1c-0.7,0-0.5-0.8-1-1&#10;&#9;&#9;c-1.8,1.3-3.7,2.5-5.5,3.7c-0.5-0.2,0.5-0.7-0.5-0.6c0.2-0.4,0.7-0.4,0.9-0.7c2.2-5,4.5-9.8,6.8-14.7&#10;&#9;&#9;C315.9,237.1,313.1,243.9,312.5,247.1z M304.5,248.9c-0.6-0.6,0.3-2.6-0.2-3.7c-0.5-0.4-0.7-0.4-1.5-0.3c1-3.1,2.9-5.3,5.5-6.7&#10;&#9;&#9;C307.5,242.3,305.8,245.4,304.5,248.9z M309.4,238.3c0-1.3,0.9-3.1,1.5-4.3C311,235.3,310,237.2,309.4,238.3z M302.4,242.2&#10;&#9;&#9;c-1.1-0.1-1.3,0.1-2.2-0.1c2.7-7.3,6.1-13.9,13-16.6c-1.1,4-2.8,7.4-4.1,11.2c-2.5,1.7-4.8,3.5-6.2,6.5&#10;&#9;&#9;C302.3,243.3,302.8,242.3,302.4,242.2z M299.8,241c-0.7-0.7-0.5-2.4-0.5-3.7c-0.8-0.6-1.3,0.4-2.4,0.1c2.3-7.4,5.3-13.2,10.4-17.6&#10;&#9;&#9;c2.4-2.1,4-4.7,7.8-5.1c-0.5,2.6-0.9,6.9-2,9.4c-3.5,3-7.6,5.4-10,9.7c-1.2,2.1-1.4,4.6-2.9,6.8C300.1,240.8,299.8,240.7,299.8,241&#10;&#9;&#9;z M294.6,231c2-3.4,2.2-7.5,3.9-10.8c2-4.1,5.2-7.5,8.2-10.6c3-3.1,6.9-6.2,11.5-6.9c-0.6,3.1-1.5,7.4-2.6,10.5&#10;&#9;&#9;c-9.8,3.9-15.2,12.7-19.3,22.8C295,235,296,231.9,294.6,231z M293.9,230.8c-1.4-1.6-2-5-1.6-7.6c-0.1-0.7-1-0.6-1-1.3&#10;&#9;&#9;c1.9-5.8,4.7-11.6,7.6-16.5c2.2-3.6,4.3-6,7.6-9c3.9-3.5,7.4-7,13.8-7.5c0.2,4.4-0.7,8.6-1.4,12.4c-6.9,2.4-11.8,6.3-16.2,11.8&#10;&#9;&#9;c-1.7,2.1-3.7,4.7-4.8,7.1C296.4,223.6,296,227.4,293.9,230.8z M290.5,214.8c0.1-0.6-1-0.2-1.1-0.6c-0.9-3.4,1.6-6.5,0.8-9.1&#10;&#9;&#9;c4.5-6.7,9.6-13.2,15.8-18.4c4.2-3.6,8.4-7,15.1-7.8c0,3.2-0.1,6.5-0.8,9.1c-4.3,0.9-8.3,2.5-11.6,5.4c-5.5,4.8-11,11.4-14.2,18.3&#10;&#9;&#9;c-1.2,2.6-2.2,5.6-3.2,8.1C290.2,218.9,290.4,216.8,290.5,214.8z M290.1,203.8c-0.5-1.5,1.2-3.8,1.7-5.4c-1.6-2.9,1.2-6.4,2.5-8.5&#10;&#9;&#9;c0.1-0.7-0.6-0.6-0.9-1c1-2.5,2.6-4.4,4.2-6.2c0.5-0.5-0.6-0.6-0.3-1.5c1.3-3.2,2.5-4.8,5.8-6.5c3-1.5,6.3-2.6,10.1-3.5&#10;&#9;&#9;c3.3-0.8,6.4-1,9.3-1.9c-0.6,2.9-0.9,5-1,8.4C306.4,181.3,298.7,193,290.1,203.8z M312.5,232.1c0.9-6.6,4-13.8,5.3-21.2&#10;&#9;&#9;C316.8,218,315.5,226.5,312.5,232.1z M327,154.3c0.9,1.1-0.5,2.2-0.7,3.1c-0.9,3-1,6.6-1.6,10c-0.9,5.1-1.5,9.9-2.8,15.3&#10;&#9;&#9;c-0.6-0.5,0-1,0.1-1.6c0.4-3.9,0-10.2,2.2-13.5C324.5,163.3,325.3,157.8,327,154.3z M328.2,154.6c0.4,1.9-1.5,3.4-1.2,5.3&#10;&#9;&#9;C326.5,157.8,327.8,156.2,328.2,154.6z M324.1,181c0,0.5,0,1-0.1,1.5C323.4,182.4,323.4,180.9,324.1,181z M326.2,162.2&#10;&#9;&#9;c0.4,1.4-0.5,3.1-0.6,4.6C325.1,165.2,326.1,163.7,326.2,162.2z M318.7,208c-0.2,0-0.1-0.2-0.2-0.4c2.7-7.8,1.7-19.7,4.5-26.9&#10;&#9;&#9;C323.3,189.9,321.7,200.1,318.7,208z M318.2,210.7c-0.4-0.6,0.2-1.9,0.3-2.5C319,208.9,318.1,209.8,318.2,210.7z M323.9,185.4&#10;&#9;&#9;c-0.7-0.2-0.2-1.5-0.3-2.2C324.5,183.6,323.8,184.3,323.9,185.4z M327.9,172.4c2,1.4,4.6,2.6,6.8,3.7c0.3,0.7,1,1,1.4,1.7&#10;&#9;&#9;c3.8,1.7,7.1,5.2,9.4,8.9c1.9,3,4.5,7.2,4.1,12.3c-0.1,1.4-0.9,2.8-0.6,4.4c-1-6.8-4-12.1-7.9-16.7c-2.1-2.5-3.9-5-6.8-6.6&#10;&#9;&#9;c-3.4-1.8-7.5-2.3-9.6-5.8c0.2-1.3,0.4-2.6,0.7-3.6C326.3,170.3,327.1,171.8,327.9,172.4z M349.7,201c0.1-0.5,0.6-0.8,0.6-1.2&#10;&#9;&#9;c0.1-0.6,0-1.7-0.1-2.4c-0.5-4.3-2-7.8-3.7-10.5c-0.5-0.7-0.9-1.6-1.4-2.3c-0.8-1.1-1.9-1.7-2.6-2.5c-0.3-0.4-0.3-1-0.7-1.3&#10;&#9;&#9;c-1.8-1.9-4.5-2.7-5.6-4.7c-2.1-0.6-3.5-1.8-5.5-3c-1.4-0.9-4.4-2.2-4.7-3.9c-0.2-1.2,0.6-2.7,0.7-3.8c0.6-3.6,1.5-8.1,2.8-11.4&#10;&#9;&#9;c-0.7-0.6-2.3-0.7-3.3-0.5c-2.1,3.9-2.2,10.1-3.5,14.3c-0.6,2-5.3,1.8-7.5,2.2c-0.5,0.1-0.9,0.5-1.5,0.7c-3.7,0.9-6,1.2-9.3,2.8&#10;&#9;&#9;c-4.6,2.3-6.8,4-8.7,8.7c-0.2,0.7,0.6,0.9,0.1,1.3c-1.1,2.3-4.5,4.2-3.1,7.4c-1.1,2.1-3.6,5.8-2.1,8.3c-1.1,2-1.8,4.3-2.4,6.9&#10;&#9;&#9;c0.1,0.6,1.1,0.4,1,1.2c-0.7,2.5-1.4,5.6-0.8,8.4c0,0.5,0.9,0.2,1.1,0.6c0.4,3.3,0.1,6.2,1.6,8.3c-0.1,2.8,1.4,5.3,1.6,8.3&#10;&#9;&#9;c0.7,0.5,1.1-0.4,1.7,0.1c0,2.1,1.2,3.8,0.8,5.7c1,0,1.7-0.5,2.9-0.2c0.2,1.6,0.5,3.4,0.5,4.6c0.5,0.3,2.2-0.2,2.9,0.3&#10;&#9;&#9;c-0.1,0.8-0.6,1.9-0.1,2.6c0.7,0.6,1.6-0.3,2,0.1c0.1,1.5-0.2,3.1-0.3,5.3c0.4,0.2,0.6,0.6,1.1,0.8c2-1.9,4.4-3.3,6.7-5&#10;&#9;&#9;c0.8,0.1,0.6,1.1,1.6,1c1.4-1.1,2.2-2.9,3.9-3.7c1,0.3,1.1,1.3,2.3,1.4c1.6-1.1,2.1-3.5,4.1-4.2c0.4,0.4-0.1,1.5,0.3,1.8&#10;&#9;&#9;c3-1.8,4.1-5.8,7-7.7c0.8,0.2,1.2,0.7,2.2,0.7c1.1-3,3.2-4.9,4.8-7.5c0.4,0.1,0.4,0.7,1.1,0.6c1.1-2.7,2.3-5.5,3.7-7.9&#10;&#9;&#9;c0.4,0.1,0.3,0.7,0.9,0.6c2.6-3.9,4.7-8.3,5.8-13.8C351.1,207.3,349.1,203.6,349.7,201z" style="clip-path: url('#SVGID_2_'); fill-rule: evenodd; clip-rule: evenodd; fill: rgb(204, 204, 204); opacity: 1;" transform="matrix(0.48277884721755976, 0.8757430315017699, -0.8757430315017699, 0.48277884721755976, 278.9733581542968, -108.87939453125)"/></g></svg>