<?xml version="1.0" encoding="utf-8"?>
<svg viewBox="215.2999267578125 242.0999755859375 187.800048828125 178.70001220703125" width="187.800048828125" height="178.70001220703125" xmlns="http://www.w3.org/2000/svg"><g transform="matrix(1, 0, 0, 1, 0, 0)">
		<g>
			<path class="st4" d="M320.1,392.1c-3.9,0.2-10.9,1-19,1.7c-7.7,0.6-16.2,1.1-23.7,0.8c-12.7-0.5-22.4-3.5-19.9-12.2&#10;&#9;&#9;&#9;&#9;c-6.8,0.6-5.9,6.6-5.9,6.6c0.5,7.4,9.6,9.9,9.6,9.9c-14.3,1.3-9.5-14.5-19.2-13.6c-6.1,0.6-5.7-5.9-5.7-5.9&#10;&#9;&#9;&#9;&#9;c-1.8,2.6-1.4,6.4-1.4,6.4c0.4,6.2,5.9,16.3,17.2,18.8c5.3,1.2,13.9-0.6,25.4-3.3c6.9-1.6,14.9-3.6,23.7-5.6&#10;&#9;&#9;&#9;&#9;C307.1,394.5,313.4,393.2,320.1,392.1z" style="fill: #E3AAAA; opacity: 1;"/>
			<path class="st4" d="M387,380.2c-1.3-3.1-6.5-5.1-6.5-5.1c5.9,2.4,9-2.4,9-2.4c-9.4,4-6.2-5.3-14.6-8.7&#10;&#9;&#9;&#9;&#9;c-8.3-3.4-4.7-16.6-4.7-16.6c0,0,0,0,0,0.1c3.5-13.9,1.4-28.9-7.8-40.5c-4.4-5.6-10.3-10-16.8-12.8c3.5,0.4,6.8,0.2,9.8-0.4&#10;&#9;&#9;&#9;&#9;c0,0,0,0,0,0s0,0,0,0c0,0,0.1,0,0.1,0c1.1-0.2,10.2-1.8,12.3,4.2c2.2,6.4,9.4,4.4,6,11.4c0,0,3.8-2.2,2.2-6.7c0,0,1.3,4,3.6,5.1&#10;&#9;&#9;&#9;&#9;c2.3,1.1,4,9.8,0.6,12.3c0,0,5.1-3.3,1.6-13.5c-3.2-9.3-10.9-16.2-22.8-13.7c9.4-3.2,16.3-11.1,20.2-20.8c2.5-6.3,3-11,2.5-14.6&#10;&#9;&#9;&#9;&#9;c1.4,0.2,2.1,1.9,3.6,2.9c3.7,2.6,8.9-0.6,8-5.2c-0.5-2.8-3.2-4.7-6-4.1c-0.4,0.1-0.8,0.2-1.1,0.3c0.3-1,0.3-2,0.1-3.1&#10;&#9;&#9;&#9;&#9;c-0.7-3.7-4.3-6.2-8-5.5c-3.7,0.7-6.2,4.3-5.5,8c0.2,1.1,0.6,2,1.2,2.8c-0.4,0-0.8,0-1.2,0.1c-2.8,0.5-4.7,3.2-4.1,6&#10;&#9;&#9;&#9;&#9;c0.8,4.6,6.8,5.7,9.3,2c1.1-1.6,1.1-3.5,2.4-4.1c-0.2,5.4-2.5,11.1-4.9,12.1c-4,1.7-6.5,8.3-6.5,8.3c3-7.5-3.1-11.5-3.1-11.5&#10;&#9;&#9;&#9;&#9;c5.1,12-6.8,8-11.1,18.6c-2.6,6.4-9.7,7.3-15,6.9c-0.3,0-0.6,0-0.9-0.1c-1.7-0.4-3.5-0.7-5.3-0.9c0,0,0,0,0,0c0,0,0,0,0,0&#10;&#9;&#9;&#9;&#9;c-1.2-0.1-2.4-0.2-3.6-0.2c-2.4,0-4.7,0.2-7.1,0.7c-9.5,1.9-17.1,7.7-22,15.5c-2.6,4.1-4.4,8.7-5.3,13.6c0,0.1,0,0.2,0,0.2&#10;&#9;&#9;&#9;&#9;c-0.8,2.3-2.7,6.2-6.5,5.9c-5.3-0.5-6.1,5.3-10,0.6c0,0,0.3,3.4,4,3.7c0,0-3.2-0.4-4.8,0.9c-0.3,0.2-0.7,0.3-1.2,0.4&#10;&#9;&#9;&#9;&#9;c-2.4,0.3-7.2-1.2-7.7-3.9c0,0,0.6,4.2,7.7,5.3c0.4,0.1,0.9,0.1,1.3,0.2c7.9,0.7,15.5-2.8,17.2-12.7c0-0.1,0.1-0.3,0.1-0.5&#10;&#9;&#9;&#9;&#9;c0.8-4.3,2.6-8.4,5-12c3.5-5.2,8.5-9.4,14.2-12.1c4.7-2.2,9.8-3.2,14.8-3.1c3.3,0.1,6.6,0.6,9.7,1.4c1.6,0.4,3.2,1,4.8,1.6&#10;&#9;&#9;&#9;&#9;c20,8.1,31,30.8,24.9,51.4c-4.4,15-15.7,27.1-29.7,33.4c-3.1,1.4-6.4,2.5-9.7,3.3c-1.3,0.3-2.7,0.6-4,0.8&#10;&#9;&#9;&#9;&#9;c-6.4,1-12.9,0.8-19.3-0.5c3.2-4.2,10.2-14.9,7.3-23.7c0,0-1.1,0.7-1.2,1.9c0.1-1.4,0.3-7.8-2.8-11.2c0,0-1,1-1.3,2.5&#10;&#9;&#9;&#9;&#9;c0-1.7-0.4-5.5-4.2-9.4c-0.2,0.6-0.8,2.2-1,3.7c-0.1-1.7-0.7-4.8-2.6-7.6c-0.7-1-1.6-2.1-2.7-3c-0.2,0.3-1,1.9-0.5,3.3&#10;&#9;&#9;&#9;&#9;c-1.4-2.3-6.5-9.6-3.2-13.5c-0.9,0.7-8.3,4.6-5.7,16.4c-1.4-0.1-2.8-2.2-4.6-2.2c0,0,0.3,6.3,8,13.2c0,0-1.8-1.5-4.4-0.7&#10;&#9;&#9;&#9;&#9;c3,6.4,9.3,7.6,11,10.7c-0.5-0.3-2.3-1.6-4.2-0.8c0.5,2.8,3,4.4,5.4,6.5c0.3,0.3,0.6,0.5,0.9,0.9c3.1,3.2,5.7,8.5,4.9,12.9&#10;&#9;&#9;&#9;&#9;c-1.7-0.4-3.3-0.8-4.9-1.3c-8.6-2.6-16.8-7-23.7-12.7c-2.1-1.7-4-3.5-5.8-5.4c-14.4-14.9-20.4-36.5-16.9-57&#10;&#9;&#9;&#9;&#9;c1.5,0.9,2.1,3.3,3.7,5.1c4.5,4.8,12.7,1.9,13-4.8c0.1-4.1-3.1-7.6-7.2-7.8c-0.6,0-1.2,0-1.7,0.1c0.7-1.3,1.1-2.8,1.2-4.3&#10;&#9;&#9;&#9;&#9;c0.2-5.5-4.1-10.1-9.6-10.3c-5.5-0.2-10.1,4.1-10.3,9.6c-0.1,1.6,0.3,3.1,0.9,4.4c-0.5-0.1-1.1-0.2-1.7-0.3&#10;&#9;&#9;&#9;&#9;c-4.1-0.1-7.6,3.1-7.8,7.2c-0.2,6.8,7.8,10.2,12.6,5.8c2.1-1.9,2.6-4.6,4.7-5c-2.3,13.6-0.3,27.5,5.2,40l-0.1-0.1&#10;&#9;&#9;&#9;&#9;c-4.9-6.1-11-11.5-16.9-15.8c-2.7-1.9-6-3.6-9.3-5c0.9-1.1,2.7-0.8,4.4-1.6c4.1-2,3.9-8-0.5-9.5c-2.7-0.9-5.6,0.5-6.6,3.2&#10;&#9;&#9;&#9;&#9;c-0.1,0.4-0.2,0.8-0.3,1.1c-0.7-0.7-1.6-1.3-2.6-1.7c-3.6-1.3-7.5,0.6-8.7,4.2c-1.3,3.6,0.6,7.5,4.2,8.7c1,0.4,2.1,0.5,3.1,0.3&#10;&#9;&#9;&#9;&#9;c-0.2,0.3-0.4,0.7-0.5,1.1c-0.9,2.7,0.5,5.6,3.2,6.6c4.4,1.6,8.3-3,6.4-7.1c-0.8-1.8-2.5-2.7-2.3-4.2c9,3.7,18.2,10.8,24.6,18.5&#10;&#9;&#9;&#9;&#9;c-2.1-1.1-4.4-1.7-6.9-1.8c-6.7-0.1-12.2,5.3-12.3,11.9c-0.1,5.4,4.2,9.8,9.6,9.8l-0.2-0.2c-4.6-0.1-8.1-3.7-8.1-8.3&#10;&#9;&#9;&#9;&#9;c0.1-5.8,4.8-10.4,10.6-10.3c7.2,0.1,13,6,12.9,13.3c-0.1,9-7.6,16.3-16.6,16.1c-10-0.1-18.2-7.4-19.9-16.9&#10;&#9;&#9;&#9;&#9;c0.2,0,0.3,0.1,0.5,0.1c2.8,0.5,5.4-1.4,5.9-4.1c0.5-2.8-1.4-5.4-4.1-5.9c-2.8-0.5-5.4,1.4-5.9,4.1c0,0.1,0,0.2,0,0.3l0,0&#10;&#9;&#9;&#9;&#9;c0,0,0,0,0,0c0,0.4,0,0.8,0,1.2c0.4,12.5,10.6,22.6,23.3,22.8c10.3,0.1,18.8-8,19.2-18.3c2.9,7.4,5.4,16.8,2.4,22.6&#10;&#9;&#9;&#9;&#9;c-1.4-1.3-4.1-1.1-5.1,0.9c-1,2-0.2,4.4,1.7,5.4c5.3,2.4,7.8-5.7,8.1-9.1c0.4-4.2-0.9-10.5-4.6-18.1c2.2,2.9,4.6,5.6,7.3,8.1&#10;&#9;&#9;&#9;&#9;c1.3,1.2,2.6,2.3,3.9,3.4c7,5.6,15.1,9.9,23.7,12.4c5.4,1.6,11.1,2.4,16.7,2.4c3.6,0,7.1-0.4,10.6-1.1c-4.9,2.1-8.1,5.4-9.9,9.5&#10;&#9;&#9;&#9;&#9;c0,0,0,0,0,0c0,0,0,0,0,0c-0.1,0.2-0.2,0.5-0.3,0.7c-0.6,1.3-2.2,4.1-4.7,3.5c-3.3-0.7-4.3,2.9-6.4-0.3c0,0,0,2.2,2.3,2.7&#10;&#9;&#9;&#9;&#9;c0,0-2-0.5-3.1,0.2c-1,0.6-4.3-0.5-5.2-2.2c-0.1-0.2-0.2-0.5-0.2-0.7c0,0,0,0.3,0.2,0.8c0.4,1,1.6,2.6,5.2,3.4&#10;&#9;&#9;&#9;&#9;c4.4,0.9,9-0.3,11.2-5c-0.7,3-0.8,6.2-0.3,9.4c1.6,10.7,7.7,11.3,7.7,11.3c-4.3-0.6-6.7-9.1-5.2-11.2c1.5-2.1,0.8-6.2,0.8-6.2&#10;&#9;&#9;&#9;&#9;c0.7,4.8,5.1,5,5.1,5c-6.3-4.6,1.1-6.2,0.1-12.9c-0.5-3.5,2-6,4.5-7.5c1.3-0.8,2.7-1.4,3.6-1.7c0.3-0.1,0.6-0.2,0.9-0.3&#10;&#9;&#9;&#9;&#9;c0.1,0,0.1,0,0.1,0c0,0,0,0,0,0c1.8-0.6,3.5-1.3,5.2-2.1c10.8-5,19.9-13.4,25.6-24.1c1.1-2.1,2.1-4.3,3-6.5&#10;&#9;&#9;&#9;&#9;c-1,4.6-0.9,8.8,0.1,12.6c0,0,0,0,0-0.1c0,0,2,6.3-1.9,8.1c-3.9,1.8-2.2,6.2-6.8,4.5c0,0,1.6,2.3,4.4,1c0,0-2.4,1-3,2.6&#10;&#9;&#9;&#9;&#9;c-0.6,1.5-5.9,3.1-7.7,1.1c0,0,2.4,3,8.7,0.2c5.5-2.5,9.3-7.5,7.6-14.4c2.8,6.5,8.6,11.3,15.6,14.1c13.2,5.3,17.9-1.2,17.9-1.2&#10;&#9;&#9;&#9;&#9;C399.6,386.2,388.4,383.3,387,380.2z" style="fill: rgb(204, 204, 204); opacity: 1;"/>
			<path class="st4" d="M277.5,288.9l0.3,0.3c5.3,4.6,10.6,10.5,11.2,17.5c-1.3,3.5-2.8,7.2-4.7,10.9c-0.6,0.6-1.2,1.1-1.8,1.5&#10;&#9;&#9;&#9;&#9;c0.4-0.1,0.9-0.4,1.3-0.6l-0.2,0.4c0.2-0.2,0.4-0.4,0.6-0.6c5.2-3.6,11.3-15.5,16.9-28.1c3.6-8,7-16.2,9.8-22.7&#10;&#9;&#9;&#9;&#9;c4.7-10.8,12-15.7,19.2-16.6c3.3-0.4,6.7,0,9.7,1.1c10.4,3.7,17.7,14.9,12.2,26.2c-2.5,5.1-7.1,8.6-12.2,9.2&#10;&#9;&#9;&#9;&#9;c-2.5,0.3-5.1-0.2-7.7-1.4c-0.7-0.4-1.4-0.8-2-1.2c-2.3-1.6-4-3.6-4.8-6.3c-1.3-4.6,0-10.8,4.7-12.8l0.1,0c3.3-1.4,7.2,0,9.7,2.2&#10;&#9;&#9;&#9;&#9;c0.4,0.4,0.8,0.8,1.1,1.2c2.4,3.1,0.5,6.5-1.1,8.5c-0.9,1.1-1.8,1.9-1.8,1.9c0.6-0.4,1.2-0.8,1.8-1.2c2.8-2.4,3.9-6.2,2-9.6&#10;&#9;&#9;&#9;&#9;c-0.5-0.9-1.2-1.7-2-2.4c-0.9-0.7-1.9-1.3-2.9-1.8c-1.6-0.6-3.4-0.9-5.1-0.7c-0.6,0.1-1.2,0.2-1.7,0.4c-4.5,1.5-6.8,6.3-7.1,9.6&#10;&#9;&#9;&#9;&#9;c-0.5,5.8,2.6,10.8,7.1,13.5c2.1,1.3,4.6,2.2,7.2,2.3c0.9,0.1,1.7,0.1,2.6,0c7.6-0.5,12.8-5.6,15.4-12.9&#10;&#9;&#9;&#9;&#9;c3.5-9.9-0.9-18.9-8.9-24.4c-2.2-1.3-4.4-2.3-6.5-3c-3.4-1.1-6.7-1.5-9.7-1.2c-11.3,1-20.2,10.7-24.9,23&#10;&#9;&#9;&#9;&#9;c-1.4,3.6-2.8,7.4-4.2,11.4c-0.6,1.6-1.2,3.2-1.7,4.8c0.6-10.3-3.7-19.8-14.6-26.7c-3.5-2.1-5.4,0.6-3.1,3.1&#10;&#9;&#9;&#9;&#9;c11.3,11.7,13,25.6,7.9,41.4c-0.8-6.8-6.3-12.6-12.1-17.5c-2.9-2.5-5.9-4.8-8.5-6.9c-6.4-5.2-10.2-9.1-12.4-12.4&#10;&#9;&#9;&#9;&#9;c-2.3-3.5-3.2-6.8-1.5-10.8c0.4-0.9,0.9-1.7,1.5-2.4c2.4-2.9,5.9-4,9.3-1.7c1.8,1.2,3.8,3.8,2.9,8c2-5.2-1.5-8.9-5.3-9.8&#10;&#9;&#9;&#9;&#9;c-4.5-1-8.3,2.6-9.6,6.5c-1.5,4.6,0.4,9.8,5.8,15.8C265.1,279.6,271.6,283.8,277.5,288.9z" style="fill: rgb(204, 204, 204); opacity: 1;"/>
			<path class="st4" d="M301.2,335.2c0.1,0,0.2,0.1,0.3,0.1c4.5,1.4,5.9-0.9,5.9-0.9c-1.1,1.6-4.9,0.9-5.4,0&#10;&#9;&#9;&#9;&#9;c-0.2-0.3-0.5-0.6-0.8-0.8c-0.7-0.4-1.5-0.7-1.5-0.7c0.6,0.2,1.1,0.2,1.5,0c1-0.3,1.4-1.1,1.4-1.1c-0.6,0.3-1.1,0.5-1.4,0.4&#10;&#9;&#9;&#9;&#9;c-1.4,0-1.4-2.2-3.7-2.9c-2.9-0.9-2-5.4-2-5.4C293.6,329.9,296.8,333.7,301.2,335.2z" style="fill: rgb(204, 204, 204); opacity: 1;"/>
			<path class="st4" d="M314.7,339.1c0.6,8.3,6.5,15.7,14,18.9c0.5,0.2,1,0.4,1.5,0.6c3.2,1.1,6.5,1.5,9.7,1.3&#10;&#9;&#9;&#9;&#9;c6.5-0.5,12.8-3.4,17.6-8c8-7.5,11.5-19.2,8.5-29.8c-3-10.8-11.5-19.7-21.8-23.8c-1.4-0.6-2.9-1-4.3-1.4&#10;&#9;&#9;&#9;&#9;c-3.2-0.8-6.5-1.3-9.7-1.2c-5.8,0-11.5,1.3-16.9,3.9c-0.8,0.4-0.7,0.5,0.1,0.1c5.2-2.5,11-3.6,16.8-3.4c3.3,0.1,6.6,0.7,9.7,1.6&#10;&#9;&#9;&#9;&#9;c2.4,0.7,4.6,1.7,6.8,2.9c9.7,5.3,17.5,15.1,18.8,26.3c1.3,11.3-4,22.8-13.7,28.9c-3.7,2.3-7.8,3.4-11.9,3.4&#10;&#9;&#9;&#9;&#9;c-3.3,0-6.7-0.6-9.7-1.9c-3.7-1.5-7.1-4-9.6-7.4c-3.4-4.5-5.3-10.1-4.3-15.8c1-5.8,4.7-11.2,10.1-13.9c0.2-0.1,0.3-0.2,0.4-0.2&#10;&#9;&#9;&#9;&#9;c0.8-0.2,2.1-0.5,3.4-0.5c2,0,4.1,0.6,5.1,2.6c1.2,2.5,3.4,2.9,4.7,3.8c1,0.7,1.5,1.6,0.7,3.9c0,0,2.5-1.9,1-5c0,0,1.3,2.8,3,3.4&#10;&#9;&#9;&#9;&#9;c1.8,0.6,3.8,6.7,1.5,8.8c0,0,3.4-2.8,0-9.9c-1.4-2.9-3.5-5.4-6.1-7c-2.7-1.6-6-2.2-9.7-1.4c-1.3,0.3-2.8,0.8-4.2,1.5&#10;&#9;&#9;&#9;&#9;c0,0,0,0,0.1,0C319,323.9,314.2,331,314.7,339.1z" style="fill: rgb(204, 204, 204); opacity: 1;"/>
			<path class="st4" d="M327.3,319.6c1.1-0.5,2.1-1.1,2.9-1.7c3.2-2.7,3.5-6.7,2-10.2c-0.6-1.5-1.3-2.4-2-3c-1.3-1.2-2.5-1-2.5-1&#10;&#9;&#9;&#9;&#9;c0.9-0.1,1.8,0.6,2.5,1.5c0.7,1,1.1,2.1,0.9,2.6c-0.4,1,0.3,2.7,0.3,2.7c-0.3-0.7-0.8-1.1-1.2-1.4c-0.7-0.3-1.4-0.2-1.4-0.2&#10;&#9;&#9;&#9;&#9;c0.9,0.4,1.3,0.7,1.4,1.1c0.1,0.3,0.1,0.7,0,1c-0.2,0.9-0.7,1.9-0.1,3.3c0,0.1,0,0.1,0.1,0.2c0.2,0.6,0.2,1.2,0,1.8&#10;&#9;&#9;&#9;&#9;C329.6,318.3,327.3,319.6,327.3,319.6z" style="fill: rgb(204, 204, 204); opacity: 1;"/>
		</g>
		<path class="st0" d="M307,359.4c-2.4-4.2-6.8-8-9.7-12.3c-5.3-8-5.1-12.4-5.1-12.4c-3.6,8.9,7.7,22.8,11.7,29c4.1,6.2,4,17,4,17&#10;&#9;&#9;&#9;C312,370.8,309.3,363.4,307,359.4z" style="fill: #E3AAAA; opacity: 1;"/>
	</g></svg>