<?xml version="1.0" encoding="utf-8"?>
<svg viewBox="87.60000610351562 120 85.20004272460938 67.10000610351562" width="85.20004272460938" height="67.10000610351562" xmlns="http://www.w3.org/2000/svg"><g transform="matrix(1, 0, 0, 1, 0, 0)">
		<path d="M153.2,173.3c0.3,0.4,1.5,0.6,3.6,0.6c0.8,0,2-0.1,3.5-0.3c1.5-0.2,2.5-0.3,3.2-0.3c-1.1,0.8-2.2,1.5-3.2,2.2&#10;&#9;&#9;&#9;c-1.6,1.2-2.5,2-2.5,2.6l0.1,0.1h0.3c2.4-1.9,5.5-3.6,9.1-5.2c0.7-0.3,1.9-0.7,3.6-1.4c0.4-0.1,0.8-0.2,1.2-0.3&#10;&#9;&#9;&#9;c0.4-0.1,0.7-0.3,0.7-0.6c-0.1-0.1-0.3-0.2-0.5-0.2c-0.7,0-3.1,0.4-6.9,1.3c-3.7,0.8-7,1.2-9.8,1.2c-0.1,0-0.3,0-0.6-0.1&#10;&#9;&#9;&#9;c-0.2,0-0.4,0-0.6,0C153.9,172.9,153.5,173,153.2,173.3z" style="fill: rgb(204, 204, 204); opacity: 1;"/>
		<path d="M164.2,147.2c0.1,0.5,0.5,0.9,1.2,1.3c0.7,0.4,1.3,0.6,1.8,0.6c1.5,0,2.2-0.5,2.2-1.6c0-0.8-0.4-1.2-1.3-1.2&#10;&#9;&#9;&#9;c-0.3,0-0.8,0.2-1.5,0.5c-0.7,0.3-1.2,0.5-1.7,0.5C164.7,147.3,164.5,147.3,164.2,147.2z" style="fill: rgb(204, 204, 204); opacity: 1;"/>
		<path d="M160.4,150.9c0.2,0.4,1,0.8,2.3,1.2c1.1,0.3,2,0.4,2.7,0.4c1.3,0,2.5-0.4,3.6-1.2v-0.2c-0.5-0.1-1.3-0.3-2.4-0.7&#10;&#9;&#9;&#9;c-1-0.4-1.8-0.6-2.4-0.6c-0.8,0-1.6,0.2-2.4,0.5C161.1,150.6,160.6,150.8,160.4,150.9z" style="fill: rgb(204, 204, 204); opacity: 1;"/>
		<path d="M164.4,154c0,0.6,0.4,1,1.2,1.4c0.7,0.4,1.4,0.6,2,0.6c1,0,1.5-0.3,1.5-0.8c0-0.8-1.5-1.3-4.6-1.3L164.4,154z" style="fill: rgb(204, 204, 204); opacity: 1;"/>
		<path d="M161.2,145.9c3.2,0,4.8-1.3,4.8-3.7c0-1.3-0.7-2-2-2c-0.7,0-1.4,0.3-2,0.9c-0.6,0.6-0.8,1.2-0.8,1.9c0,0.2,0,0.5,0.1,0.9&#10;&#9;&#9;&#9;c0.1,0.4,0.1,0.7,0.1,0.9c0,0.2,0,0.4-0.1,0.6C161.3,145.7,161.2,145.8,161.2,145.9z" style="fill: rgb(204, 204, 204); opacity: 1;"/>
		<path d="M152.2,151.8c0.3,0,0.7,0.1,1.1,0.1c0.5,0,1-0.1,1.5-0.2c0.8-0.2,1.7-0.6,2.5-1.1c0.3-0.2,0.5-0.3,0.6-0.3&#10;&#9;&#9;&#9;c0.5,0,0.7,0.1,0.6,0.1c0.5,0,1.1-0.3,1.8-1c0.7-0.7,1.4-1,2.1-1c0.4,0,0.7,0,0.8,0.1h0.2c-0.1-0.3-0.4-0.7-1-1&#10;&#9;&#9;&#9;c-0.6-0.3-1-0.5-1.4-0.5c0,0-0.6,0.2-1.8,0.7c0-0.2,0.2-0.8,0.6-1.7c0-0.7-0.3-1.1-0.9-1.1c-0.5,0-0.9,0.3-1.3,1.1&#10;&#9;&#9;&#9;c-0.1,0.4-0.3,0.8-0.5,1.3c-0.3,0.2-0.7,0.7-1.1,1.5l0.3,0.7c-0.5,0.5-1.3,0.9-2.5,1.4C153,151.4,152.3,151.7,152.2,151.8z" style="fill: rgb(204, 204, 204); opacity: 1;"/>
		<path d="M158.1,152.1c0,0.8,0.4,1.5,1.1,2.3c0.7,0.8,1.4,1.2,2.2,1.2c1.3,0,2-0.4,2-1.2c0-1.2-0.8-1.8-2.5-1.8&#10;&#9;&#9;&#9;c-1,0-1.8-0.4-2.3-1.2C158.3,151.4,158.1,151.7,158.1,152.1z" style="fill: rgb(204, 204, 204); opacity: 1;"/>
		<path d="M156.7,144.8l0.3,0.1c0.6,0,1.3-0.4,2.1-1.2c0.9-0.8,1.3-1.5,1.3-2.1c0-0.1,0-0.3-0.1-0.6c-0.1-0.2-0.1-0.4-0.1-0.6&#10;&#9;&#9;&#9;c0-0.9-0.3-1.3-0.8-1.3c-1.6,0-2.5,1.5-2.5,4.4C157,144.1,156.9,144.6,156.7,144.8z" style="fill: rgb(204, 204, 204); opacity: 1;"/>
		<path d="M155.4,159.6l0.1,0.1c2.3,0,3.5-1.1,3.5-3.2c0-1.1-0.4-1.7-1.3-1.7c-0.5,0-0.7,0.2-0.6,0.7l0.4,1.4c0,0.5-0.3,1-0.8,1.5&#10;&#9;&#9;&#9;C155.9,159.1,155.5,159.5,155.4,159.6z" style="fill: rgb(204, 204, 204); opacity: 1;"/>
		<path d="M93.3,160c0,0.3,0.2,0.4,0.5,0.4c0,0,0.4-0.2,1.4-0.7c1-0.5,1.9-0.7,2.7-0.7c1.2,0,3.4,1.1,6.7,3.4c4.8,3.3,8,5.3,9.5,6.2&#10;&#9;&#9;&#9;c4.1,2.2,7.6,3.3,10.5,3.2c0.3,0,0.8,0,1.3,0c0.6,0,1,0.1,1.3,0.1c0.6,0,1.3,0,2.3-0.1c1.1-0.1,1.9-0.1,2.2-0.1&#10;&#9;&#9;&#9;c2.1-0.1,4.1-0.3,6.2-0.6c2.7-0.5,4.2-0.7,4.4-0.7c0.4,0,1.1,0.2,2.2,0.5c1.1,0.3,2,0.5,2.6,0.5c2,0,3.7-0.4,5.2-1.2&#10;&#9;&#9;&#9;c1.2-0.6,2.6-1.7,4.3-3.3c1.2-1.2,1.8-2.1,1.8-2.7c-1.1-0.9-2-1.4-2.9-1.4c0,0-0.4,0.4-1.3,1.1c-0.9,0.7-1.8,1.1-2.6,1.1&#10;&#9;&#9;&#9;c-0.7,0-1.5-0.3-2.3-0.8c-0.8-0.6-1.3-0.8-1.5-0.8c-0.8,0-1.9,0.9-3.3,2.6c-0.8,1-1.6,1.9-2.3,2.9c-0.1,0.1-0.4,0.2-1.1,0.3&#10;&#9;&#9;&#9;l-0.2-0.1c1.5-2.2,2.3-4.4,2.3-6.8c0-0.4-0.1-0.8-0.3-1.2c-0.3,0.3-0.7,1.3-1,3.1c-0.3,1.9-0.7,3.3-1.3,4.1&#10;&#9;&#9;&#9;c-0.8,1.3-2.2,1.9-4,1.8h-0.4c2.3-1.7,3.4-4.1,3.4-7.2c0-2.8-0.8-5.1-2.4-6.8c-0.7-0.7-1.1-1.1-1.3-1.1c-0.7,0-1.4,0.6-2.2,1.8&#10;&#9;&#9;&#9;c-0.8,1.2-1.3,2.2-1.4,3c0.7,1.3,1,2.5,1,3.6c0,0.4-0.2,1.1-0.6,1.9c-0.4,0.9-0.6,1.4-0.6,1.6c0,0.5,0.7,1.7,2.2,3.4&#10;&#9;&#9;&#9;c-1.9,0.4-3.9,0.6-5.9,0.6l-0.4-0.1c2-1.9,3-4.2,3-6.9c0-2.6-0.8-4.9-2.4-6.9c-0.3,0-0.9,0.5-1.9,1.3c-1,0.8-1.5,1.4-1.5,1.8&#10;&#9;&#9;&#9;c0.5,1.3,0.7,2.4,0.7,3.4c0,1.3-0.3,2.6-0.9,3.9c-0.3,0.6-0.6,1.2-0.9,1.8l0.9,1.6l-0.1,0.1c-1.4,0-3-0.3-5.1-0.9&#10;&#9;&#9;&#9;c1.1-0.8,2-1.9,2.7-3.4c0.7-1.5,1.1-2.8,1.1-4.1c0-2.1-0.4-3.8-1.3-5.2c-0.1,0.1-0.4,0.4-0.8,0.6c-4.1,2.6-6.1,5.3-6.1,8.1&#10;&#9;&#9;&#9;c0,0.1,0.1,0.9,0.3,2.3c-1.2-0.5-2-0.9-2.4-1.1c-0.8-0.5-1.5-1-2.1-1.6c1.4-0.8,2.1-2.4,2.1-4.8c0-0.9-0.3-2.2-0.8-3.6&#10;&#9;&#9;&#9;c-0.5-1.5-1.1-2.6-1.6-3.4c-1.6,2-2.4,4.5-2.4,7.6c0,0.3,0.2,1.2,0.5,2.8c-0.2-0.1-1.7-1.1-4.5-2.8c0.4-1,0.6-2,0.6-2.8&#10;&#9;&#9;&#9;c0-1-0.2-2.1-0.7-3.4c-0.6-1.5-1.2-2.4-2-2.6c-0.5,2.6-0.7,3.8-0.7,3.7c0,1,0.5,2.3,1.5,4.1c-1.5-1-2.6-1.6-3.1-1.8&#10;&#9;&#9;&#9;c-0.8-0.3-2-0.5-3.4-0.5c-0.6,0-1.5,0.2-2.5,0.7C93.8,159.1,93.3,159.5,93.3,160z" style="fill: rgb(204, 204, 204); opacity: 1;"/>
		<path d="M146.4,173.8c0,0.8,0.4,2.2,1.3,4c0.9,1.8,1.6,2.9,2.3,3.4c1.5,1,3,1.7,4.6,2.2c1.8,0.6,2.6,0.8,2.6,0.8&#10;&#9;&#9;&#9;c0.2,0,0.3-0.1,0.3-0.4c0-1.7-0.9-3.8-2.8-6.4c-1.9-2.8-3.6-4.1-5.2-4c-0.6,0-1.5,0-2.7-0.1C146.5,173.2,146.4,173.4,146.4,173.8z&#10;&#9;&#9;&#9;" style="fill: rgb(204, 204, 204); opacity: 1;"/>
		<path d="M152,141.7h0.8c1.1,0,2.1-0.4,2.9-1.2c0.9-0.8,1.3-1.7,1.3-2.8c0-0.8-0.5-1.3-1.5-1.3c-1.6,0-2.5,1.2-2.7,3.6&#10;&#9;&#9;&#9;c0,0.3-0.1,0.6-0.4,0.9C152.2,141.2,152,141.5,152,141.7z" style="fill: rgb(204, 204, 204); opacity: 1;"/>
		<path d="M149.6,154c0.3,0.9,0.9,1.6,1.9,2.2c1,0.6,1.9,0.9,2.9,0.9c1.1,0,1.7-0.5,1.7-1.4c0-1.4-0.8-2-2.5-2c-0.4,0-1,0.1-1.9,0.3&#10;&#9;&#9;&#9;C151,154.2,150.3,154.2,149.6,154z" style="fill: rgb(204, 204, 204); opacity: 1;"/>
		<path d="M149.9,151.4l0.2,0.2c3.2-1.3,4.8-3.1,4.8-5.4c0-1.4-0.6-2.2-1.8-2.2c-0.6,0-1.1,0.3-1.7,0.9c-0.6,0.6-0.9,1.2-0.9,1.8&#10;&#9;&#9;&#9;c0,0.3,0,0.8,0.1,1.4c0.1,0.6,0.1,1.1,0.1,1.4c0,0.4-0.1,0.8-0.4,1.2C150.1,151.1,149.9,151.4,149.9,151.4z" style="fill: rgb(204, 204, 204); opacity: 1;"/>
		<path d="M150,134.6c0,0.5,0.2,1.1,0.6,2c0.4,0.8,0.6,1.5,0.7,1.9c1.7-1.2,2.5-2.4,2.5-3.6c0-1.5-0.6-2.2-1.8-2.2&#10;&#9;&#9;&#9;c-0.5,0-1,0.2-1.4,0.6C150.2,133.6,150,134.1,150,134.6z" style="fill: rgb(204, 204, 204); opacity: 1;"/>
		<path d="M149.3,160.2c0,0.7,0.2,1.4,0.7,2.1c0.5,0.7,1.1,1,1.9,1c1,0,1.5-0.4,1.5-1.2c0-0.5-0.3-1.1-0.8-1.7&#10;&#9;&#9;&#9;c-0.5-0.4-1-0.9-1.5-1.3c-0.1-0.3-0.3-0.8-0.6-1.4C149.7,158.5,149.3,159.4,149.3,160.2z" style="fill: rgb(204, 204, 204); opacity: 1;"/>
		<path d="M145.3,139.5c0,1.1,0.6,1.9,1.9,2.5c1.1,0.4,2.1,0.8,3.2,1.2h0.4c0,0,0-0.1,0.1-0.2c0-2.6-0.7-3.9-2.1-3.9&#10;&#9;&#9;&#9;c-0.4,0-0.9-0.1-1.3-0.3c-0.4-0.2-0.8-0.3-0.9-0.3C145.7,138.5,145.3,138.8,145.3,139.5z" style="fill: rgb(204, 204, 204); opacity: 1;"/>
		<path d="M145.3,149.8c0,0.3,0.3,0.6,0.8,0.9c0.5,0.3,0.9,0.5,1.3,0.5c0.6,0,1-0.4,1.3-1.1c0.2-0.7,0.4-1.4,0.6-2&#10;&#9;&#9;&#9;c-0.7,0.2-1.5,0.4-2.2,0.6C145.9,149,145.3,149.3,145.3,149.8z" style="fill: rgb(204, 204, 204); opacity: 1;"/>
		<path d="M141.9,145c0.4,0,1,0.2,1.8,0.4c0.2,0.1,0.7,0.5,1.3,1.2c0.5,0.5,1.1,0.7,1.8,0.7c1.2,0,1.8-0.4,1.8-1.2&#10;&#9;&#9;&#9;c0-0.5-0.2-0.9-0.5-1.2c-0.3-0.3-0.8-0.3-1.2-0.2c-0.5-1.4-1.4-2-2.7-2C143.2,142.6,142.5,143.4,141.9,145z" style="fill: rgb(204, 204, 204); opacity: 1;"/>
		<path d="M139.3,155.7c1.3,1,1.9,2.2,2,3.6c0.4,0.2,0.9,0.4,1.6,0.4c2.1,0,3.6-1.3,4.6-3.9c0.1-0.2,0.2-0.5,0.3-0.7&#10;&#9;&#9;&#9;c0-0.3-0.4-0.6-1.2-0.8c-0.7-0.2-1.2-0.3-1.7-0.3c-2.2,0-4.1,0.5-5.6,1.6V155.7z" style="fill: rgb(204, 204, 204); opacity: 1;"/>
		<path d="M136.9,172.8c0,4.6,1.7,8.2,5.1,10.7c1.4,1,2.4,1.5,3.2,1.5c0.4-1.1,0.6-2.3,0.6-3.8c0-2.2-0.8-4.3-2.5-6.1&#10;&#9;&#9;&#9;c-1.7-1.8-3.6-2.7-5.8-2.7C137.1,172.4,136.9,172.5,136.9,172.8z" style="fill: rgb(204, 204, 204); opacity: 1;"/>
		<path d="M141.2,149.7c0.4,0.2,0.9,0.4,1.5,0.4c0.9,0,1.4-0.3,1.4-0.8c0-0.6-0.4-0.8-1.1-0.8C142.6,148.4,142,148.8,141.2,149.7z" style="fill: rgb(204, 204, 204); opacity: 1;"/>
		<path d="M136.6,153.2l0.4,0.1c1.2,0,2.2-0.9,2.9-2.6c0.8-2.1,1.5-3.3,2-3.6c0,0,0.6-0.2,1.5-0.5c-0.3-0.3-0.5-0.5-0.7-0.5&#10;&#9;&#9;&#9;c-1,0-1.9,0.6-2.6,1.8c-0.5,1-1,2-1.5,2.9C138.2,151.4,137.5,152.2,136.6,153.2z" style="fill: rgb(204, 204, 204); opacity: 1;"/>
		<path d="M127.1,130.5c0,3.2,0.7,6.7,2.2,10.6c0.7,2.2,1.5,4.3,2.2,6.5c1.4,3.6,2.2,5.4,2.5,5.4l0.3-0.5l-1.5-4.6&#10;&#9;&#9;&#9;c3.2-0.4,5.3-1.5,6.2-3.3c0.1-0.3,0.4-1,0.8-2.3c0.4-1.2,0.6-2,0.6-2.1c0-0.2-0.2-0.3-0.5-0.3c-0.1,0-0.7,0.2-1.9,0.6&#10;&#9;&#9;&#9;c-2.7,1.1-4.6,3.1-5.8,6c-1.6-4.4-2.4-6.6-2.3-6.7c0,0,0.3,0,1.1,0c3.4,0,5.7-1.9,7-5.8c-0.3-0.2-0.8-0.3-1.4-0.3&#10;&#9;&#9;&#9;c-3.2,0-5.6,1.4-7.2,4.1c-0.3-0.3-0.6-1.3-0.9-2.9c-0.2-1.4-0.4-2.5-0.4-3.2c0.2,0,0.6,0.1,1.1,0.2c0.5,0.1,0.9,0.2,1.2,0.2&#10;&#9;&#9;&#9;c1.6,0,3.7-1.1,6-3.2c-0.5-0.6-1.8-0.8-3.9-0.8c-1.5,0-3,0.5-4.4,1.5l-0.1-0.4c0-2,0.4-3.7,1.1-5.3c0.9-1.9,2.3-2.9,4.1-2.9&#10;&#9;&#9;&#9;c0.6,0,1.1,0.2,1.5,0.7c0.4,0.5,0.6,1,0.6,1.5c0,1-0.5,1.5-1.6,1.5c-0.1,0-0.3,0-0.6-0.1c-0.3,0-0.4-0.1-0.5-0.1&#10;&#9;&#9;&#9;c-0.1,0-0.3,0.1-0.4,0.2c0.4,0.4,1,0.6,2,0.6c0.6,0,1.1-0.2,1.5-0.7c0.4-0.5,0.6-1,0.6-1.6c0-2-1.1-3-3.2-3&#10;&#9;&#9;&#9;C129.1,120.3,127.1,123.7,127.1,130.5z" style="fill: rgb(204, 204, 204); opacity: 1;"/>
		<path d="M124.1,178.1c0,1.5,0.5,3,1.5,4.3c0.2,0.2,1.3,1.3,3.3,3.2c0.2,0.3,0.5,0.6,0.7,0.8c0.4,0.5,0.6,0.7,0.8,0.7&#10;&#9;&#9;&#9;c0.2,0,0.7-0.8,1.5-2.5c0.8-1.7,1.2-2.7,1.2-3.1c0-0.1,0-0.3,0-0.6c0-0.3,0.1-0.5,0.1-0.6c0-1.5-0.6-3-1.8-4.5&#10;&#9;&#9;&#9;c-1.2-1.5-2.5-2.3-3.9-2.3c-0.1,0-0.4,0-0.8,0c-0.3,0-0.6,0.1-0.8,0.1C124.7,174.7,124.1,176.2,124.1,178.1z" style="fill: rgb(204, 204, 204); opacity: 1;"/>
		<path d="M120.4,154.7c0,0.3,0.8,0.7,2.3,1.1c1.3,0.3,2.2,0.4,2.8,0.4c2.4,0,4.3-0.6,5.8-1.8c0.7-0.6,1.1-0.9,1.1-1.1&#10;&#9;&#9;&#9;c0-0.3-0.8-0.7-2.5-1.1c-1.5-0.3-2.6-0.5-3.2-0.5c-1,0-2.3,0.3-3.7,0.8C121.3,153.2,120.4,153.9,120.4,154.7z" style="fill: rgb(204, 204, 204); opacity: 1;"/>
		<path d="M118.3,143.6c1.2,2.1,2.4,3.6,3.6,4.4c1.3,0.8,3,1.2,5.3,1.2c1.6,0,2.4-0.3,2.5-0.8c-2.6-3.5-5.7-5.2-9.2-5.2&#10;&#9;&#9;&#9;C120.4,143.2,119.7,143.3,118.3,143.6z" style="fill: rgb(204, 204, 204); opacity: 1;"/>
		<path d="M117.4,135.5c0.7,1.3,1.8,2.4,3.3,3.2c1.5,0.8,3,1.2,4.6,1.2c0.3,0,0.8-0.1,1.6-0.2l0.1-0.2c0-0.3-0.3-0.9-1-1.8&#10;&#9;&#9;&#9;c-1.3-1.7-3.3-2.6-6.2-2.6C119.5,135,118.6,135.2,117.4,135.5z" style="fill: rgb(204, 204, 204); opacity: 1;"/>
		<path d="M117.5,126.6c1.6,4.1,3.9,6.1,7,6.1c0.1,0,0.3-0.1,0.7-0.2c0.4-0.2,0.6-0.3,0.6-0.3c0-1.3-0.9-2.6-2.6-3.9&#10;&#9;&#9;&#9;c-1.7-1.3-3.3-1.9-4.6-1.9c-0.8,0-1.1,0-1.1,0V126.6z" style="fill: rgb(204, 204, 204); opacity: 1;"/>
		<path d="M111,180.4c1.5-0.6,3.1-1.2,4.6-1.8c1.9-0.8,2.8-2,2.8-3.4c0-2.1-0.7-3.2-2-3.2c-1.5,0-2.6,0.6-3.4,1.7&#10;&#9;&#9;&#9;c-0.5,0.8-0.9,1.9-1.2,3.4c-0.3,1.5-0.5,2.5-0.8,2.7V180.4z" style="fill: rgb(204, 204, 204); opacity: 1;"/>
		<path d="M97.4,168.1h0.3c0.6-0.5,1.2-0.7,1.9-0.7c0.7,0,1.7,0.2,3.1,0.5c1.4,0.3,2.4,0.5,3.1,0.5c0.5,0,1.2-0.1,2.1-0.4&#10;&#9;&#9;&#9;c1-0.4,1.5-0.7,1.5-1.1c-2-1-3.5-1.8-4.5-2.3c-1-0.5-2.1-0.8-3.2-0.8C99.6,163.8,98.2,165.2,97.4,168.1z" style="fill: rgb(204, 204, 204); opacity: 1;"/>
		<path d="M87.6,166.3v0.3c0,0,0.1,0.1,0.2,0.1c0,0,0.1-0.1,0.2-0.2c0.4-0.6,1-1.5,1.9-2.7c0.9-1,1.8-1.5,2.9-1.5&#10;&#9;&#9;&#9;c1.3,0,1.9,0.4,1.9,1.2c0,0.5-0.3,0.8-0.9,0.8c-0.5,0-0.9-0.4-1.3-1.1c-0.6,0-0.8,0.2-0.8,0.7c0,0.9,0.7,1.4,2.1,1.4&#10;&#9;&#9;&#9;c1.5,0,2.2-0.7,2.2-2.2c0-0.6-0.4-1-1.1-1.4c-0.7-0.4-1.4-0.5-2-0.5c-1.2,0-2.4,0.6-3.5,1.6C88.2,163.9,87.6,165.1,87.6,166.3z" style="fill: rgb(204, 204, 204); opacity: 1;"/>
		<path d="M90.4,155.6c0,0.7,0.3,1.3,0.9,1.9c0.6,0.6,1.2,1,1.9,1.2h0.4c0,0-0.4-0.4-1.1-1.3c-0.7-0.9-1.1-1.7-1.1-2.4&#10;&#9;&#9;&#9;c0-0.3,0.1-0.7,0.3-1l-0.1-0.5h-0.2c-0.2,0-0.4,0.3-0.6,0.8C90.5,154.8,90.4,155.3,90.4,155.6z" style="fill: rgb(204, 204, 204); opacity: 1;"/>
	</g></svg>