<?xml version="1.0" encoding="utf-8"?>
<svg viewBox="605.7408447265625 320.5799560546875 202.30902099609375 405.21893310546875" width="202.30902099609375" height="405.21893310546875" xmlns="http://www.w3.org/2000/svg"><g transform="matrix(1, 0, 0, 1, 0, 0)">
		<path fill-rule="evenodd" clip-rule="evenodd" fill="#004159" d="M704.783,332.052c-1.909,1.559,0.604,3.783,0.604,5.435&#10;&#9;&#9;&#9;C707.141,336.081,704.252,334.233,704.783,332.052z" style="fill: rgb(204, 204, 204); opacity: 1;"/>
		<path fill-rule="evenodd" clip-rule="evenodd" fill="#004159" d="M699.952,353.188c-2.462,1.362-8.4-0.75-7.851,3.624&#10;&#9;&#9;&#9;c-1.845-0.437-2.201,0.618-3.624,0.604c4.454,1.625,9.331-1.532,14.494-1.208c-2.886-1.858-6.69,0.54-10.267,0&#10;&#9;&#9;&#9;C693.607,353.688,699.049,355.707,699.952,353.188z" style="fill: rgb(204, 204, 204); opacity: 1;"/>
		<path fill-rule="evenodd" clip-rule="evenodd" fill="#004159" d="M736.789,355.604c-0.186-0.82-1.512-0.501-2.415-0.604&#10;&#9;&#9;&#9;C734.561,355.819,735.886,355.5,736.789,355.604z" style="fill: rgb(204, 204, 204); opacity: 1;"/>
		<path fill-rule="evenodd" clip-rule="evenodd" fill="#004159" d="M699.952,360.435c-3.489,1.141-8.063,1.198-11.475,2.416&#10;&#9;&#9;&#9;C691.143,363.288,697.946,362.666,699.952,360.435z" style="fill: rgb(204, 204, 204); opacity: 1;"/>
		<path fill-rule="evenodd" clip-rule="evenodd" fill="#004159" d="M721.692,368.889c-1.31-0.102-0.274,2.143-0.604,3.02&#10;&#9;&#9;&#9;C722.625,371.847,722.516,369.659,721.692,368.889z" style="fill: rgb(204, 204, 204); opacity: 1;"/>
		<path fill-rule="evenodd" clip-rule="evenodd" fill="#004159" d="M617.218,402.104c-2.635,1.592-4.665,3.79-5.436,7.247&#10;&#9;&#9;&#9;C614.293,407.634,615.979,405.094,617.218,402.104z" style="fill: rgb(204, 204, 204); opacity: 1;"/>
		<path fill-rule="evenodd" clip-rule="evenodd" fill="#004159" d="M649.224,405.124&#10;&#9;&#9;&#9;C650.551,406.968,653.092,404.426,649.224,405.124L649.224,405.124z" style="fill: rgb(204, 204, 204); opacity: 1;"/>
		<path fill-rule="evenodd" clip-rule="evenodd" fill="#004159" d="M616.01,409.351c-1.648-0.44-1.216,1.2-2.416,1.208&#10;&#9;&#9;&#9;C613.785,411.838,616.457,410.689,616.01,409.351z" style="fill: rgb(204, 204, 204); opacity: 1;"/>
		<path fill-rule="evenodd" clip-rule="evenodd" fill="#004159" d="M727.127,430.487&#10;&#9;&#9;&#9;C724.359,430.889,727.612,434.143,727.127,430.487L727.127,430.487z" style="fill: rgb(204, 204, 204); opacity: 1;"/>
		<path fill-rule="evenodd" clip-rule="evenodd" fill="#004159" d="M715.049,438.338c-0.792,0.213-0.949,1.062-1.812,1.208&#10;&#9;&#9;&#9;c-0.111,0.514,0.236,0.57,0.604,0.604c0.403,0,0.806,0,1.208,0C715.049,439.545,715.049,438.941,715.049,438.338z" style="fill: rgb(204, 204, 204); opacity: 1;"/>
		<path fill-rule="evenodd" clip-rule="evenodd" fill="#004159" d="M746.452,457.059c0.398,0.81,1.292,1.124,2.416,1.208&#10;&#9;&#9;&#9;C748.322,457.213,747.517,455.94,746.452,457.059z" style="fill: rgb(204, 204, 204); opacity: 1;"/>
		<path fill-rule="evenodd" clip-rule="evenodd" fill="#004159" d="M652.244,485.442c0.264,0.742,0.772,1.239,1.812,1.208&#10;&#9;&#9;&#9;C654.338,485.361,653.193,485.499,652.244,485.442z" style="fill: rgb(204, 204, 204); opacity: 1;"/>
		<path fill-rule="evenodd" clip-rule="evenodd" fill="#004159" d="M657.075,490.877c-0.401,0-0.805,0-1.208,0&#10;&#9;&#9;&#9;c0,0.402,0,0.805,0,1.208c0.402,0,0.806,0,1.208,0C657.075,491.682,657.075,491.279,657.075,490.877z" style="fill: rgb(204, 204, 204); opacity: 1;"/>
		<path fill-rule="evenodd" clip-rule="evenodd" fill="#004159" d="M640.77,496.916c-0.402,0-0.806,0-1.208,0&#10;&#9;&#9;&#9;c0,0.805,0,1.61,0,2.417c0.401,0,0.805,0,1.208,0C640.77,498.526,640.77,497.721,640.77,496.916z" style="fill: rgb(204, 204, 204); opacity: 1;"/>
		<path fill-rule="evenodd" clip-rule="evenodd" fill="#004159" d="M791.744,516.844c-0.052-0.857-0.1-1.71,0.604-1.811&#10;&#9;&#9;&#9;c-1.035-2.125-1.217,1.515-2.417,1.208c-0.11,0.513,0.236,0.57,0.604,0.604C790.939,516.844,791.342,516.844,791.744,516.844z" style="fill: rgb(204, 204, 204); opacity: 1;"/>
		<path fill-rule="evenodd" clip-rule="evenodd" fill="#004159" d="M763.965,519.863&#10;&#9;&#9;&#9;C764.156,522.844,766.697,520.302,763.965,519.863L763.965,519.863z" style="fill: rgb(204, 204, 204); opacity: 1;"/>
		<path fill-rule="evenodd" clip-rule="evenodd" fill="#004159" d="M798.387,530.734&#10;&#9;&#9;&#9;C799.713,532.579,802.255,530.037,798.387,530.734L798.387,530.734z" style="fill: rgb(204, 204, 204); opacity: 1;"/>
		<path fill-rule="evenodd" clip-rule="evenodd" fill="#004159" d="M789.329,532.545&#10;&#9;&#9;&#9;C787.249,534.106,792.434,534.005,789.329,532.545L789.329,532.545z" style="fill: rgb(204, 204, 204); opacity: 1;"/>
		<path fill-rule="evenodd" clip-rule="evenodd" fill="#004159" d="M785.101,566.364c-1.027-0.223-1.14,0.471-1.208,1.208&#10;&#9;&#9;&#9;c0.514-0.111,0.57,0.235,0.604,0.604C785.205,568.078,785.007,567.074,785.101,566.364z" style="fill: rgb(204, 204, 204); opacity: 1;"/>
		<path fill-rule="evenodd" clip-rule="evenodd" fill="#004159" d="M710.218,578.442c-1.569-0.361-2.173,0.242-1.812,1.812&#10;&#9;&#9;&#9;C708.97,579.609,710.634,580.065,710.218,578.442z" style="fill: rgb(204, 204, 204); opacity: 1;"/>
		<path fill-rule="evenodd" clip-rule="evenodd" fill="#004159" d="M699.348,600.787c-1.288-0.283-1.151,0.863-1.208,1.811&#10;&#9;&#9;&#9;c0.489-0.115,0.602-0.606,1.208-0.604C699.348,601.592,699.348,601.188,699.348,600.787z" style="fill: rgb(204, 204, 204); opacity: 1;"/>
		<path fill-rule="evenodd" clip-rule="evenodd" fill="#004159" d="M696.328,605.014c-2.75,0.079-6.539,4.323-7.851,7.851&#10;&#9;&#9;&#9;C691.443,610.595,693.087,607.006,696.328,605.014z" style="fill: rgb(204, 204, 204); opacity: 1;"/>
		<path fill-rule="evenodd" clip-rule="evenodd" fill="#004159" d="M721.088,621.922c-0.477,1.505,0.984,6.247,3.624,6.644&#10;&#9;&#9;&#9;C723.937,625.918,722.109,624.323,721.088,621.922z" style="fill: rgb(204, 204, 204); opacity: 1;"/>
		<path fill-rule="evenodd" clip-rule="evenodd" fill="#004159" d="M638.958,627.358c-2.953-1.721-2.012,8.833-1.208,10.87&#10;&#9;&#9;&#9;C641.255,636.514,636.898,629.587,638.958,627.358z" style="fill: rgb(204, 204, 204); opacity: 1;"/>
		<path fill-rule="evenodd" clip-rule="evenodd" fill="#004159" d="M718.068,643.663c-0.393-1.703-0.7,1.391-0.603,1.812&#10;&#9;&#9;&#9;C717.745,646.687,718.6,645.962,718.068,643.663z" style="fill: rgb(204, 204, 204); opacity: 1;"/>
		<path fill-rule="evenodd" clip-rule="evenodd" fill="#004159" d="M616.01,650.306c-1.852,0.592,0.694,1.611,0.604,2.415&#10;&#9;&#9;&#9;C618.466,652.128,615.92,651.11,616.01,650.306z" style="fill: rgb(204, 204, 204); opacity: 1;"/>
		<path fill-rule="evenodd" clip-rule="evenodd" fill="#004159" d="M766.984,669.027c-2.143,1.883-5.197,2.854-6.643,5.436&#10;&#9;&#9;&#9;c0.511,0.897,1.944,0.873,3.02,1.208C763.724,672.61,767.86,673.325,766.984,669.027z" style="fill: rgb(204, 204, 204); opacity: 1;"/>
		<path fill-rule="evenodd" clip-rule="evenodd" fill="#004159" d="M740.413,693.787c-2.676,0.143-5.2,0.436-5.436,3.019&#10;&#9;&#9;&#9;C736.722,697.802,739.714,695.754,740.413,693.787z" style="fill: rgb(204, 204, 204); opacity: 1;"/>
		<path fill-rule="evenodd" clip-rule="evenodd" fill="#004159" d="M754.907,694.391c-2.349,0.554-1.048,4.107,1.811,3.02&#10;&#9;&#9;&#9;c-0.101,1.921-1.415,4.446,0,6.039C759.023,700.078,757.403,696.136,754.907,694.391z" style="fill: rgb(204, 204, 204); opacity: 1;"/>
		<path fill-rule="evenodd" clip-rule="evenodd" fill="#004159" d="M768.192,702.845c-2.652,0.184-0.009,4.044,1.208,4.228&#10;&#9;&#9;&#9;C769.797,704.863,768.093,704.755,768.192,702.845z" style="fill: rgb(204, 204, 204); opacity: 1;"/>
		<path fill-rule="evenodd" clip-rule="evenodd" fill="#004159" d="M742.828,714.922c-0.884,0.525-1.914,0.905-1.812,2.416&#10;&#9;&#9;&#9;C741.901,716.813,742.931,716.435,742.828,714.922z" style="fill: rgb(204, 204, 204); opacity: 1;"/>
		<path fill-rule="evenodd" clip-rule="evenodd" fill="#004159" d="M775.439,716.734c-0.402,0-0.806,0-1.208,0&#10;&#9;&#9;&#9;c0,0.805,0,1.61,0,2.416c0.402,0,0.806,0,1.208,0C775.439,718.344,775.439,717.539,775.439,716.734z" style="fill: rgb(204, 204, 204); opacity: 1;"/>
		<path fill-rule="evenodd" clip-rule="evenodd" fill="#004159" d="M609.367,405.727c1.188-4.315,6.681-3.807,7.851-8.454&#10;&#9;&#9;&#9;c-6.368-0.221-10.254-5.648-9.663-10.87c2.597,0.25,3.354,2.818,6.039,3.623c3.139,0.94,6.5,0.252,10.267,0&#10;&#9;&#9;&#9;c-6.532-3.24-5.012-11.745-6.643-19.324c-0.805-3.738-3.075-6.082-3.624-9.058c12.4,0.286,17.883,10.013,15.701,22.948&#10;&#9;&#9;&#9;c2.296,1.328,3.2,4.047,4.227,6.643c7.835-0.145,15.165,3.299,20.533,3.624c-8.513-7.4-5.563-29.432,4.832-30.799&#10;&#9;&#9;&#9;c-5.064,2.842-10.647,12.396-7.247,19.325c0.259-3.768,0.514-7.539,2.415-9.663c1.283,1.094-2.262,4.669,0,6.643&#10;&#9;&#9;&#9;c0.017-3.406,0.943-5.901,2.416-7.851c0.587,2.473-1.495,3.869,0,5.435c1.392,0.185,0.671-1.745,1.811-1.812&#10;&#9;&#9;&#9;c0.698,1.963-1.844,3.715,0,4.832c1.418-0.192,1.353-1.87,2.416-2.416c0.779,5.307-5.624,2.865-3.019,7.851&#10;&#9;&#9;&#9;c0.527-0.883,0.479-2.339,2.415-1.812c3.128-4.762,6.81-16.44,2.416-22.948c-1.152,0.256-1.093,1.725-3.02,1.208&#10;&#9;&#9;&#9;c0.45-2.167,2.6-2.634,5.435-2.416c2.694,7.845,3.229,14.176,0,21.137c-2.392,5.157-6.553,6.999-6.039,11.475&#10;&#9;&#9;&#9;c0.159,1.384,2.684,5.019,3.624,6.039c1.77,1.919,5.025,3.385,7.247,5.435c2.378,2.195,4.014,5.583,7.247,5.436&#10;&#9;&#9;&#9;c5.032-13.89,11.068-26.777,19.324-37.441c-6.504-1.348-11.673-4.028-13.89-9.663c1.121-2.906,3.115-4.937,3.02-9.058&#10;&#9;&#9;&#9;c4.345-3.854,9.983-8.139,16.306-6.644c-0.995-1.018-1.312-2.714-2.416-3.624c-0.164-3.884-1.036-8.134-0.604-12.078&#10;&#9;&#9;&#9;c0.376-3.436,1.962-9.389,4.227-10.87c4.384,3.466,8.182,7.519,13.286,10.266c0.963,2.459,0.523,6.321,2.416,7.851&#10;&#9;&#9;&#9;c2.556-0.93,2.382-3.931,4.831-6.039c4.738-4.078,14.436-4.895,17.512,1.208c-1.424,1.794-4.537,1.903-4.83,4.831&#10;&#9;&#9;&#9;c4.476,3.375,8.577,7.125,12.078,11.474c-2.234,8.948-8.643,16.569-18.117,16.306c1.109,4.692-3.523,11.492-3.624,18.721&#10;&#9;&#9;&#9;c-3.464,0.042-3.199-3.646-6.039-4.228c-6.737-0.509-12.511-1.983-15.098-6.643c-8.671,11.458-16.481,23.778-19.324,41.064&#10;&#9;&#9;&#9;c1.54,2.602,2.265,6.365,0.603,9.06c2.935,11.76,4.399,24.99,8.455,35.629c3.539-0.285,2.817-4.833,3.624-7.851&#10;&#9;&#9;&#9;c3.842,0.881,4.189-6.031,7.851-7.247c2.434-9.04,4.558-18.389,12.078-22.344c1.563,0.45-2.95,2.995-0.604,4.227&#10;&#9;&#9;&#9;c4.445-4.214,11.461-9.068,18.118-9.059c-2.248,6.408-3.634,13.677-7.851,18.117c0.736,0.068,1.429,0.181,1.208,1.208&#10;&#9;&#9;&#9;c-2.798,0.316-6.195,3.474-6.039,0c-1.254,0.156-0.165,2.653-1.208,3.021c-2.483,0.975-3.602-0.417-5.436,1.208&#10;&#9;&#9;&#9;c0.922-3.91,4.204-5.458,5.436-9.058c-2.585,1.642-4.471,3.984-6.643,6.039c-0.101-3.12,3.249-2.791,3.02-6.039&#10;&#9;&#9;&#9;c-2.547,0.473-2.636,3.403-4.832,4.227c-0.15-3.186,2.749-6.49,1.208-9.059c-2.716,5.115-8.234,12.573-5.435,19.324&#10;&#9;&#9;&#9;c-4.416,2.025-7.583,5.301-8.455,10.87c3.122-3.319,6.363-6.52,9.663-9.663c5.771-1.277,13.672-3.633,15.097-7.246&#10;&#9;&#9;&#9;c-1.788,1.248-5.908,3.33-7.851,2.415c5.436-0.805,8.166-4.314,12.682-6.039c0.026-0.831-0.284-1.326-0.604-1.812&#10;&#9;&#9;&#9;c1.897-0.316,3.369-1.06,4.831-1.811c-3.076,17.049-27.987,12.781-30.799,27.175c8.698-5.428,15.666-14.895,28.988-13.285&#10;&#9;&#9;&#9;c6.829,0.825,13.556,5.884,18.117,8.454c1.918,1.082,4.531,1.424,5.435,3.624c-4.91,0.891-8.475,3.865-12.078,6.039&#10;&#9;&#9;&#9;c-3.128,1.888-8.848,5.618-12.078,6.039c-8.633,1.126-14.547-4.771-21.137-4.831c-9.998-0.091-13.158,9.239-15.701,16.306&#10;&#9;&#9;&#9;c-3.19,8.869-2.802,19.668-3.02,28.986c-0.173,7.454-1.37,13.076,1.208,18.722c2.141,4.69,6.394,7.894,9.058,12.078&#10;&#9;&#9;&#9;c4.133,6.49,6.351,16.83,8.454,25.364c1.31-2.598,3.326-1.63,4.228,0.603c6.908-7.987,18.396-11.396,31.403-13.285&#10;&#9;&#9;&#9;c1.403-1.415,0.72-4.917,3.02-5.436c1.617,0.911,3.18,0.034,5.435,1.208c3.727-4.009,9.016-8.28,9.058-13.889&#10;&#9;&#9;&#9;c0.062-7.998-7.679-7.796-10.87-12.682c-3.182-4.874-2.015-8.695-2.415-15.097c1.511-0.165,3.175,0.965,4.831,1.812&#10;&#9;&#9;&#9;c4.791,2.448,8.747,5.183,12.078,7.851c-2.974-9.766-1.472-21.846,4.832-27.176c0.668,4.334,3.469,9.955,3.624,15.098&#10;&#9;&#9;&#9;c1.294-0.72,3.374-0.652,4.227-1.812c-2.551,3.091-7.506,6.979-5.435,12.682c0.933-3.697,3.06-6.199,5.435-8.455&#10;&#9;&#9;&#9;c-1.182,2.844-1.751,5.682-1.208,7.247c0.65-1.24-2.013,4.938,0,4.831c2.381,0.167,0.175-4.254,1.812-4.831&#10;&#9;&#9;&#9;c1.576,0.99-1.421,4.152,0.603,5.436c8.957-3.492-2.525-19.586,4.227-22.345c0.331,0.878-0.705,3.121,0.604,3.02&#10;&#9;&#9;&#9;c3.706-3.138,8.481-5.207,12.682-7.851c2.352,11.396-2.078,25.966-13.89,27.176c0.545,2.001-3.354,2.62-1.812,3.623&#10;&#9;&#9;&#9;c7.365-5.726,16.977-0.355,24.156,2.416c-3.333,3.668-7.824,8.342-14.494,9.059c-4.505,0.484-9.446-1.526-13.89-0.604&#10;&#9;&#9;&#9;c-3.361,0.696-4.416,3.62-7.851,3.623c-2.419,4.223-6.008,7.278-8.455,11.475c22.25-1.718,27.268,13.796,32.61,28.987&#10;&#9;&#9;&#9;c-6.059-4.616-14.912-2.267-22.344-3.623c-8.827-1.612-12.469-7.556-17.513-14.494c-7.446-3.394-14.47,2.935-22.948,2.415&#10;&#9;&#9;&#9;c-5.79,5.121-16.762,9.574-18.721,19.929c-1.92,10.148,0.168,21.93,6.642,26.572c3.947-5.748,5.794-15.368,13.286-17.513&#10;&#9;&#9;&#9;c7.785-2.23,13.915,2.166,19.929,6.039c0.761,3.466,3.57,4.884,4.227,8.455c2.255-0.241,3.543,0.482,3.624,2.415&#10;&#9;&#9;&#9;c-6.58,2.688-11.523,6.949-18.721,4.832c-4.574-1.346-8.414-8.797-14.494-5.436c-1.707,2.319-3.13,4.922-4.831,7.247&#10;&#9;&#9;&#9;c0.848,5.192,4.906,7.173,5.436,12.682c9.472,6.027,21.006,9.993,33.214,13.285c5.724,5.75,8.086,14.861,9.662,24.76&#10;&#9;&#9;&#9;c2.976,1.453,4.168,4.69,7.851,5.436c-0.611,6.448,5.222,6.453,5.435,12.078c-5.585-0.915-5.113-9.533-11.474-7.851&#10;&#9;&#9;&#9;c0.221-3.643-0.572-6.272-2.415-7.851c-1.562,5.763-9.996,9.785-9.059,16.909c0.388,2.957,2.534,4.481,4.832,6.644&#10;&#9;&#9;&#9;c5.332-0.702,7.211,2.049,9.058,4.831c-2.146-1.679-5.479-2.17-7.851-3.624c-4.208,7.366,7.881,7.975,9.058,13.889&#10;&#9;&#9;&#9;c-1.059,0.167-3.013-1.7-3.624,0c0.427,3.044-1.083,4.15-1.812,6.039c-1.802,0.134-2.053-2.229-3.623-0.604&#10;&#9;&#9;&#9;c0.436,3.053-0.885,4.349-2.416,5.436c-0.085,2.329,0.472,5.303-1.208,6.039c-3.631-6.078,4.114-9.525,4.227-15.701&#10;&#9;&#9;&#9;c0.908-1.17,2.542,1.055,3.019-1.209c-2.492-8.579-9.421-12.721-15.701-17.512c-1.052-0.046-1.878,0.135-2.415,0.604&#10;&#9;&#9;&#9;c1.217-2.864,4.518-9.218,1.812-12.078c-4.792,2.456-4.525,9.969-12.682,9.058c-0.946,0.866-0.476,3.147-2.417,3.02&#10;&#9;&#9;&#9;c-0.22-2.167-1.622-2.212-0.603-4.227c6.273-0.571,11.267-2.422,12.078-8.455c4.19,1.554,5.057-3.369,7.248-1.812&#10;&#9;&#9;&#9;c-3.572,6.479,0.19,18.497,6.039,17.513c-1.51-2.315-3.533-4.117-4.831-6.642c-2.982-9.837,8.902-12.312,9.663-19.93&#10;&#9;&#9;&#9;c0.451-4.537-5.214-17.385-7.851-19.928c-1.586-1.529-3.385-4.264-6.04-3.624c3.916,1.979,4.876,6.902,6.643,11.474&#10;&#9;&#9;&#9;c1.57,4.061,5.883,8.497,3.624,12.078c-3.256-7.614-5.872-15.869-10.267-22.343c-3.193-2.617-7.983-2.259-12.078-3.624&#10;&#9;&#9;&#9;c-5.027-1.676-8.86-5.583-12.682-6.039c0.961,4.473,7.075,3.794,10.267,6.039c1.028,1.187,1.411,3.019,3.02,3.624&#10;&#9;&#9;&#9;c3.844,1.591,9.638,1.231,12.682,3.623c-3.875,0.654-4.58-1.862-8.455-1.208c-0.008,1.2-1.647,0.768-1.208,2.416&#10;&#9;&#9;&#9;c0.508,3.429,3.625,4.995,1.812,9.058c0.412,1.197,3.597-0.377,3.019,1.812c-4.788-0.443-9.941,0.965-11.474,5.435&#10;&#9;&#9;&#9;c-5.889-1.058-7.412,2.25-9.663,4.832c-0.155-1.255-2.652-0.166-3.02-1.208c4.004-7.269,17.465-5.081,19.929-13.889&#10;&#9;&#9;&#9;c-0.908-1.709-2.66-2.574-3.02-4.832c0.337-1.475,2.337-1.287,1.812-3.624c-9.489-2.79-14.751-9.807-24.759-12.078&#10;&#9;&#9;&#9;c-1.553,5.859,2.165,11.464,1.208,18.721c-3.931,4.523-5.903,11.005-12.078,13.285c-3.661-6.806-7.367-13.568-10.87-20.533&#10;&#9;&#9;&#9;c-1.61,4.99-16.913,6.64-18.721,0.604c1.495-3.336,3.38-6.283,3.02-11.475c3.067-3.843,5.098-9.629,10.87-10.87&#10;&#9;&#9;&#9;c7.216-1.55,15.395,2.734,21.137,4.832c0.68-0.93,1.735-1.486,2.415-2.415c-3.093-2.947-2.924-9.155-7.247-10.871&#10;&#9;&#9;&#9;c-0.013-1.422,1.041-1.778,0.604-3.624c-4.198-2.444-3.796-9.49-7.851-12.078c-4.39,1.107-4.128,6.095-6.039,9.058&#10;&#9;&#9;&#9;c-2.792,4.331-6.474,4.077-10.87,6.039c-3.336,1.488-4.95,4.336-8.454,4.831c-0.397-0.811-1.291-1.125-2.416-1.208&#10;&#9;&#9;&#9;c-1.62-4.13-1.238-9.537-0.604-14.494c3.538-4.962,6.029-8.628,13.89-9.058c2.266-0.125,4.358,0.831,6.642,0.604&#10;&#9;&#9;&#9;c3.612-0.361,5.756-2.541,8.455-3.021c-1.123-4.033,0.499-7.384-0.604-10.869c-6.504,0.015-8.743-6.144-11.474-9.059&#10;&#9;&#9;&#9;c-1.931-2.061-5.335-4.911-8.455-6.039c-12.422-4.494-19.353-13.324-19.325-28.383c-7.224,3.848-14.053,8.09-21.74,11.475&#10;&#9;&#9;&#9;c-0.736-5.474-2.109-11.506,0.604-15.702c-5.116-0.846-13.43-4.986-13.89-7.851c-0.847-5.279,6.761-5.985,7.247-12.078&#10;&#9;&#9;&#9;c-0.753-2.468-4.16-2.282-4.832-4.831c2.134-4.076,8.04-4.189,10.87-6.039c0.711,1.303,1.253,2.772,1.812,4.227&#10;&#9;&#9;&#9;c4.537-0.5,3.865,7.395,8.455,4.831c-2.358-2.309-4.377-4.853-6.643-7.246c-2.203-2.329-5.167-4.313-6.039-7.851&#10;&#9;&#9;&#9;c0.144-1.134,0.995,0.342,1.208-0.604c-0.302-2.112-5.366-5.229-2.415-6.643c1.764-1.331,1.516,4.5,4.831,3.624&#10;&#9;&#9;&#9;c0.076-7.774,4.808-10.894,9.059-14.494c1.983,0.697,0.875,2.213,1.812,3.624c2.352,3.543,8.008,5.696,9.662,9.663&#10;&#9;&#9;&#9;c1.854,4.441,0.981,9.78-1.208,15.097c3.247,0.688,0.392,2.406,0.604,4.831c6.923,1.331,11.016,5.491,16.909,7.851&#10;&#9;&#9;&#9;c3.676-3.512,0.858-8.756,1.208-13.287c0.933-12.069,5.087-25.198,6.643-37.441c-1.916-7.09-4.775-13.852-6.643-21.74&#10;&#9;&#9;&#9;c-2.525-10.659-3.182-22.232-8.454-27.779c-3.218-0.227-8.284-1.551-12.682-1.208c-4.065,0.317-8.084,2.363-11.475,2.415&#10;&#9;&#9;&#9;c-3.069,0.047-4.524-1.872-6.643-3.623c-4.617-3.818-7.944-8.866-7.851-13.891c3.184-2.654,7.302-4.373,13.286-4.227&#10;&#9;&#9;&#9;c0.385-1.317-1.712-1.921,0.604-1.812c0.035,0.368,0.09,0.715,0.604,0.604c0.678,0.128,0.941,0.67,1.208,1.208&#10;&#9;&#9;&#9;c-2.227,0.793-5.495,0.544-7.851,1.208c0.076,1.512,1.153,1.891-0.603,2.416c-0.398-0.811-1.291-1.125-2.416-1.208&#10;&#9;&#9;&#9;c1.265,3.084-0.787,2.243-2.416,3.623c2.153,14.236,18.499,12.836,30.799,11.475c-5.391-4.473-12.991-6.737-20.533-9.059&#10;&#9;&#9;&#9;c6.952-0.104,12.541,4.363,17.513,4.227c-4.22-3.43-11.564-3.735-16.306-6.643c6.202,0.647,12.218,4.687,16.91,4.831&#10;&#9;&#9;&#9;c-1.154-3.605-4.841-0.982-6.643-3.623c1.075-0.361,2.508,1.77,3.02,0c-3.997-1.64-5.907-5.366-10.266-6.643&#10;&#9;&#9;&#9;c-0.777-8.688-13.31-8.832-21.137-8.455c1.504,1.114,3.777,1.457,5.436,2.416c-5.53-1.103-1.884,6.974-3.624,9.662&#10;&#9;&#9;&#9;c-3,0.382-1.997-3.236-4.832-3.019c-3.119,9.583-11.804,18.598-23.552,15.701c0-0.402,0-0.805,0-1.208&#10;&#9;&#9;&#9;C608.804,414.012,608.196,409.977,609.367,405.727z M778.459,673.858c-0.792,0.212-0.95,1.063-1.812,1.208&#10;&#9;&#9;&#9;c0.145,1.062,1.039,1.377,2.415,1.208C779.319,675.011,778.648,674.674,778.459,673.858z M787.517,502.955&#10;&#9;&#9;&#9;c1.26,1.704-2.908,6.063-0.604,10.267C788.935,511.101,791.957,504.731,787.517,502.955z M719.276,451.624&#10;&#9;&#9;&#9;c4.63-0.208,13.988-1.056,19.325,1.208c-4.572,0.601-15.844-1.194-20.533,1.208c8.017-0.177,20.479-0.086,27.779,2.415&#10;&#9;&#9;&#9;c-7.74-0.209-16.008-1.736-24.76-0.604c1.507,2.296,4.909,1.164,7.248,1.208c6.604,0.122,12.673,1.012,18.116,1.811&#10;&#9;&#9;&#9;c-9.604,1.703-20.982-1.385-29.591,1.812c2.771,1.245,9.425-1.008,12.078,0c-6.841,2.351-15.483-0.684-21.136,2.416&#10;&#9;&#9;&#9;c5.916-0.689,10.835,3.471,15.701,4.227c11.644,1.809,18.751-5.425,27.779-7.851c-1.985-4.053-6.744-5.335-12.078-6.039&#10;&#9;&#9;&#9;c0.075-1.334,2.561-0.256,3.623-0.604c-2.129-2.671-5.273-2.494-9.662-2.416C728.243,450.503,721.142,448.168,719.276,451.624z&#10;&#9;&#9;&#9; M716.861,430.487c2.173,0.945,4.294-3.34,7.247-3.624c0.747,1.954-1.954,0.461-1.208,2.415c4.339,1.975,4.859-4.693,7.851-6.039&#10;&#9;&#9;&#9;c-1.801-1.564-2.979,2.63-4.832,3.02c-1.309-1.155,2.122-2.675,1.812-4.831C723.243,423.583,718.891,425.873,716.861,430.487z&#10;&#9;&#9;&#9; M730.147,426.259c-2.348,0.481-6.149,4.714-6.04,9.663c0.701-0.507,1.62-0.796,3.02-0.604c0.718-3.107,3.565-4.085,3.624-7.85&#10;&#9;&#9;&#9;c-0.743,0.263-1.24,0.772-1.208,1.811C728.067,428.895,729.452,426.457,730.147,426.259z M707.803,328.428&#10;&#9;&#9;&#9;c3.302,2.133,2.108,8.761,4.831,11.475c0.64,2.899-0.437,5.176,1.208,6.039c2.214-0.202,0.225-3.104,0-4.227&#10;&#9;&#9;&#9;c-0.614-3.066-1.837-7.226-3.019-11.474c2.037,1.788,1.963,5.685,3.624,7.851c1.091-1.568-0.174-2.043,1.208-3.624&#10;&#9;&#9;&#9;c-2.531-5.319-7.467-8.235-12.682-10.87c-3.56,9.105-2.716,25.458,6.039,26.571c-1.839-3.999-4.914-6.761-5.436-12.078&#10;&#9;&#9;&#9;c2.75,1.276,1.696,6.356,4.831,7.247c-2.141-5.846-1.7-12.315-3.019-18.117c2.164,2.868,2.796,7.27,4.228,10.87&#10;&#9;&#9;&#9;C711.371,334.907,708.417,331.249,707.803,328.428z M733.77,332.655c-0.442,0.564-1.098,0.915-1.812,1.208&#10;&#9;&#9;&#9;c0.874,1.413,3.595-0.384,4.831-0.604c-4.174-4.854-13.791-1.013-15.097,4.227c3.087-0.737,3.888-3.762,7.246-4.227&#10;&#9;&#9;&#9;C726.481,337.352,731.268,332.479,733.77,332.655z M736.789,334.467c-3.493-0.071-4.196,2.647-7.246,3.02&#10;&#9;&#9;&#9;c0.645,0.562,0.187,2.228,1.812,1.812c-3.144,2.492-6.871,4.403-7.851,9.059c1.515-0.937,2.022-2.449,4.227-1.208&#10;&#9;&#9;&#9;C731.185,343.356,734.57,339.494,736.789,334.467z M723.504,341.714c2.161,1.151,3.837-0.17,4.227-2.416&#10;&#9;&#9;&#9;C725.989,337.858,722.75,338.789,723.504,341.714z M708.406,339.903c-0.923,1.856,3.944,1.856,3.02,0&#10;&#9;&#9;&#9;C711.059,339.555,708.561,338.489,708.406,339.903z M714.446,339.903c0.838,0.771,0.369,2.85,1.208,3.623&#10;&#9;&#9;&#9;C717.942,343.031,716.582,339.538,714.446,339.903z M731.958,344.13c0.481,2.94,5.106,1.738,6.039,4.227&#10;&#9;&#9;&#9;c0.283,1.289-0.863,1.15-1.811,1.208c0.763,1.909,6.261-0.113,9.662,0.603C743.491,345.739,736.985,338.639,731.958,344.13z&#10;&#9;&#9;&#9; M709.614,343.525c0,0.604,0,1.208,0,1.812c1.083,0.077,1.274-0.74,2.416-0.604C711.632,343.922,710.738,343.609,709.614,343.525z&#10;&#9;&#9;&#9; M721.692,345.941c-2.237,0.38-3.367,1.867-3.02,4.832C721.08,350.686,722.719,347.56,721.692,345.941z M731.354,347.149&#10;&#9;&#9;&#9;c0.073,1.536,0.878,2.342,2.416,2.417c0.268-0.538,0.53-1.081,1.208-1.208C734.91,346.814,732.955,347.158,731.354,347.149z&#10;&#9;&#9;&#9; M711.425,347.149c0.199,1.412,0.727,2.495,1.208,3.624c0.792-0.214,0.949-1.063,1.812-1.208&#10;&#9;&#9;&#9;C714.333,347.866,713.395,346.992,711.425,347.149z M685.458,359.831c6.253-0.39,11.404-1.882,17.513-2.416&#10;&#9;&#9;&#9;c0.596,2.525-3.033,2.003-4.831,2.416c-3.866,0.888-10.17,1.237-13.89,3.02c2.869,6.295,16.918,9.709,19.928,1.208&#10;&#9;&#9;&#9;c-3.77-1.131-7.538,0.742-12.078,0.604c3.363-2.475,11.499-0.178,13.89-3.624c1.666,4.443-0.828,13.108,4.832,16.909&#10;&#9;&#9;&#9;c2.195,1.475,5.814,2.162,9.662,1.208c-1.281-3.349-1.09-8.17-4.228-9.663c0.673,1.942,1.029,4.205,1.812,6.039&#10;&#9;&#9;&#9;c-3.568,0.74-2.116-8.746-5.435-10.267c0.501,2.719,0.576,5.867,1.812,7.851c-2.624-1-2.453-4.794-3.021-7.851&#10;&#9;&#9;&#9;c-2.295-0.484-0.768,2.856-1.208,4.228c-0.971-2.19-1.701-5.976-0.604-8.455c-1.689-0.928-3.406-1.827-4.831-3.02&#10;&#9;&#9;&#9;c2.713-0.348-0.166-2.54,3.02-2.415c-1.093-3.79-2.742-8.237-9.663-7.851c-2.247,0.125-7.38,2.623-8.455,3.623&#10;&#9;&#9;&#9;C687.208,353.685,687.124,357.228,685.458,359.831z M730.147,352.583c0.097,0.708,1.101,0.509,1.811,0.604&#10;&#9;&#9;&#9;c-0.617,1.396-2.776,1.249-4.831,1.208c0.878,0.935,2.355,1.268,4.228,1.208c-1.034,1.381-4.609,0.221-6.643,0.604&#10;&#9;&#9;&#9;c0.313,0.894,0.895,1.522,1.208,2.416c1.894-2.696,5.638-0.68,10.267-1.208c-0.076,1.333-2.562,0.256-3.624,0.604&#10;&#9;&#9;&#9;c0.431,2.251-2.201,0.829-1.812,4.227c-2.227-1.2-0.853-2.856-1.208-3.623c-4.238,0.157-0.011,3.353,0,4.831&#10;&#9;&#9;&#9;c8.435-0.624,11.655-6.462,15.701-11.474C741.688,349.12,734.683,352.48,730.147,352.583z M714.446,351.376&#10;&#9;&#9;&#9;c-0.518,1.927,0.95,1.869,1.208,3.02c-1.208,0-2.416,0-3.624,0c0.002,2.015-1.965,2.062-1.812,4.228&#10;&#9;&#9;&#9;c3.26,1.31,5.763-1.906,6.643-4.831c2.355,0.138,2.206,5.053,5.436,2.415C720.63,352.318,718.275,352.839,714.446,351.376z&#10;&#9;&#9;&#9; M718.673,359.831c-1.794,2.858,0.121,11.769,2.415,14.494c-0.104,2.721-0.295,5.528,2.416,5.435&#10;&#9;&#9;&#9;c1.84-4.601,4.417-8.465,3.623-15.701c-1.405-0.406-0.455-3.168-3.02-2.415c-2.029-0.621-0.939,1.877-1.208,3.02&#10;&#9;&#9;&#9;c-1.394-0.62,0.017-4.044-2.416-3.624c0.411,2.207,0.842,4.392,0.604,7.247C719.181,365.434,720.233,362.015,718.673,359.831z&#10;&#9;&#9;&#9; M620.237,364.663c-1.409,0-2.817,0-4.227,0c6.101,6.414-0.486,23.001,12.681,24.155c-2.532-3.305-5.453-6.223-5.435-12.078&#10;&#9;&#9;&#9;c2.843,2.222,1.116-5.641,0-7.851c2.853,1.374,3.029,5.425,3.624,9.059c2.807-4.168-2.132-11.479-6.04-10.87&#10;&#9;&#9;&#9;C620.021,366.891,620.34,365.565,620.237,364.663z M695.121,381.571c0.884-0.525,1.915-0.904,1.812-2.415&#10;&#9;&#9;&#9;C695.34,378.972,695.375,380.417,695.121,381.571z M695.724,379.156c0.223-1.028-0.471-1.139-1.208-1.208&#10;&#9;&#9;&#9;c-2.718,4.445-6.354,9.195-9.059,14.494c-2.407,4.717-6.312,10.546-4.227,16.306c4.746-3.709,4.262-12.647,8.454-16.91&#10;&#9;&#9;&#9;C689.759,385.67,693.085,382.756,695.724,379.156z M695.121,382.176c-1.593-0.185-1.557,1.26-1.812,2.415&#10;&#9;&#9;&#9;C694.193,384.065,695.224,383.687,695.121,382.176z M609.971,390.025c0.537,1.074,1.686,1.535,1.208,3.624&#10;&#9;&#9;&#9;c1.971,1.792,7.644,2.631,10.87,1.208c-0.643-1.371-3.797-0.23-5.436-0.604c0.634-1.894,3.097-0.116,4.831-1.812&#10;&#9;&#9;&#9;C617.239,392.133,614.582,391.073,609.971,390.025z M657.075,394.253c-0.401,0-0.805,0-1.208,0&#10;&#9;&#9;&#9;c-0.17,0.975,0.571,1.04,0.604,1.812c0.402,0,0.805,0,1.208,0C657.849,395.089,657.108,395.025,657.075,394.253z M612.387,411.767&#10;&#9;&#9;&#9;c1.608,2.437-4.055,2.771-4.227,5.435c5.719-0.923,9.999-3.286,12.078-7.851c1.027-0.222,1.14,0.471,1.208,1.208&#10;&#9;&#9;&#9;c1.498-0.313,2.151-1.473,3.02-2.415c-0.524-1.784-0.904,1.401-2.415,0.604c0.239-2.58,2.672-2.964,3.02-5.436&#10;&#9;&#9;&#9;c0.707,0.097,0.509,1.101,0.603,1.812c1.34-0.428,2.007-2.834,1.208-3.624c-4.632,3.219-6.347,9.355-12.079,11.475&#10;&#9;&#9;&#9;c0.781-2.642,3.047-3.796,4.832-5.436c-0.9-1.628-1.907,1.659-3.02,1.812c-0.833-4.463,5.43-7.045,7.247-10.87&#10;&#9;&#9;&#9;c2.468-1.419,4.188-0.562,4.831-3.02c-2.45,1.173-7.367-0.121-9.058,1.812c-0.333,1.338,1.153,0.859,1.208,1.812&#10;&#9;&#9;&#9;c-6.36,0.463-10.865,6.977-11.474,15.097C610.475,413.478,611.413,412.604,612.387,411.767z M659.491,396.065&#10;&#9;&#9;&#9;c-0.402,0-0.806,0-1.208,0c-0.169,0.975,0.571,1.04,0.604,1.811c0.402,0,0.806,0,1.208,0&#10;&#9;&#9;&#9;C660.264,396.901,659.524,396.836,659.491,396.065z M629.9,397.273c0.048,2.367,1.064,3.767,1.812,5.435&#10;&#9;&#9;&#9;C633.517,402.424,631.98,397.426,629.9,397.273z M675.192,417.805c0.375-3.78-2.963-3.609-1.208-7.247&#10;&#9;&#9;&#9;c-7.246-2.015-8.998-9.521-16.909-10.87c-0.802-0.606-2.247-0.571-2.415-1.812c0.447,5.522,7.221,7.25,11.473,10.871&#10;&#9;&#9;&#9;C669.511,411.622,671.525,415.819,675.192,417.805z M625.672,400.292c0.739,0.86,2.305,1.373,3.02,0.604&#10;&#9;&#9;&#9;C628.631,399.359,626.441,399.469,625.672,400.292z M622.652,403.916c-0.375-1.104-2.522,1.043-2.415,2.415&#10;&#9;&#9;&#9;C621.655,406.138,621.589,404.461,622.652,403.916z M678.815,410.558c-0.773,3.655-2.286,6.57-1.811,11.474&#10;&#9;&#9;&#9;c0.882-1.533,2.507-2.324,3.02-4.227c1.333,0.075,0.256,2.562,0.604,3.623c2.397,0.074,1.188-5.222,0-5.435&#10;&#9;&#9;&#9;C681.404,414.141,681.408,410.717,678.815,410.558z M733.77,421.428C732.209,419.349,732.311,424.534,733.77,421.428&#10;&#9;&#9;&#9;L733.77,421.428z M681.231,424.449c-0.656,0.149-0.41,1.2-1.208,1.208c1.324,9.814,4.722,20.338,7.247,30.194&#10;&#9;&#9;&#9;c0.84,3.282-0.146,8.012,3.624,9.662c1.313-4.304-1.942-8.056-3.021-12.078C685.378,444.118,683.889,433.922,681.231,424.449z&#10;&#9;&#9;&#9; M721.088,437.129c0.999-1.752-0.967,1.637-1.812,1.812C719.951,440.706,721.239,438.173,721.088,437.129z M720.484,457.059&#10;&#9;&#9;&#9;c-0.253-1.344-3.205-0.474-3.624,0C717.605,458.893,718.938,456.404,720.484,457.059z M694.517,467.325&#10;&#9;&#9;&#9;c-0.521,2.095-2.388,2.847-3.623,4.227c-0.848,13.791-7.133,31.134-6.039,45.292c0.221,2.861,0.586,5.647,3.018,7.247&#10;&#9;&#9;&#9;c-0.935-21.67,3.426-38.043,7.851-54.351c0.771-2.854,3.612-3.635,3.02-7.851C696.734,460.17,688.946,468.974,694.517,467.325z&#10;&#9;&#9;&#9; M654.055,484.234c-1.873,0.743-3.904,1.33-4.227,3.624c1.232-0.179,1.185-1.634,2.416-1.812&#10;&#9;&#9;&#9;c-0.586,3.998-1.021,8.303,0.604,11.475c1.381,2.468-1.324-7.694,0.604-9.663c0.951,5.088,1.245,10.833,3.019,15.097&#10;&#9;&#9;&#9;c1.821-1.279-1.611-5.574,0.604-7.247c0.908,3.521,1.445,7.413,2.416,10.87c1.296-3.523-1.378-8.274-1.208-12.682&#10;&#9;&#9;&#9;c2.763,2.672,1.799,9.071,3.624,12.682C669.213,497.252,659.56,489.403,654.055,484.234z M650.432,492.688&#10;&#9;&#9;&#9;c-0.832-1.922-0.598,2.134-0.604,3.02C650.66,497.629,650.426,493.573,650.432,492.688z M798.387,498.728&#10;&#9;&#9;&#9;c-1.122,1.897-3.088,2.951-3.624,5.435c-1.771-0.513,0.786-1.52,0-3.02c-1.458,1.763-3.263,3.18-3.624,6.04&#10;&#9;&#9;&#9;c0.793-0.214,0.95-1.063,1.812-1.208c-0.269,1.542-0.846,2.776-1.812,3.624c0.9,1.99,1.705-1.027,2.416-1.208&#10;&#9;&#9;&#9;c-0.88,4.825-7.092,7.307-6.039,12.078c5.838-3.317,10.174-10.839,10.87-18.117C798.267,503.605,796.974,499.935,798.387,498.728z&#10;&#9;&#9;&#9; M656.471,512.013c0.901-6.341-5.344-10.756-10.87-12.681C649.141,503.643,653.792,506.841,656.471,512.013z M644.393,499.935&#10;&#9;&#9;&#9;c-0.948,1.381,1.514,4.502,3.624,4.832C646.499,503.467,645.767,501.38,644.393,499.935z M792.349,501.143&#10;&#9;&#9;&#9;c-1.29-0.282-1.151,0.864-1.208,1.812c0.489-0.114,0.602-0.605,1.208-0.604C792.349,501.948,792.349,501.545,792.349,501.143z&#10;&#9;&#9;&#9; M774.835,504.767c-1.027-0.222-1.139,0.471-1.208,1.208c0.513-0.112,0.57,0.235,0.604,0.604&#10;&#9;&#9;&#9;C774.939,506.48,774.741,505.477,774.835,504.767z M641.374,512.013c2.123-2.244,3.873,3.409,6.039,1.208&#10;&#9;&#9;&#9;c-1.536-1.885-3.848-2.997-6.039-4.228c-0.795,1.62-3.828,1.004-5.435,1.812c1.706,2.722,5.295,3.562,9.662,3.624&#10;&#9;&#9;&#9;C643.972,513.843,643.256,512.344,641.374,512.013z M755.51,513.221c-2.147,2.577,2.496,4.634,4.228,6.642&#10;&#9;&#9;&#9;c3.074,3.568,5.053,8.986,8.454,11.475c-0.483-3.341-1.6-6.05-3.019-8.454c1.232-1.581,1.265,3.123,3.624,2.415&#10;&#9;&#9;&#9;C767.33,518.417,760.153,515.031,755.51,513.221z M753.698,520.468c1.808,3.023,4.538,5.125,6.643,7.851&#10;&#9;&#9;&#9;C760.094,526.14,757.064,521.539,753.698,520.468z M759.134,522.884c-2.642-2.39-3.388-6.677-6.643-8.455&#10;&#9;&#9;&#9;C753.589,518.364,755.698,521.285,759.134,522.884z M646.205,516.844c-4.052,3.798-8.744,6.956-12.078,11.474&#10;&#9;&#9;&#9;c7.651,2.97,14.003-4.59,19.325-7.851c-5.26-0.222-8.94,6.355-15.702,6.643c4.893-2.757,10.132-5.166,14.493-8.455&#10;&#9;&#9;&#9;c1.52,0.445,5.022,0.528,5.436-1.812c-9.828-3.099-17.385,0.478-22.345,6.643C638.948,523.669,641.047,517.126,646.205,516.844z&#10;&#9;&#9;&#9; M658.887,519.26c1.735,0.871,6.437-0.767,9.058,0.603C667.137,516.78,660.758,518.062,658.887,519.26z M669.757,518.656&#10;&#9;&#9;&#9;c2.856,2.78,6.844,4.43,9.058,7.851c-0.877,0.903-4.052-1.686-6.039,0c2.945,2.289,9.013,1.454,10.87,4.831&#10;&#9;&#9;&#9;c1.828-0.186,2.158-1.869,4.831-1.208c-0.786-2.066-4.737-5.239-6.643-2.416c-2.257-0.751-1.135-3.084-1.811-4.227&#10;&#9;&#9;&#9;C674.909,523.543,675.729,518.81,669.757,518.656z M774.835,519.26C772.217,519.511,775.471,522.765,774.835,519.26&#10;&#9;&#9;&#9;L774.835,519.26z M657.679,524.695c1.464,1.357,2.35-0.921,4.227-1.208c3.658-0.559,7.819,1.104,10.87,1.812&#10;&#9;&#9;&#9;C672.027,518.358,659.995,521.241,657.679,524.695z M770.004,523.487c1.203,3.659,1.203,4.795,0,8.455&#10;&#9;&#9;&#9;C774.767,533.248,776.823,523.468,770.004,523.487z M792.349,524.695c-2.45,1.424-0.432,1.521-3.624,0.604&#10;&#9;&#9;&#9;c0.47,0.537,0.649,1.363,0.604,2.416c1.409,0,2.817,0,4.227,0C793.298,526.563,791.831,526.622,792.349,524.695z M641.978,533.15&#10;&#9;&#9;&#9;c2.797-3.443,9.799-2.682,11.475-7.248c-4,2.846-9.655,4.034-14.494,6.04c3.591,4.922,12.856,0.672,15.097-4.228&#10;&#9;&#9;&#9;C650.04,529.866,646.639,533.321,641.978,533.15z M779.667,526.507c-2.744,1.781-4.917,4.214-4.832,7.246&#10;&#9;&#9;&#9;C777.286,532.179,778.198,529.065,779.667,526.507z M661.303,528.318c-5.955,4.11-11.417,8.713-13.891,16.306&#10;&#9;&#9;&#9;c5.015-6.662,9.744-13.607,18.721-16.306c-2.672-1.23-6.111-1.75-9.058,0c-3.301,1.959-5.562,7.019-8.454,9.059&#10;&#9;&#9;&#9;c-1.206,0.849-3.64-1.181-3.02,1.812c1.199-0.007,0.768-1.647,2.416-1.208c0.636,2.027-2.617,3.564,0,2.415&#10;&#9;&#9;&#9;c1.137-2.486,3.188-4.059,4.227-6.643c2.793-0.829,4.492-2.754,6.039-4.83C659.989,529.421,659.847,528.072,661.303,528.318z&#10;&#9;&#9;&#9; M664.925,537.377c-2.128-1.299-4.28,2.545-6.643,3.019c0.181-2.248,6.112-3.944,7.851-6.643&#10;&#9;&#9;&#9;c-6.031,1.014-8.344,5.747-12.681,8.455c3.385-6.68,11.049-9.081,17.512-12.682c-3.791-0.16-8.446,1.654-11.474,3.624&#10;&#9;&#9;&#9;c-5.079,3.303-8.446,9.685-10.87,15.097c5.475-3.382,12.845-4.869,16.909-9.662C664.762,537.482,662.579,539.01,664.925,537.377z&#10;&#9;&#9;&#9; M804.426,529.526c-4.63,0-9.26,0-13.89,0c1.26,0.954,3.176,1.253,5.435,1.208c-4.386,1.854-11.694,0.785-16.305,2.416&#10;&#9;&#9;&#9;C788.221,536.842,799.295,536.443,804.426,529.526z M669.757,531.942c3.62,5.035,11.163,6.149,18.116,7.851&#10;&#9;&#9;&#9;C685.837,532.692,678.163,527.587,669.757,531.942z M687.873,531.942c0.05,4.177,3.685,4.771,3.624,9.058&#10;&#9;&#9;&#9;c1.711,0.101,2.517,1.106,4.227,1.208C696.546,537.511,692.028,533.607,687.873,531.942z M774.231,534.357&#10;&#9;&#9;&#9;c-2.563-0.148-3.252,1.579-6.039,1.208c-2.606,6.25-7.327,10.387-10.266,16.306C763.958,546.629,769.864,541.262,774.231,534.357z&#10;&#9;&#9;&#9; M684.25,547.644c4.956,4.101,9.613,8.504,14.494,12.682c-1.557-4.286-7.766-9.141-10.871-13.891&#10;&#9;&#9;&#9;c5.758,4.71,10.326,10.61,15.702,15.701c-0.295,1.906,1.088,2.133,0.604,4.228c2.502-6.157-3.35-15.894-7.246-19.929&#10;&#9;&#9;&#9;c-5.536-5.732-15.309-7.045-25.968-8.454c4.095,7.982,9.915,14.24,16.909,19.324c-3.722-5.335-9.073-9.042-11.473-15.702&#10;&#9;&#9;&#9;c3.976,3.7,6.307,8.974,10.266,12.682c2.366,2.215,5.595,3.724,8.455,5.436C692.188,555.003,686.872,552.671,684.25,547.644z&#10;&#9;&#9;&#9; M669.757,537.981c-0.975-0.171-1.041,0.571-1.812,0.604c0.874,2.69-0.204,3.743,0.604,6.039c3.688-0.941,4.239,6.132,8.455,6.642&#10;&#9;&#9;&#9;C674.651,546.774,670.565,544.016,669.757,537.981z M646.205,542.812c-0.486,0.319-0.98,0.629-1.812,0.603&#10;&#9;&#9;&#9;c0.32,0.486,0.63,0.981,0.604,1.812C645.807,544.83,646.122,543.936,646.205,542.812z M668.549,545.228c0,1.208,0,2.416,0,3.624&#10;&#9;&#9;&#9;c4.537,1.501,5.826,6.251,9.662,8.454C676.858,553.822,672.18,548.446,668.549,545.228z M673.984,557.909&#10;&#9;&#9;&#9;c3.252,1.58,5.511,4.151,8.455,6.039c-0.612-2.017-4.97-5.488-7.851-7.247c-1.181-2.443-2.497-4.75-4.831-6.039&#10;&#9;&#9;&#9;c0.86,5.984,3.771,9.916,8.455,12.078C677.68,560.252,674.159,560.755,673.984,557.909z M753.095,551.871&#10;&#9;&#9;&#9;c-2.137-0.325-2.646,0.977-3.624,1.812c-0.069,2.687,0.516,4.718,3.624,4.227C752.814,555.093,754.283,554.029,753.095,551.871z&#10;&#9;&#9;&#9; M770.004,567.572c5.152,0.488,11.395,5.108,15.701,8.455c0.585-3.815-6.008-5.66-9.058-7.851&#10;&#9;&#9;&#9;c2.895,0.134,7.869,3.396,10.87,5.435c-0.813-2.381-6.124-5.872-11.474-8.455c-4.886-2.358-11.828-5.985-15.702-4.83&#10;&#9;&#9;&#9;c0.214-0.064,0.39,4.861-1.208,1.208c-0.112,4.334,9.734,5.777,13.89,8.454c1.69,1.128,2.735,2.901,5.436,3.019&#10;&#9;&#9;&#9;C776.818,570.017,772.848,569.358,770.004,567.572z M777.854,560.326c-0.088,1.347-1.521-0.784-3.02,0&#10;&#9;&#9;&#9;c2.189,1.232,4.316,2.526,6.039,4.227c-0.552,1.642-1.123-1.609-3.02-0.604c4.483,4.172,10.279,7.033,14.494,11.475&#10;&#9;&#9;&#9;c-3.697-12.649-12.722-25.594-28.988-21.74c1.907,1.504,6.847,0.434,9.663,2.415c-0.188,0.819-1.512,0.5-2.415,0.604&#10;&#9;&#9;&#9;C772.291,558.643,775.633,558.922,777.854,560.326z M715.049,571.799c1.941,0.531,0.828-1.99,2.417-1.812&#10;&#9;&#9;&#9;c0.499,1.707-0.852,1.565-0.604,3.019c7.539-7.961,19.634-11.365,32.61-13.889c-1.785-2.995-7.027-2.105-10.266-1.208&#10;&#9;&#9;&#9;C730.072,560.44,718.459,565.209,715.049,571.799z M678.815,563.345c0.552,1.058,1.123,2.097,3.02,1.811&#10;&#9;&#9;&#9;C681.922,563.458,680.356,563.414,678.815,563.345z M762.153,566.364c2.487,3.752,8.748,3.732,11.474,7.247&#10;&#9;&#9;&#9;c0.65-1.042-4.004-4.364-6.039-5.435C765.838,567.255,763.504,567.199,762.153,566.364z M708.406,569.384&#10;&#9;&#9;&#9;c-1.333-2.061-1.367,2.199-1.811,3.02C709.136,573.334,706.69,569.278,708.406,569.384z M713.237,569.384&#10;&#9;&#9;&#9;c-0.604,0-1.208,0-1.812,0c-1.676,4.361-3.799,8.277-6.642,11.474C711.102,584.241,715.704,577.29,713.237,569.384z&#10;&#9;&#9;&#9; M696.933,570.591c2.327,2.906,2.113,8.354,6.039,9.663c-0.109-1.182-1.188-4.071-2.416-6.039&#10;&#9;&#9;&#9;C699.692,572.832,698.211,571.072,696.933,570.591z M704.783,578.442c-0.813-3.414-3.393-5.062-5.436-7.246&#10;&#9;&#9;&#9;C700.849,573.921,701.871,577.127,704.783,578.442z M710.822,583.273c-5.402,1.438-1.574,11.453-2.417,15.097&#10;&#9;&#9;&#9;C711.831,596.011,709.182,588.527,710.822,583.273z M733.77,598.975c-0.759-1.026-4.789-0.519-4.227,3.02&#10;&#9;&#9;&#9;C731.726,601.761,732.426,600.046,733.77,598.975z M712.03,598.975C709.413,599.226,712.666,602.479,712.03,598.975&#10;&#9;&#9;&#9;L712.03,598.975z M741.016,599.578c-0.257,1.668,2.252,0.567,2.417,1.812C745.215,600.519,742.713,598.958,741.016,599.578z&#10;&#9;&#9;&#9; M734.374,600.182c0.513,0.896,1.52,1.298,3.02,1.208C737.522,599.594,735.24,599.26,734.374,600.182z M679.419,616.488&#10;&#9;&#9;&#9;c1.809,0.381,4.287-3.753,5.436-6.04C681.775,611.194,681.871,615.115,679.419,616.488z M690.894,602.598&#10;&#9;&#9;&#9;c0.229,2.455-5.264,4.39-6.039,7.851c3.978-2.061,6.309-5.768,10.266-7.851c-2.846,5.009-11.924,9.009-14.494,16.306&#10;&#9;&#9;&#9;c2.108-0.106,3.039-1.389,3.624-3.02c4.441-0.39,8.11-1.553,10.87-3.624c0.794-3.834,4.212-5.049,6.039-7.851&#10;&#9;&#9;&#9;c0.195-2.558-2.436-3.578,0.604-4.227c-2.771-1.542-6.88,0.754-8.455,2.416c-5.954-2.88-9.902,5.467-12.682,9.663&#10;&#9;&#9;&#9;c-1.453-5.888,6.009-8.077,8.455-12.078c-7.33-1.414-12.332,7.72-10.267,15.702C682.381,610.995,686.232,606.39,690.894,602.598z&#10;&#9;&#9;&#9; M708.406,600.182c-3.042,0.292,0.313,2.292,0,3.624C710.241,603.061,707.751,601.729,708.406,600.182z M747.056,600.787&#10;&#9;&#9;&#9;c0.263,0.743,0.772,1.24,1.811,1.208C749.149,600.705,748.004,600.843,747.056,600.787z M738.601,600.787&#10;&#9;&#9;&#9;c1.959,3.28,9.138,6.56,14.494,8.454C749.123,605.563,743.741,603.296,738.601,600.787z M725.316,609.241&#10;&#9;&#9;&#9;c5.216-2.29,8.826-7.339,15.097-4.227C738.649,600.369,725.356,602.975,725.316,609.241z M715.049,615.279&#10;&#9;&#9;&#9;c2.648-3.665-1.42-7.288-1.812-11.473c-1.713-0.104-1.178,2.042-3.623,1.208c-0.289,1.899,0.86,2.36,1.208,3.624&#10;&#9;&#9;&#9;c0.655-0.15,0.409-1.201,1.208-1.208c1.958,0.277-0.131,1.709,0,2.416c0.191,1.04,0.862-0.116,0.604-0.604&#10;&#9;&#9;&#9;C713.392,610.674,712.955,613.727,715.049,615.279z M742.225,605.618c0.264,0.743,0.772,1.239,1.812,1.208&#10;&#9;&#9;&#9;C743.772,606.082,743.263,605.585,742.225,605.618z M734.978,606.825c-0.048-0.057,0.061-0.584,0-0.604&#10;&#9;&#9;&#9;C730.703,604.795,738.289,609.173,734.978,606.825z M741.621,608.033c0.6,3.226,5.144,2.505,7.247,4.227&#10;&#9;&#9;&#9;C750.788,608.912,743.402,609.688,741.621,608.033z M740.413,609.241c-2.564,1.333,4.584,4.948,7.851,4.831&#10;&#9;&#9;&#9;C746.364,611.743,741.744,612.138,740.413,609.241z M719.276,613.469c-2.406-0.395-1.73,2.295-1.811,4.227&#10;&#9;&#9;&#9;C720.691,618.156,720.979,614.898,719.276,613.469z M721.692,619.507c-1.638,0.173-2.847,0.776-3.624,1.812&#10;&#9;&#9;&#9;c1.787,4.252,2.476,9.602,8.455,9.662C726.981,627.389,722.711,623.604,721.692,619.507z M686.062,650.91&#10;&#9;&#9;&#9;c3.625-1.035,7.488,0.745,10.266-1.812c0.284-0.629-3.277-0.126-3.624,0.604c-1.447,0.24,0.335-2.75-1.811-1.812&#10;&#9;&#9;&#9;c6.776-3.691,7.958-12.977,15.097-16.305c-0.319,2.71-6.221,5.044-6.643,9.663c-1.743,1.478-3.443,2.999-4.227,5.435&#10;&#9;&#9;&#9;c2.581,0.024,3.04-2.71,4.227-4.227c2.427-3.101,5.178-6.133,7.851-9.058c2.175,0.16,2.911-1.116,4.832-1.208&#10;&#9;&#9;&#9;c-3.739,3.106-8.854,4.835-10.266,10.267c3.665-4.186,7.173-8.528,14.493-9.058c0.719-1.795-2.545-2.595-3.02-1.208&#10;&#9;&#9;&#9;c-0.312-0.685-0.425-2.02-2.415-2.415c-2.064-0.454-0.768,2.454-3.02,1.812c-1.726-0.314,0.975-0.893,1.208-1.208&#10;&#9;&#9;&#9;c-1.48-2.457-2.955,0.158-5.436,0c-4.939,5.326-8.449,12.083-13.285,17.512C687.988,648.004,686.316,648.748,686.062,650.91z&#10;&#9;&#9;&#9; M686.666,647.287c5.371-1.875,8.683-5.812,10.267-11.475c1.613-1.608,3.25-3.191,5.435-4.227&#10;&#9;&#9;&#9;c-0.098-0.708-1.101-0.509-1.812-0.604c0.599-1.616,3.68-0.75,3.624-3.02c-12.862-0.583-17.319,7.24-18.721,18.118&#10;&#9;&#9;&#9;C687.694,645.767,686.977,645.049,686.666,647.287z M724.107,633.397c0.018,2.518,2.351,2.718,4.228,1.812&#10;&#9;&#9;&#9;C728.191,632.816,725.859,632.616,724.107,633.397z M719.88,632.792c-9.926,2.787-5.399,16.913-5.435,27.176&#10;&#9;&#9;&#9;c2.119-1.997,0.931-6.662,0.603-9.662c2.467,1.935,0.965,9.078,0.604,12.078c3.976-2.077,1.913-9.836,1.812-14.494&#10;&#9;&#9;&#9;c0.956,1.66,2.075,3.159,1.811,6.04c2.217-1.242,0.037-3.148,0.604-6.04c1.42,0.19,0.358,2.863,2.416,2.417&#10;&#9;&#9;&#9;C721.562,643.293,718.676,638.746,719.88,632.792z M713.841,635.209c-0.402,0-0.806,0-1.208,0c0,0.401,0,0.805,0,1.208&#10;&#9;&#9;&#9;c0.402,0,0.805,0,1.208,0C713.841,636.014,713.841,635.61,713.841,635.209z M707.198,638.228c-0.811,4.798-2.278,11.278,0,15.702&#10;&#9;&#9;&#9;c1.451-3.68-0.596-8.132,1.208-12.079c-0.243,4.159,0.265,11.461,1.812,15.701c1.074-5.683-1.788-12.658,0.604-18.721&#10;&#9;&#9;&#9;C709.052,640.658,709.498,637.595,707.198,638.228z M712.634,638.832c-0.402,0-0.806,0-1.208,0c0,0.805,0,1.61,0,2.416&#10;&#9;&#9;&#9;c0.402,0,0.806,0,1.208,0C712.634,640.441,712.634,639.637,712.634,638.832z M712.03,641.851&#10;&#9;&#9;&#9;c-0.692,1.471-1.185,3.823-1.208,6.039c-0.035,3.307,0.616,8.118,2.415,9.663C713.349,651.835,711.5,646.124,712.03,641.851z&#10;&#9;&#9;&#9; M704.179,644.871c-0.975-0.17-1.04,0.571-1.812,0.604c-0.449,1.859,1.657,1.161,1.208,3.02&#10;&#9;&#9;&#9;C704.909,648.418,703.831,645.932,704.179,644.871z M699.348,646.079c-1.537,0.073-2.342,0.878-2.415,2.415&#10;&#9;&#9;&#9;C698.47,648.42,699.274,647.615,699.348,646.079z M720.484,655.741c-1.816-0.608-1.07,1.346-1.208,2.416&#10;&#9;&#9;&#9;C720.338,658.011,720.653,657.117,720.484,655.741z" style="fill: rgb(204, 204, 204); opacity: 1;"/>
		<path fill-rule="evenodd" clip-rule="evenodd" fill="#004159" d="M657.679,369.494&#10;&#9;&#9;&#9;C658.509,367.556,655.696,374.119,657.679,369.494L657.679,369.494z" style="fill: rgb(204, 204, 204); opacity: 1;"/>
		<path fill-rule="evenodd" clip-rule="evenodd" fill="#004159" d="M661.303,370.701c0.811-1.658-1.843,2.192-2.416,3.02&#10;&#9;&#9;&#9;C659.869,375.241,660.847,371.702,661.303,370.701z" style="fill: rgb(204, 204, 204); opacity: 1;"/>
		<path fill-rule="evenodd" clip-rule="evenodd" fill="#004159" d="M650.432,403.312c1.713,0.904,3.744,1.49,6.04,1.812&#10;&#9;&#9;&#9;C657.624,405.848,653.248,402.553,650.432,403.312z" style="fill: rgb(204, 204, 204); opacity: 1;"/>
		<path fill-rule="evenodd" clip-rule="evenodd" fill="#004159" d="M654.055,406.331c-0.048-0.057,0.061-0.584,0-0.604&#10;&#9;&#9;&#9;C649.78,404.302,657.367,408.679,654.055,406.331z" style="fill: rgb(204, 204, 204); opacity: 1;"/>
		<path fill-rule="evenodd" clip-rule="evenodd" fill="#004159" d="M654.055,413.578c-1.124,0.578-2.017-1.808-2.415,0&#10;&#9;&#9;&#9;c-0.186,1.393,1.745,0.67,1.812,1.812c-2.402,0.188-3.034-1.395-5.436-1.208c-0.026-0.831,0.284-1.327,0.604-1.812&#10;&#9;&#9;&#9;c-1.418-0.193-2.267-0.954-4.228-0.603c0.605-1.871-3.213-2.346-1.208-3.624c0.243,1.77,3.543,0.482,4.227,1.812&#10;&#9;&#9;&#9;c-0.736,0.068-1.429,0.181-1.208,1.208C648.6,411.804,654.486,412.119,654.055,413.578z M650.432,412.37c-0.401,0-0.805,0-1.208,0&#10;&#9;&#9;&#9;c-0.282,1.29,0.863,1.15,1.812,1.208C650.921,413.088,650.43,412.976,650.432,412.37z" style="fill: rgb(204, 204, 204); opacity: 1;"/>
		<path fill-rule="evenodd" clip-rule="evenodd" fill="#004159" d="M655.263,413.578c2.594,1.031,4.255,2.992,7.851,3.02&#10;&#9;&#9;&#9;C661.176,414.912,658.364,414.1,655.263,413.578z" style="fill: rgb(204, 204, 204); opacity: 1;"/>
		<path fill-rule="evenodd" clip-rule="evenodd" fill="#004159" d="M654.055,415.389&#10;&#9;&#9;&#9;C656.688,417.805,658.787,415.708,654.055,415.389L654.055,415.389z" style="fill: rgb(204, 204, 204); opacity: 1;"/>
		<path fill-rule="evenodd" clip-rule="evenodd" fill="#004159" d="M695.724,550.059c0.208,2.22,3.291,6.765,6.04,8.455&#10;&#9;&#9;&#9;C700.238,555.207,698.485,552.129,695.724,550.059z" style="fill: rgb(204, 204, 204); opacity: 1;"/>
		<path fill-rule="evenodd" clip-rule="evenodd" fill="#004159" d="M682.438,544.02c-1.887,0.974,1.239,1.912,1.208,3.019&#10;&#9;&#9;&#9;C685.036,546.563,682.608,544.927,682.438,544.02z" style="fill: rgb(204, 204, 204); opacity: 1;"/>
		<path fill-rule="evenodd" clip-rule="evenodd" fill="#004159" d="M629.295,635.812c-3.15,3.465-0.195,9.615-1.208,13.286&#10;&#9;&#9;&#9;c-0.482-1.934-1.784-3.047-1.812-5.436c-5.782-2.27-7.473-8.629-12.682-11.474c0.676,3.204-3.145,0.069-3.624,3.021&#10;&#9;&#9;&#9;c1.342,2.608,1.641,6.488,0,8.454c-0.725-5.717-1.523-11.36-1.208-18.116c3.816-0.597,4.525,1.916,5.436,4.227&#10;&#9;&#9;&#9;c-0.949,0.058-2.095-0.081-1.812,1.208c1.229,1.211,1.608,0.157,2.415-0.604c3.431,4.219,5.893,9.406,11.475,11.474&#10;&#9;&#9;&#9;c-0.351-3.896,1.212-8.291,2.415-10.266c2.052-3.367,1.792-2.457,4.228-4.227c2.571-1.871,3.062-4.005,4.831-4.228&#10;&#9;&#9;&#9;c2.675-0.336,5.055,1.718,7.247,3.624c-2.39,0.779-1.233-1.988-3.624-1.208c0.286,3.314-0.267,8.475,0.604,12.682&#10;&#9;&#9;&#9;c-3.235-1.504-2.07-10.713-1.208-12.682c-1.15-0.26-1.518-1.301-3.02-1.208c-3.462,1.834-5.271,6.247-7.247,7.851&#10;&#9;&#9;&#9;c0.311,2.306,0.708,4.527,2.416,5.436c0.789-2.56-1.842-4.784,0.603-5.436c1.191,0.419-0.148,3.37,1.208,3.624&#10;&#9;&#9;&#9;c0.277-2.819-1.169-3.86,0.604-5.435c1.368,6.282,0.713,14.586,3.02,19.929c1.393-1.199,0.671,0.151,1.812,0.604&#10;&#9;&#9;&#9;c-1.464-2.57-2.411-13.902,1.812-10.267c0.327,2.403-2.138-0.651-1.812,2.416c-0.125,1.735,0.154,3.067,1.208,3.623&#10;&#9;&#9;&#9;c0.235-1.576,0.31-3.313,1.208-4.227c1.161,3.129-1.502,8.363,1.208,10.87c0.89-8.36,0.128-15.71-0.604-24.759&#10;&#9;&#9;&#9;c3.37,1.8,1.604,7.657,1.812,12.078c0.279,5.896,0.43,12.128,0.604,15.701c-0.588-3.808,1.619-4.823,1.208-8.455&#10;&#9;&#9;&#9;c2.456-0.655-0.999,5.057,1.208,6.04c1.878-6.744,2.98-12.892,0-18.118c-0.589,3.437,1.306,9.358-1.208,10.87&#10;&#9;&#9;&#9;c-0.588-7.561,0.952-13.109-0.604-17.512c5.286,4.215,5.658,16.172,4.831,22.948c1.285-2.137,2-4.845,3.624-6.643&#10;&#9;&#9;&#9;c0.709,1.602-1.158,3.556,0,3.624c1.086-1.732,2.268-3.369,3.623-4.831c-2.733,8.136-9.245,12.495-13.285,19.324&#10;&#9;&#9;&#9;c0.375,2.646,0.839,5.201,2.415,6.643c0.622-2.215,2.632-6.201,4.228-5.435c-1.165,1.471-3.605,4.822-2.416,6.642&#10;&#9;&#9;&#9;c3.054-5.804,6.69-11.025,10.267-16.305c-0.329,4.109-3.738,8.327-3.624,10.87c4.087-5.125,8.167-16.636,4.831-23.552&#10;&#9;&#9;&#9;c-0.832-0.027-1.326,0.285-1.812,0.604c0.583-4.471-3.699-1.053-3.624-4.228c1.67-0.431,3.984-4.282,1.208-5.435&#10;&#9;&#9;&#9;c-1.333-0.068-0.938,4.621-2.416,2.415c1.259-0.956,0.204-4.225,1.208-5.435c4.579,0.091,6.641,5.5,4.228,9.059&#10;&#9;&#9;&#9;c0.953,1.462,2.161,2.67,3.623,3.624c0.434,4.042,0.53,7.049,0,10.266c-1.863,11.315-12.003,18.76-12.682,27.176&#10;&#9;&#9;&#9;c-0.145,1.806,1.002,4.532,1.208,7.247c0.631,8.302,1.968,20.056-1.812,23.552c-0.285-7.389-0.039-13.108-0.604-19.325&#10;&#9;&#9;&#9;c-0.629-6.933-3.592-12.23-4.832-18.117c-1.115-5.301-1.444-8.788-3.623-11.474c-1.659-2.045-5.444-4.911-8.455-6.643&#10;&#9;&#9;&#9;c-1.209-0.696-2.413-0.537-3.624-1.208c-8.017-4.443-12.633-11.947-16.305-19.324c7.609,4.669,10.263,14.294,18.721,18.116&#10;&#9;&#9;&#9;c-0.579-4.856-1.22-9.65-1.812-14.494c3.891,3.154,0.942,13.15,4.832,16.306C633.303,647.006,633.943,641.725,629.295,635.812z&#10;&#9;&#9;&#9; M634.731,639.436c-0.23-1.15-0.769,0.385-0.604,1.208C634.356,641.793,634.896,640.258,634.731,639.436z M638.958,650.91&#10;&#9;&#9;&#9;c-3.162,0.511-1.063,3.618-0.604,5.435C639.725,655.702,638.584,652.549,638.958,650.91z" style="fill: rgb(204, 204, 204); opacity: 1;"/>
		<path fill-rule="evenodd" clip-rule="evenodd" fill="#004159" d="M696.933,630.377c-4.869,1.975-6.487,7.201-9.663,10.87&#10;&#9;&#9;&#9;c2.514,0.085,4.695-5.361,6.643-7.851C694.507,631.977,696.937,632.394,696.933,630.377z" style="fill: rgb(204, 204, 204); opacity: 1;"/>
		<path fill-rule="evenodd" clip-rule="evenodd" fill="#004159" d="M699.952,631.585c-5.306,0.134-6.853,9.248-11.475,12.078&#10;&#9;&#9;&#9;C693.559,643.304,694.934,634.019,699.952,631.585z" style="fill: rgb(204, 204, 204); opacity: 1;"/>
		<path fill-rule="evenodd" clip-rule="evenodd" fill="#004159" d="M642.581,675.065c2.273,3.859,3.921,12.459,4.831,18.721&#10;&#9;&#9;&#9;c0.94,6.464,0.582,12.131,1.208,17.513c-3.099,0.078-1.902-4.138-4.228-4.832c0.972-8.635-2.181-15.638-1.812-21.74&#10;&#9;&#9;&#9;c-1.593-2.559-4.66-5.645-6.039-6.039c-1.522-0.437-5.194-1.884-6.039-2.417c-9.54-6.016-17.693-20.016-19.324-31.402&#10;&#9;&#9;&#9;c2.836,4.41,3.861,10.632,7.851,13.89c0.457-2.304-2.896-3.902-1.208-5.436c5.292,9.204,13.966,18.24,22.344,22.345&#10;&#9;&#9;&#9;c-2.774-4.275-9.481-7.825-10.266-12.079C632.961,668.715,639.417,669.691,642.581,675.065z M619.03,659.968&#10;&#9;&#9;&#9;c3.751,8.125,10.924,12.829,18.117,17.513C631.045,671.706,625.247,665.628,619.03,659.968z" style="fill: rgb(204, 204, 204); opacity: 1;"/>
		<path fill-rule="evenodd" clip-rule="evenodd" fill="#004159" d="M753.095,697.41c-2.482,1.946-4.285,4.572-6.643,6.643&#10;&#9;&#9;&#9;c0.348,1.061-0.73,3.548,0.604,3.623c-0.781,2.843-2.774,4.472-3.624,7.247c5.063-1.056,3.072-5.975,4.227-9.662&#10;&#9;&#9;&#9;C748.744,701.799,752.295,701.655,753.095,697.41z" style="fill: rgb(204, 204, 204); opacity: 1;"/>
	</g></svg>