<?xml version="1.0" encoding="utf-8"?>
<svg viewBox="486.9000244140625 160.39999389648438 102.699951171875 141.89999389648438" width="102.699951171875" height="141.89999389648438" xmlns="http://www.w3.org/2000/svg"><g transform="matrix(1, 0, 0, 1, 0, 0)">
		<path class="st5" d="M519.2,192.6c-2.6,2.3-2.2,4.8-1.7,8.3c0.4,5.5-4.3,9.7-7.1,12c2.5-11.7,5.7-17,5.7-17&#10;&#9;&#9;&#9;c-1.7,2.1-4,6.4-5.9,16.7c0.9-4.2-0.4-7.5-0.2-9.4C510.2,195.9,517,192.7,519.2,192.6z" style="fill-rule: evenodd; clip-rule: evenodd; fill: rgb(204, 204, 204); opacity: 1;"/>
		<path class="st5" d="M516,225.1c-4.7,6-2.3,10.4,1.5,11.5c8.8,2.5,13.9-12,5.4-19.2c-7.7-6.6-23.1-5.5-24.9,12.2&#10;&#9;&#9;&#9;c-0.1,5.1,1.7,9.1,4.5,12c-0.5,2.4-1.8,4.4-4,5.6c-2.6,1.4-6.4,0.8-7-1.9c-0.9-4.6,5.1-3.7,3.9-1.2c-0.3,0.5-0.4,0.9-1.5,1.3&#10;&#9;&#9;&#9;c4.6-0.9,0.3-8.1-4.2-3.7c-2.8,2.7-0.1,10.1,5.3,8.7c-3.4,1.2-1.4,6.6,2.9,5c2.9-1.1,5.5-6.6,6-9.1c0.2-1,0.4-2,0.5-3&#10;&#9;&#9;&#9;c5.1,3.7,12.6,4.4,19.6,1.7c-7.5,10.4-11.4,22.8-2.8,34c2.1,2.1,4.1,4.3,6.2,6.4c5.9,5.7,9,8.7,11.9,16.9&#10;&#9;&#9;&#9;c1.4-5.9-5.9-13.7-9.4-18.3c-0.7-0.9-0.7-1.7-0.7-2.5c0-0.5,0-0.8,0.9-0.2c1.1,0.6,2.1,1.1,3.2,1.7c1.1,0.4,1.6,0.2,0.2-1.8&#10;&#9;&#9;&#9;c-1.1-1.4-2.4-2.7-4.2-3.6c-2.5-1.5-4.9-3-7.4-4.6c-3.7-4.1-3.2-8.3-0.8-13c0.8-1,1-0.3,1.2,0.5c0.3,1.2,0.8,4.3,1.7,5&#10;&#9;&#9;&#9;c0.1-0.8,0.2-1.7,0.3-2.5c-0.1-2.6-0.2-5.2-0.3-7.9c-0.1-2.7,0.2-5.2,0.7-7.5c0.7-1.9,1.4-2.7,2.2-3.5c1.1-0.6,1.2-0.1,1,0.7&#10;&#9;&#9;&#9;c-1.2,3.2-2.3,6.5-1.5,10.9c0.4,11.5,5.3,17,10.5,19.5c6,2.9,11.8,3,17.3-0.6c3.3-2.2,5.7-5.5,3.6-9.7c-0.8-1.5-2.1-2.4-4-2.8&#10;&#9;&#9;&#9;c-1.6-0.2-2.7,0.6-3.4,1.9c-0.8,1.1-1.1,2.3-0.3,3.7c0.5,1,1.2,1.5,2,1.8c0.6,0.2,1.3,0.1,2.1-0.3c0.7-0.7,1.4-1.4,2.1-2.2&#10;&#9;&#9;&#9;c0.4,0.3,0.6,0.7,0.7,1.5c0.2,1.4-0.3,2.7-1.6,3.7c-2.7,2.5-5.8,3.2-9.4,3.2c-1.7,0-3.5-0.4-3.6-1.8c5.6-3.1,6.7-8.8,4-12.4&#10;&#9;&#9;&#9;c-1.7-2.2-4-3.1-6.2-2.8c-2.9,0.4-5.4,2.8-5.5,5.8c-0.1,3.2,1.9,5.2,3.8,5.4c4.6,0.5,3.8-6.8,1.3-5c0.8,0.8,0.9,1.6,0.1,2.5&#10;&#9;&#9;&#9;c-0.7,0.7-1.4,0.9-2.1,0.5c-3.1-2.3-0.6-6.1,3-6.4c2.9,0.7,5.5,3.6,4.2,6.7c-1.7,4.6-4.4,5-8.5,3c-1.9-1-3.6-2.4-4.9-4.3&#10;&#9;&#9;&#9;c-1.3-2.5-2.6-5.1-3.2-8.7c-0.4-3-0.5-6-0.2-9c0.4-2.4,1-4.8,1.8-7c2-1.8,3.4-4.3,4.8-6.8c1.1-2.4,2.1-4.8,3.2-7.2&#10;&#9;&#9;&#9;c2.3-3.6,6.6-9.3,11.6-6.9c4.4,3.2,3.4,8.4-1.3,8.8c-2.8,0.3-4.9-1.4-3.8-4.3c0.7-0.9,1.5-1.4,2.7-1.3c2.1,0.9,0.6,2.1-0.2,3.1&#10;&#9;&#9;&#9;c-0.4,0.6-0.4,0.8,0.2,0.7c2-0.6,2.4-2.4,1.9-3.8c-1.9-4.9-10.4,2.1-4,7.6c5.9,4.2,13.3-4.8,5.7-11.5c2.9-2,9.4,2.7,11.1,5.3&#10;&#9;&#9;&#9;c0.7,1.5,0.4,2.8-0.4,3.9c-0.2-1.4-0.6-2.6-2.3-3.1c-7.6,0.3-1.7,11.1,4.1,4.4c2.5-2.9,0-6.7-2.3-8.8c-3.1-2.9-8-5.1-13.3-3.9&#10;&#9;&#9;&#9;c-4.7,1.1-7.2,3.9-10.6,7c0.1-3.7,0.1-7.5,0.2-11.2c-0.3-9.8-2.3-21.1,4.8-29c3.8-2.4,8.3-2.7,11.3-0.5c4.2,3.1,4.1,9.1-0.7,11.4&#10;&#9;&#9;&#9;c-3,1.4-6.7,0.3-7.7-3.3c-0.3-1.6,0.5-3.1,2.2-4.4c0.8-0.6,1.6-0.7,2.6-0.3c1.9,1.4,1,3.4-1.3,4c1.1,1.3,2.2,0.8,2.9-0.2&#10;&#9;&#9;&#9;c2.1-3.2-1.7-6.7-4.7-5.4c-2.7,1.2-4.7,5.6-2.9,9.7c1.5,3.6,5.6,5.5,10.5,3.1c3-1.5,5.7-4.4,4.5-9.7c-1.7-7.5-11.4-8.9-15-6.6&#10;&#9;&#9;&#9;c2.2-1.6,4.9-2.7,9.9-3c7.2-0.3,18.2,8,15.9,14.9c-1.1,3.2-2.4,3.1-5,3c-6.9-0.4-11.2,3.4-10.1,11.1c3.6-6.2,2.6-5.3,9.7-6.6&#10;&#9;&#9;&#9;c3.3-0.6,4.4-1.6,5.8-4.8c1.3-3.1,1.8-6.5,0.5-9.7c-3.4-8.2-12.8-10.7-20.8-9.1c-7.1,1.4-13.2,5.4-15.1,13.3&#10;&#9;&#9;&#9;c-1,4.5-1.6,9.1-1.3,13.8c0.6,5.7,1.1,11.4,1.7,17.1c0.6,8.3-3.2,17.2-11.1,20.7c-4.2,1.3-8.1,1.4-11.9,0.2&#10;&#9;&#9;&#9;c-9.6-4.6-11.5-22.5,3.1-24.1c11-1.2,12.1,10.1,7.1,14.5c-2.8,2.5-8.5,0.2-5.7-6.2C517,225.6,517.9,224,516,225.1z" style="fill-rule: evenodd; clip-rule: evenodd; fill: rgb(204, 204, 204); opacity: 1;"/>
		<path class="st5" d="M491.9,200.5c3.4,0.5,4.4,2.9,5.8,6.1c2.6,4.9,8.8,5.9,12.4,6.3c-8.4-8.6-13.9-11.4-13.9-11.4&#10;&#9;&#9;&#9;c2.5,0.9,6.8,3.3,13.9,11c-3-3-3.7-6.5-4.8-8.1C501.3,198.5,493.9,199.4,491.9,200.5z" style="fill-rule: evenodd; clip-rule: evenodd; fill: rgb(204, 204, 204); opacity: 1;"/>
		<path class="st5" d="M589.6,172.2c-2.3,2.6-4.8,2.2-8.3,1.7c-5.5-0.4-9.7,4.3-12,7.1c11.7-2.5,17-5.7,17-5.7&#10;&#9;&#9;&#9;c-2.1,1.7-6.4,4-16.7,5.9c4.2-0.9,7.5,0.4,9.4,0.2C586.3,181.2,589.5,174.4,589.6,172.2z" style="fill-rule: evenodd; clip-rule: evenodd; fill: rgb(204, 204, 204); opacity: 1;"/>
		<path class="st5" d="M581.7,199.5c-0.5-3.4-2.9-4.4-6.1-5.8c-4.9-2.6-5.9-8.8-6.3-12.4c8.6,8.4,11.4,13.9,11.4,13.9&#10;&#9;&#9;&#9;c-0.9-2.5-3.3-6.8-11-13.9c3,3,6.5,3.7,8.1,4.8C583.7,190.1,582.8,197.5,581.7,199.5z" style="fill-rule: evenodd; clip-rule: evenodd; fill: rgb(204, 204, 204); opacity: 1;"/>
		<path class="st5" d="M577.8,160.4c-2.6,2.3-2.2,4.8-1.7,8.3c0.4,5.5-4.3,9.7-7.1,12c2.5-11.7,5.7-17,5.7-17&#10;&#9;&#9;&#9;c-1.7,2.1-4,6.4-5.9,16.7c0.9-4.2-0.4-7.5-0.2-9.4C568.8,163.6,575.5,160.4,577.8,160.4z" style="fill-rule: evenodd; clip-rule: evenodd; fill: rgb(204, 204, 204); opacity: 1;"/>
		<path class="st5" d="M550.5,168.3c3.4,0.5,4.4,2.9,5.8,6.1c2.6,4.9,8.8,5.9,12.4,6.3c-8.4-8.6-13.9-11.4-13.9-11.4&#10;&#9;&#9;&#9;c2.5,0.9,6.8,3.3,13.9,11c-3-3-3.7-6.5-4.8-8.1C559.8,166.2,552.4,167.1,550.5,168.3z" style="fill-rule: evenodd; clip-rule: evenodd; fill: rgb(204, 204, 204); opacity: 1;"/>
		<path class="st5" d="M574.4,273.9c-1.6-2.2-3.6-2-6.3-1.8c-4.3,0-7.2-3.9-8.8-6.2c8.9,2.7,12.8,5.4,12.8,5.4&#10;&#9;&#9;&#9;c-1.6-1.4-4.7-3.5-12.5-5.6c3.2,0.9,5.8,0.2,7.3,0.4C572.5,266.7,574.5,272.1,574.4,273.9z" style="fill-rule: evenodd; clip-rule: evenodd; fill: rgb(204, 204, 204); opacity: 1;"/>
		<path class="st5" d="M570,252.3c-0.6,2.6-2.5,3.2-5.1,4.1c-4,1.7-5.1,6.4-5.7,9.2c7.2-5.9,9.7-10,9.7-10c-0.9,1.9-2.9,5-9.3,10.1&#10;&#9;&#9;&#9;c2.5-2.1,5.3-2.5,6.5-3.2C571,259.7,570.8,253.9,570,252.3z" style="fill-rule: evenodd; clip-rule: evenodd; fill: rgb(204, 204, 204); opacity: 1;"/>
		<path class="st5" d="M579.6,235.5c-1.6-2.2-3.6-2-6.3-1.8c-4.3,0-7.2-3.9-8.8-6.2c8.9,2.7,12.8,5.4,12.8,5.4&#10;&#9;&#9;&#9;c-1.6-1.4-4.7-3.5-12.5-5.6c3.2,0.9,5.8,0.2,7.3,0.4C577.6,228.3,579.6,233.7,579.6,235.5z" style="fill-rule: evenodd; clip-rule: evenodd; fill: rgb(204, 204, 204); opacity: 1;"/>
		<path class="st5" d="M575.1,213.9c-0.6,2.6-2.5,3.2-5.1,4.1c-4,1.7-5.1,6.4-5.7,9.2c7.2-5.9,9.7-10,9.7-10&#10;&#9;&#9;&#9;c-0.9,1.9-2.9,5-9.3,10.1c2.5-2.1,5.3-2.5,6.5-3.2C576.1,221.2,575.9,215.5,575.1,213.9z" style="fill-rule: evenodd; clip-rule: evenodd; fill: rgb(204, 204, 204); opacity: 1;"/>
	</g></svg>