<?xml version="1.0" encoding="utf-8"?>
<svg viewBox="620.1228637695312 325.17315673828125 253.70013427734375 325.5" width="253.70013427734375" height="325.5" xmlns="http://www.w3.org/2000/svg"><g transform="matrix(1, 0, 0, 1, 26.82297706604004, -20.726844787597656)">
		<g>
			<path fill="#231F20" d="M664.8,671.4c0,0-0.9-1.4-2.7-4.1c-0.4-0.7-1-1.4-1.4-2.3c-0.5-0.9-1-1.8-1.5-2.9c-0.5-1-1.2-2.1-1.7-3.3&#10;&#9;&#9;&#9;&#9;c-0.5-1.2-1.1-2.5-1.7-3.9c-0.3-0.7-0.6-1.4-0.9-2.1c-0.3-0.8-0.5-1.5-0.8-2.3c-0.5-1.6-1.2-3.2-1.7-5c-0.5-1.8-1-3.6-1.5-5.5&#10;&#9;&#9;&#9;&#9;c-0.5-1.9-0.8-4-1.2-6.1c-1.4-8.4-1.9-18.2-0.7-28.8c1.2-10.6,4.4-21.9,10.2-32.9c5.7-11,14.3-21.3,24.6-30.4&#10;&#9;&#9;&#9;&#9;c10.3-9.1,22.2-17.2,34.6-24.9c12.4-7.8,25.2-15.4,37.1-24.3c6-4.4,11.7-9.2,17-14.4c5.3-5.2,10.2-10.8,14.2-16.9&#10;&#9;&#9;&#9;&#9;c4-6.1,7.3-12.6,9.6-19.4c2.3-6.8,3.6-13.8,3.8-20.8c0.1-1.7-0.1-3.5-0.1-5.2c0-0.9-0.2-1.7-0.3-2.6l-0.3-2.5l-0.5-2.5&#10;&#9;&#9;&#9;&#9;c-0.2-0.8-0.3-1.7-0.6-2.5l-0.8-2.4l-0.4-1.2l-0.5-1.2c-2.4-6.2-6.2-11.7-10.8-15.9c-4.7-4.2-10.3-7-16-7.7&#10;&#9;&#9;&#9;&#9;c-5.8-0.8-11.6,0.3-16.3,2.9c-2.3,1.3-4.4,3-6,4.9c-1.6,1.9-2.7,4.1-3.3,6.5c-1.3,4.7-0.8,9.8,1.1,13.8c0.9,2,2.2,3.7,3.8,5&#10;&#9;&#9;&#9;&#9;c1.5,1.3,3.3,2.2,5.2,2.8c3.8,1.1,7.8,0.6,10.7-1.1c2.9-1.6,4.7-4.5,5.5-7.4c0.7-2.9,0.3-5.7-0.8-7.8c-1.1-2-2.9-3.5-4.8-4.3&#10;&#9;&#9;&#9;&#9;c-1.8-0.8-3.6-1.1-5-1.2c-1.4,0-2.6,0.2-3.4,0.4c-0.9,0.2-1.4,0.5-1.8,0.5c-0.3,0-0.4-0.1-0.3-0.4c0.2-0.3,0.6-0.9,1.4-1.4&#10;&#9;&#9;&#9;&#9;c0.4-0.3,0.9-0.5,1.5-0.9c0.6-0.2,1.3-0.5,2.1-0.7c1.6-0.4,3.6-0.4,5.8,0c1.1,0.3,2.3,0.6,3.4,1.3c1.2,0.6,2.3,1.4,3.4,2.5&#10;&#9;&#9;&#9;&#9;c2.1,2.1,3.5,5.3,3.8,8.9c0.2,3.6-0.7,7.5-3.1,10.9c-1.2,1.7-2.8,3.3-4.7,4.4c-1.9,1.2-4.1,2-6.4,2.4c-4.6,0.8-9.8,0.1-14.3-2.7&#10;&#9;&#9;&#9;&#9;c-2.2-1.4-4.2-3.3-5.9-5.5c-1.6-2.2-2.8-4.8-3.5-7.5c-0.7-2.7-1.1-5.6-0.9-8.5c0.2-2.9,0.8-5.9,2-8.7c1.2-2.8,3-5.6,5.2-7.8&#10;&#9;&#9;&#9;&#9;c2.2-2.3,4.9-4.1,7.8-5.5c5.8-2.8,12.6-3.9,19.3-2.9c3.3,0.5,6.7,1.5,9.8,3c3.1,1.5,6.1,3.4,8.7,5.7c5.3,4.6,9.6,10.4,12.5,17&#10;&#9;&#9;&#9;&#9;c2.9,6.6,4.5,13.9,4.8,21.3c0.3,7.4-0.7,14.9-2.9,22.2c-2.1,7.3-5.3,14.3-9.3,20.9c-3.9,6.6-8.9,12.8-14.4,18.4&#10;&#9;&#9;&#9;&#9;c-5.5,5.6-11.4,10.7-17.8,15.4c-12.6,9.5-26.4,17.4-39.9,25.5c-6.8,4.1-13.5,8.2-20,12.6c-6.5,4.4-12.8,9.1-18.7,14.3&#10;&#9;&#9;&#9;&#9;c-3,2.6-5.7,5.3-8.4,8.1c-2.6,2.9-5.2,5.8-7.5,8.9c-4.5,6.2-8.4,13-11.3,20.1c-2.8,7.2-4.8,14.7-5.9,22.3l-0.4,2.9&#10;&#9;&#9;&#9;&#9;c-0.1,1-0.3,1.9-0.3,2.9c-0.1,1.9-0.2,3.8-0.3,5.7c0,3.8,0,7.7,0.4,11.5l0.2,2.9l0.4,2.8l0.4,2.8l0.2,1.4l0.3,1.4&#10;&#9;&#9;&#9;&#9;c0.4,1.8,0.9,3.7,1.3,5.5c0.6,1.8,1.1,3.6,1.7,5.4C657.5,658.4,660.8,665.2,664.8,671.4z" style="fill: rgb(204, 204, 204); opacity: 1;"/>
		</g>
		<g>
			<path fill="#231F20" d="M724.1,516.6c0,0,0.5-0.3,1.5-0.7c0.5-0.2,1.1-0.5,1.8-0.9c0.7-0.4,1.4-0.8,2.3-1.3&#10;&#9;&#9;&#9;&#9;c3.4-2.1,8.1-5.4,12.8-10.3c4.7-4.9,9.3-11.4,12.5-19.1c3.2-7.7,5-16.6,4.2-25.4c-0.3-4.4-1.3-8.7-2.8-12.7&#10;&#9;&#9;&#9;&#9;c-1.5-4-3.7-7.7-6.3-10.7c-2.7-3-5.8-5.5-9.1-7.3c-1.6-0.9-3.3-1.6-5-2.1c-0.8-0.3-1.7-0.5-2.5-0.7c-0.8-0.1-1.6-0.3-2.5-0.4&#10;&#9;&#9;&#9;&#9;c-3.2-0.4-6.3,0-9,0.7c-2.8,0.7-5.1,1.8-7.1,3c-4,2.4-6.3,5-7.8,6.3c-1.5,1.3-2.3,1.4-2.4,0.1c0-0.3,0-0.7,0.1-1.2&#10;&#9;&#9;&#9;&#9;c0.1-0.5,0.3-1.1,0.5-1.7c0.2-0.7,0.6-1.3,1-2.1c0.2-0.4,0.5-0.7,0.7-1.2c0.3-0.4,0.5-0.8,0.9-1.2c2.6-3.3,7.1-6.9,13.7-8.7&#10;&#9;&#9;&#9;&#9;c3.2-0.9,7-1.3,10.9-0.8c1.9,0.2,3.9,0.6,5.9,1.3c2,0.6,3.9,1.5,5.8,2.5c1.9,1,3.7,2.3,5.5,3.7c1.8,1.4,3.4,3,4.9,4.8&#10;&#9;&#9;&#9;&#9;c3.1,3.5,5.5,7.8,7.3,12.4c3.4,9.2,3.8,19.8,1.5,29.8c-2.3,10.1-7.4,19.6-14.3,27.2C742.2,507.4,733.4,513.3,724.1,516.6z" style="fill: rgb(204, 204, 204); opacity: 1;"/>
		</g>
		<g>
			<path fill="#231F20" d="M722.4,520c0,0,1.3-1.1,3.6-3.2c2.2-2.1,5.5-5.1,8.7-9.4c1.6-2.1,3.2-4.6,4.5-7.3&#10;&#9;&#9;&#9;&#9;c0.6-1.4,1.2-2.8,1.7-4.3c0.5-1.5,0.8-3.1,1.1-4.7c0.5-3.2,0.4-6.6-0.4-9.9c-0.8-3.2-2.5-6.1-4.9-8.4c-2.3-2.3-5.3-3.9-8.2-4.4&#10;&#9;&#9;&#9;&#9;c-3-0.6-5.8,0.1-8.2,1.5c-2.3,1.4-4.1,3.6-5,5.9c-0.9,2.2-0.9,4.7-0.3,6.8c0.6,2.2,1.7,4,2.9,5.3c1.3,1.3,2.8,2.2,4.3,2.8&#10;&#9;&#9;&#9;&#9;c3,1.2,5.6,1.1,7.1,1.4c1.5,0.3,2.2,0.7,1.5,1.7c-0.6,0.9-2.6,2.2-6,2.6c-1.7,0.1-3.7,0.1-5.9-0.6c-2.2-0.7-4.5-1.9-6.5-4&#10;&#9;&#9;&#9;&#9;c-2-2-3.6-4.8-4.4-8c-0.8-3.2-0.8-6.9,0.6-10.5c1.4-3.5,4-6.7,7.5-8.9c1.8-1.1,3.7-1.9,5.9-2.3c2.1-0.4,4.4-0.5,6.6-0.1&#10;&#9;&#9;&#9;&#9;c4.4,0.8,8.3,3,11.4,6.2c1.5,1.6,2.9,3.4,3.9,5.3c0.5,1,1,2,1.4,3.1c0.4,1.1,0.7,2.1,0.9,3.2c0.9,4.4,0.5,8.9-0.6,13&#10;&#9;&#9;&#9;&#9;c-1.1,4.2-3.1,8-5.5,11.4c-2.4,3.4-5.3,6.3-8.3,8.9C728.6,515.8,725.5,518,722.4,520z" style="fill: rgb(204, 204, 204); opacity: 1;"/>
		</g>
		<g>
			<path fill="#231F20" d="M754.1,501.4c0,0,0.3-0.3,0.7-0.9c0.2-0.3,0.5-0.6,0.9-1c0.3-0.4,0.8-0.8,1.3-1.3c2-2,5.1-4.6,9.5-7&#10;&#9;&#9;&#9;&#9;c2.2-1.2,4.7-2.3,7.6-3.2c2.8-0.9,5.9-1.6,9.2-1.8c3.3-0.3,6.8-0.2,10.3,0.3c3.5,0.5,7.1,1.6,10.5,3.4c3.4,1.8,6.6,4.4,8.7,8.1&#10;&#9;&#9;&#9;&#9;c2.1,3.7,2.7,8.1,2,12.2c-0.7,4.1-2.9,8-6.1,10.6c-3.2,2.7-7,4.1-10.7,4.4c-3.7,0.3-7.4-0.5-10.3-2.1c-1.5-0.8-2.7-1.8-3.8-2.8&#10;&#9;&#9;&#9;&#9;c-1.1-1-1.9-2.1-2.6-3.2c-1.4-2.2-2.1-4.4-2.4-6.2c-0.3-1.8-0.1-3.3,0.3-4.2c0.7-1.9,1.5-2,2.1-1.1c0.6,0.9,1.1,3,2.6,5.4&#10;&#9;&#9;&#9;&#9;c0.7,1.2,1.7,2.5,3,3.7c1.3,1.2,2.9,2.3,4.7,2.9c1.9,0.6,4,0.9,6.2,0.6c2.2-0.3,4.5-1.3,6.3-2.8c1.8-1.5,3.2-3.6,3.8-6.1&#10;&#9;&#9;&#9;&#9;c0.7-2.5,0.5-5.3-0.5-7.7c-2-4.9-8-8.6-14.6-10.2c-6.6-1.7-13.9-1.6-20.7,0.2C765.3,493.2,759,496.7,754.1,501.4z" style="fill: rgb(204, 204, 204); opacity: 1;"/>
		</g>
		<g>
			<path fill="#231F20" d="M675.2,554.9c0,0,0.5-0.4,1.3-1.1c0.9-0.7,2.1-1.8,3.7-3.2c3.1-2.9,7.4-7.1,11.6-13.1&#10;&#9;&#9;&#9;&#9;c4.1-5.9,8.1-13.6,9.8-22.5c1.8-8.8,1.1-18.7-3-27.2c-2-4.2-4.9-8-8.2-11.1c-3.3-3.1-7.3-5.3-11.4-6.6c-4.1-1.2-8.4-1.5-12.3-1&#10;&#9;&#9;&#9;&#9;c-2,0.3-3.8,0.8-5.6,1.4c-1.7,0.7-3.3,1.5-4.8,2.4c-1.4,1-2.7,2-3.8,3.2c-1.1,1.2-2.1,2.4-2.8,3.7c-1.6,2.6-2.6,5.2-3.2,7.6&#10;&#9;&#9;&#9;&#9;c-0.6,2.4-0.8,4.6-0.8,6.4c0,0.5,0,0.9,0,1.3c0,0.4,0,0.8,0,1.2c0.1,0.7,0.1,1.3,0,1.9c0,2.1-0.4,2.8-1.5,1.9&#10;&#9;&#9;&#9;&#9;c-0.3-0.2-0.6-0.6-0.9-1c-0.3-0.4-0.6-1-0.9-1.7c-0.3-0.7-0.6-1.5-0.9-2.3c-0.1-0.4-0.2-0.9-0.3-1.4c-0.1-0.3-0.1-0.5-0.2-0.8&#10;&#9;&#9;&#9;&#9;c0-0.3-0.1-0.5-0.1-0.8c-0.3-2.2-0.3-4.9,0.3-7.8c0.6-2.9,1.7-6.1,3.6-9.1c1.9-3.1,4.7-6.1,8.2-8.4c1.8-1.2,3.7-2.1,5.8-2.9&#10;&#9;&#9;&#9;&#9;c2.1-0.8,4.3-1.3,6.6-1.7c2.3-0.3,4.7-0.4,7.1-0.2c2.4,0.2,4.9,0.6,7.3,1.3c4.9,1.4,9.6,4.1,13.6,7.7c4,3.6,7.2,8.1,9.6,13.1&#10;&#9;&#9;&#9;&#9;c2.3,5,3.7,10.6,4,16.2c0.6,11.3-3,22.6-9,31.9C692.1,541.7,683.9,549.2,675.2,554.9z" style="fill: rgb(204, 204, 204); opacity: 1;"/>
		</g>
		<g>
			<path fill="#231F20" d="M680,551.2c0,0,0.2-0.2,0.6-0.7c0.2-0.2,0.4-0.5,0.7-0.8c0.3-0.3,0.6-0.7,0.9-1.2c1.3-1.8,2.9-4.4,4-7.8&#10;&#9;&#9;&#9;&#9;c1.1-3.4,1.7-7.6,1.1-11.8c-0.6-4.2-2.4-8.4-5.2-11.8c-2.7-3.4-6.3-6-10-7.4c-3.7-1.4-7.4-1.7-10.6-1.4c-3.3,0.3-6.1,1.2-8.3,1.9&#10;&#9;&#9;&#9;&#9;c-2.2,0.8-3.9,1.4-5.1,1.4c-1.2,0-1.9-0.4-1.8-1.2c0.1-0.8,0.8-2.2,2.3-3.7c1.6-1.5,4-3.1,7.2-4.3c3.2-1.1,7.3-1.8,11.9-1.2&#10;&#9;&#9;&#9;&#9;c4.5,0.6,9.3,2.6,13.3,6c4,3.4,7.3,8,9,13.5c1.7,5.5,1.4,11.6-0.4,16.9C687.8,543.2,684.4,548,680,551.2z" style="fill: rgb(204, 204, 204); opacity: 1;"/>
		</g>
		<g>
			<path fill="#231F20" d="M666.6,670.6c0,0-0.2-1.3-0.7-3.9c-0.2-1.3-0.4-2.9-0.7-4.7c-0.2-1.9-0.5-4-0.6-6.4&#10;&#9;&#9;&#9;&#9;c-0.3-4.8-0.4-10.8,0.2-17.6c0.2-3.4,0.8-7,1.4-10.8c0.7-3.8,1.5-7.8,2.8-11.8c2.3-8.2,5.8-16.8,10.7-25.4&#10;&#9;&#9;&#9;&#9;c4.9-8.6,11.2-17.1,18.9-24.9c7.7-7.8,16.8-14.8,27.1-20.5c10.2-5.6,21.9-9.7,34.2-10.4c6.1-0.3,12.4,0.2,18.4,1.8&#10;&#9;&#9;&#9;&#9;c6,1.6,11.9,4.1,17,7.8c5.2,3.7,9.5,8.4,12.7,13.9c3.2,5.4,5.3,11.6,5.7,17.9c0.2,3.1,0.1,6.4-0.6,9.5c-0.6,3.1-1.7,6.1-3,8.9&#10;&#9;&#9;&#9;&#9;c-2.7,5.6-6.6,10.5-11.4,14.2c-4.7,3.7-10.1,6.5-15.9,7.7c-0.7,0.1-1.4,0.3-2.2,0.4c-0.7,0.1-1.5,0.1-2.2,0.2&#10;&#9;&#9;&#9;&#9;c-1.5,0.2-2.9,0.2-4.3,0.1c-2.9-0.1-5.7-0.5-8.4-1.3c-5.4-1.5-10.3-4.1-14.3-7.7c-2-1.8-3.7-3.8-5.2-6c-1.4-2.2-2.6-4.5-3.3-6.9&#10;&#9;&#9;&#9;&#9;c-3.1-9.5-1.2-19.4,3.8-26c0.6-0.9,1.3-1.6,1.9-2.3c0.7-0.7,1.4-1.4,2.2-2c1.5-1.2,3.1-2.2,4.7-2.9c3.2-1.5,6.4-2.2,9.2-2.3&#10;&#9;&#9;&#9;&#9;c2.9-0.1,5.4,0.2,7.6,0.8c2.1,0.7,3.9,1.5,5.1,2.4c0.3,0.2,0.6,0.4,0.9,0.6c0.3,0.2,0.5,0.4,0.7,0.6c0.4,0.4,0.8,0.7,1.1,1.1&#10;&#9;&#9;&#9;&#9;c0.6,0.7,0.9,1.2,1,1.5c0.2,0.6-0.5,0.4-1.9-0.3c-1.4-0.7-3.7-1.8-7-2.4c-0.8-0.2-1.7-0.2-2.6-0.3c-0.9,0-1.9,0-2.9,0.1&#10;&#9;&#9;&#9;&#9;c-2,0.2-4.2,0.6-6.5,1.5c-2.2,0.9-4.5,2.2-6.4,4.1c-1.9,1.9-3.6,4.3-4.7,7.1c-1.1,2.8-1.6,6.1-1.5,9.4c0.1,1.7,0.3,3.4,0.7,5.1&#10;&#9;&#9;&#9;&#9;c0.5,1.7,1,3.4,1.9,5c0.8,1.6,1.8,3.1,3.1,4.5c1.2,1.4,2.7,2.7,4.2,3.9c3.2,2.3,6.9,4.1,11,4.9c2,0.5,4.2,0.7,6.3,0.7l1.6,0&#10;&#9;&#9;&#9;&#9;l1.6-0.2c0.5-0.1,1.1-0.1,1.6-0.2l1.6-0.3c1.1-0.2,2.1-0.6,3.2-0.9c1.1-0.3,2.1-0.8,3.1-1.3c1-0.5,2-1,3-1.6c1-0.6,2-1.2,2.9-2&#10;&#9;&#9;&#9;&#9;l1.4-1.1c0.4-0.4,0.9-0.8,1.3-1.2c0.9-0.8,1.7-1.7,2.5-2.5c0.4-0.4,0.8-0.9,1.1-1.4l1.1-1.4l1-1.5c0.3-0.5,0.7-1,0.9-1.5&#10;&#9;&#9;&#9;&#9;c0.6-1.1,1.2-2.1,1.6-3.3c0.2-0.6,0.5-1.1,0.7-1.7l0.5-1.7c0.2-0.6,0.3-1.2,0.4-1.8l0.4-1.8l0.2-1.8l0.1-0.9c0-0.3,0-0.6,0-0.9&#10;&#9;&#9;&#9;&#9;c0.2-9.9-4.6-20.3-12.7-27.4c-4-3.5-8.8-6.4-14.1-8.2c-5.3-1.9-10.9-2.9-16.7-3.1c-11.5-0.3-23.3,2.9-34.1,8.3&#10;&#9;&#9;&#9;&#9;c-21.8,10.9-40.4,29.3-51.6,51.4C666.5,621.5,662.8,647.1,666.6,670.6z" style="fill: rgb(204, 204, 204); opacity: 1;"/>
		</g>
		<g>
			<path fill="#231F20" d="M743.5,543.4c0,0,0.3-0.1,1-0.4c0.6-0.3,1.6-0.6,2.8-1c2.5-0.8,6.1-1.7,10.7-2.1&#10;&#9;&#9;&#9;&#9;c4.6-0.4,10.1-0.2,15.9,1.6c2.9,0.9,5.8,2.1,8.6,3.8c2.8,1.7,5.4,3.9,7.8,6.4c4.6,5,8.1,11.7,8.8,18.8c0.1,0.9,0.2,1.8,0.2,2.6&#10;&#9;&#9;&#9;&#9;c0,0.9,0,1.8-0.1,2.6c-0.1,0.9-0.2,1.8-0.3,2.6c-0.2,0.9-0.3,1.7-0.6,2.5c-0.9,3.3-2.4,6.3-4.2,8.9c-1.8,2.6-3.9,4.7-6,6.4&#10;&#9;&#9;&#9;&#9;c-2.2,1.6-4.4,2.8-6.5,3.6c-4.2,1.6-7.7,1.3-9.3,0.6c-1.7-0.7-1.8-1.4-1-2.1c0.4-0.3,1.1-0.6,2-0.9c0.9-0.4,2-0.7,3.2-1.3&#10;&#9;&#9;&#9;&#9;c0.6-0.2,1.2-0.6,1.9-0.9c0.7-0.3,1.3-0.8,2.1-1.2c0.7-0.4,1.4-1,2.1-1.5c0.3-0.3,0.7-0.6,1.1-0.9c0.2-0.2,0.4-0.3,0.5-0.5&#10;&#9;&#9;&#9;&#9;c0.2-0.2,0.3-0.4,0.5-0.5c1.4-1.4,2.8-3.1,4-5c1.2-1.9,2.2-4.1,2.9-6.4c1.3-4.6,1.1-10.2-0.9-15.5c-2-5.3-5.7-10.4-10.6-14.1&#10;&#9;&#9;&#9;&#9;c-4.9-3.7-11-6.1-17.4-7C756.3,541.5,749.7,541.9,743.5,543.4z" style="fill: rgb(204, 204, 204); opacity: 1;"/>
		</g>
		<g>
			<path fill="#231F20" d="M842.4,447.3c0,0-0.3-0.3-0.9-0.9c-0.6-0.6-1.5-1.5-2.8-2.4c-2.6-1.8-6.8-3.9-12-4.4&#10;&#9;&#9;&#9;&#9;c-0.7-0.1-1.3-0.1-2-0.2c-0.7,0-1.4,0-2.1,0c-1.4,0-2.8,0.3-4.3,0.5c-2.8,0.7-5.8,1.7-8.3,3.4c-5.2,3.2-9.1,9-9.4,15.1&#10;&#9;&#9;&#9;&#9;c0,0,0.4-1,1.3-2.6c0.5-0.8,1.1-1.7,1.9-2.7c0.8-1,1.8-2.1,3-3.1c2.4-2.1,5.6-4,9.3-5c3.7-1,7.8-1.2,11.6,0&#10;&#9;&#9;&#9;&#9;c-3.8,1.6-7,3-10.1,4.3c-3.1,1.4-6,2.7-8.5,4.1c-1.3,0.6-2.4,1.3-3.4,1.9c-1,0.6-1.9,1.2-2.7,1.6c-1.4,1-2.4,1.6-2.4,1.6&#10;&#9;&#9;&#9;&#9;c3-0.7,5.6-1.4,8.1-2c0.3-0.1,0.6-0.2,0.9-0.3c0.3-0.1,0.6-0.1,0.9-0.2c0.6-0.2,1.2-0.3,1.7-0.5c1.2-0.3,2.2-0.7,3.3-1&#10;&#9;&#9;&#9;&#9;c2.1-0.7,4.2-1.3,6.1-2c1-0.3,2-0.7,3-1c0.5-0.2,1-0.3,1.5-0.5c0.5-0.1,1-0.3,1.4-0.4c3.8-1.2,7.4-2.1,10.3-2.6&#10;&#9;&#9;&#9;&#9;c1.4-0.3,2.6-0.4,3.4-0.5C841.9,447.4,842.4,447.3,842.4,447.3z" style="fill: rgb(204, 204, 204); opacity: 1;"/>
		</g>
		<g>
			<path fill="#231F20" d="M843.5,397.3c0,0-0.2,0.4-0.6,1.2c-0.4,0.8-0.9,1.9-1.6,3.2c-1.4,2.6-3.4,5.8-5.9,9&#10;&#9;&#9;&#9;&#9;c-2.5,3.2-5.2,6.2-8.2,9.5c-2.8,3.1-5.9,6.6-10.4,11.6c0,0,1-0.5,2.6-1.4c1.6-0.9,3.7-2.3,6.1-3.9c2.3-1.7,4.9-3.8,7.4-6.1&#10;&#9;&#9;&#9;&#9;c2.5-2.3,5.1-5,7.8-7.9c-0.3,4-2,8-4.5,11c-2.5,3.1-5.8,5.2-8.7,6.5c-3,1.3-5.7,1.8-7.6,1.9c-1,0.1-1.7,0.1-2.2,0&#10;&#9;&#9;&#9;&#9;c-0.5,0-0.8,0-0.8,0c2.8,1.3,6.1,1.7,9.2,1.3c3.2-0.4,6.3-1.5,9-3.3c2.7-1.7,5-4,6.8-6.6c1.8-2.6,3-5.3,3.7-8&#10;&#9;&#9;&#9;&#9;c1.4-5.3,0.9-10.1,0-13.2c-0.5-1.6-1-2.7-1.3-3.5C843.7,397.7,843.5,397.3,843.5,397.3z" style="fill: rgb(204, 204, 204); opacity: 1;"/>
		</g>
		<g>
			<path fill="#231F20" d="M727.2,345.9c0,0-0.3,0.4-0.9,1.1c-0.6,0.7-1.4,1.8-2.3,3.2c-1.8,2.8-4,7-5.4,12.3&#10;&#9;&#9;&#9;&#9;c-0.7,2.6-1.1,5.5-1.2,8.5c-0.1,3,0.1,6.1,0.8,9.1c1.3,6.1,4.6,12,9.7,16.1c0,0-0.6-1-1.6-2.8c-0.5-0.9-1-2-1.5-3.3&#10;&#9;&#9;&#9;&#9;c-0.5-1.3-1.1-2.8-1.5-4.4c-0.9-3.2-1.6-7.1-1.6-11.2c0-4.1,0.8-8.4,2.5-12.3c1,4.2,1.6,8.2,2,12.1c0.4,3.9,0.8,7.5,1,10.7&#10;&#9;&#9;&#9;&#9;c0.1,1.6,0.2,3.1,0.3,4.5c0.1,1.3,0.2,2.5,0.2,3.5c0.1,2,0.2,3.2,0.2,3.2c1.9-6.3,2.5-12,2.7-17.5c0.1-5.4-0.4-10.6-0.9-15.4&#10;&#9;&#9;&#9;&#9;c-0.6-4.7-1.2-9.1-1.6-12.2c-0.2-1.6-0.4-2.9-0.6-3.8C727.3,346.4,727.2,345.9,727.2,345.9z" style="fill: rgb(204, 204, 204); opacity: 1;"/>
		</g>
		<g>
			<path fill="#231F20" d="M728,439.1c0,0,0.3,0.4,0.7,1.1c0.5,0.7,1.2,1.7,1.9,3c1.6,2.5,3.5,5.9,5.5,9.5c0.3,0.5,0.5,0.9,0.8,1.4&#10;&#9;&#9;&#9;&#9;c0.2,0.5,0.5,1,0.7,1.4c0.5,0.9,1,1.9,1.6,2.9c1,2,2.2,3.9,3.4,5.9c0.7,1,1.2,2,1.9,3c0.3,0.5,0.7,1,1,1.6&#10;&#9;&#9;&#9;&#9;c0.2,0.3,0.4,0.5,0.6,0.8c0.2,0.3,0.4,0.5,0.5,0.8c1.6,2.1,3.2,4.3,5.2,6.8c0,0-0.4-1-1-2.8c-0.3-0.9-0.7-1.9-1.1-3&#10;&#9;&#9;&#9;&#9;c-0.5-1.1-0.9-2.4-1.5-3.7c-1.1-2.7-2.4-5.7-3.9-8.9c-1.4-3.2-3-6.6-4.5-10.3c3.5,1.9,6.4,4.9,8.5,8.1c2.1,3.3,3.2,6.8,3.7,10&#10;&#9;&#9;&#9;&#9;c0.3,1.6,0.4,3,0.4,4.3c0,1.3-0.1,2.4-0.2,3.4c-0.3,1.9-0.5,2.9-0.5,2.9c3.4-5.2,4-11.9,2.2-17.7c-0.8-2.9-2.2-5.6-3.9-8&#10;&#9;&#9;&#9;&#9;c-0.9-1.2-1.7-2.3-2.7-3.3c-0.5-0.5-1-1-1.4-1.5c-0.5-0.5-1-0.9-1.5-1.3c-4.1-3.3-8.4-5-11.5-5.7c-1.5-0.4-2.8-0.5-3.7-0.6&#10;&#9;&#9;&#9;&#9;C728.4,439.1,728,439.1,728,439.1z" style="fill: rgb(204, 204, 204); opacity: 1;"/>
		</g>
		<g>
			<path fill="#231F20" d="M790.5,423.9c0,0-0.4-0.1-1-0.3c-0.7-0.2-1.7-0.4-2.9-0.4c-2.5-0.1-6.2,0.3-9.8,2.3&#10;&#9;&#9;&#9;&#9;c-1.8,0.9-3.6,2.3-5.2,4c-1.5,1.7-2.9,3.7-3.7,6c-1.7,4.5-1.3,10,2,14c0,0-0.2-0.8-0.5-2.2c-0.1-0.7-0.1-1.6-0.1-2.6&#10;&#9;&#9;&#9;&#9;c0.1-1,0.1-2.1,0.4-3.3c0.5-2.3,1.6-5,3.5-7.2c1.9-2.3,4.5-4.1,7.5-4.9c-1.2,2.8-2.5,5.2-3.7,7.4c-1.3,2.2-2.4,4.2-3.5,6.1&#10;&#9;&#9;&#9;&#9;c-0.6,0.9-1,1.8-1.5,2.6c-0.4,0.8-0.8,1.5-1.1,2.1c-0.6,1.2-1,2-1,2c2.1-1.7,3.7-3.1,5.2-4.4c0.7-0.7,1.4-1.3,2-1.9&#10;&#9;&#9;&#9;&#9;c0.7-0.6,1.2-1.2,1.7-1.8c1-1.2,2-2.4,2.8-3.7c0.9-1.2,1.6-2.6,2.4-3.8c1.5-2.5,3-5,4.3-6.9c0.6-1,1.2-1.7,1.6-2.2&#10;&#9;&#9;&#9;&#9;C790.2,424.3,790.5,423.9,790.5,423.9z" style="fill: rgb(204, 204, 204); opacity: 1;"/>
		</g>
		<g>
			<path fill="#231F20" d="M763.4,513.5c0,0-0.3-0.2-0.7-0.7c-0.5-0.4-1.2-1-2.2-1.6c-1.9-1.2-4.8-2.6-8.3-3.1&#10;&#9;&#9;&#9;&#9;c-3.5-0.5-7.5-0.2-11.1,1.7c-3.6,1.9-6.6,5.3-7.6,10.2c0,0,0.4-0.6,1.3-1.6c0.9-0.9,2.2-2.2,4-3.3c1.8-1.1,4.1-2.1,6.6-2.5&#10;&#9;&#9;&#9;&#9;c2.5-0.4,5.3-0.2,7.9,0.8c-2.3,1.6-4.6,2.7-6.8,3.5c-2.2,0.8-4.3,1.4-6.2,1.8c-1.9,0.4-3.6,0.7-4.8,0.9c-1.2,0.2-2,0.2-2,0.2&#10;&#9;&#9;&#9;&#9;c4.7,1.5,8.3,1.9,11.5,1.7c3.1-0.3,5.9-1.3,8.5-2.6c2.6-1.2,5-2.7,6.8-3.7c0.9-0.5,1.7-1,2.2-1.3&#10;&#9;&#9;&#9;&#9;C763,513.7,763.4,513.5,763.4,513.5z" style="fill: rgb(204, 204, 204); opacity: 1;"/>
		</g>
		<g>
			<path fill="#231F20" d="M601,528c0,0,0.5,0.5,1.4,1.4c0.4,0.4,1,1,1.6,1.6c0.6,0.6,1.3,1.4,2.1,2.2c3.1,3.2,7.1,7.7,11.3,12.9&#10;&#9;&#9;&#9;&#9;c0.5,0.7,1.1,1.3,1.6,2c0.5,0.7,1,1.4,1.6,2.1c1.1,1.4,2.1,2.9,3.3,4.3c2.1,3,4.4,6,6.6,9.1c1.2,1.5,2.2,3.2,3.4,4.7&#10;&#9;&#9;&#9;&#9;c0.6,0.8,1.1,1.6,1.7,2.4c0.3,0.4,0.6,0.8,0.9,1.2c0.3,0.4,0.6,0.8,0.9,1.2c0.6,0.8,1.2,1.6,1.8,2.4c0.6,0.8,1.2,1.6,1.8,2.5&#10;&#9;&#9;&#9;&#9;c0.3,0.4,0.6,0.8,1,1.2c0.3,0.4,0.6,0.8,0.9,1.3c0.6,0.8,1.3,1.7,2,2.5c0,0-0.7-1.5-1.9-4c-0.6-1.3-1.3-2.8-2.2-4.5&#10;&#9;&#9;&#9;&#9;c-0.9-1.7-1.8-3.6-3-5.6c-2.2-4-4.9-8.5-7.9-13.2c-3-4.7-6.3-9.5-9.6-14.4c5.2,2.9,9.8,7.1,13.3,11.8c3.6,4.6,6.1,9.6,7.8,14.1&#10;&#9;&#9;&#9;&#9;c0.9,2.2,1.4,4.4,2,6.3c0.4,1.9,0.7,3.6,1,5c0.3,2.8,0.4,4.5,0.4,4.5c1.8-8.4,0.2-17.8-3.8-25.7c-1.9-4-4.5-7.7-7.2-10.9&#10;&#9;&#9;&#9;&#9;c-1.4-1.6-2.8-3.1-4.4-4.5c-0.8-0.7-1.5-1.4-2.2-2c-0.8-0.6-1.6-1.2-2.3-1.8c-6.2-4.6-12.3-7.2-16.7-8.5c-1.1-0.3-2.1-0.6-3-0.8&#10;&#9;&#9;&#9;&#9;c-0.9-0.2-1.7-0.3-2.3-0.5C601.6,528.1,601,528,601,528z" style="fill: rgb(204, 204, 204); opacity: 1;"/>
		</g>
		<g>
			<path fill="#231F20" d="M730.8,583.2c0,0-0.3-0.3-0.9-0.8c-0.6-0.5-1.4-1.3-2.6-2.1c-2.3-1.6-6.1-3.4-10.8-4&#10;&#9;&#9;&#9;&#9;c-2.3-0.3-4.9-0.2-7.4,0.2c-2.5,0.5-5.1,1.3-7.5,2.8c-4.7,2.7-8.5,7.6-9.1,13.3c0,0,0.4-0.8,1.4-2.2c0.5-0.7,1.1-1.5,1.9-2.3&#10;&#9;&#9;&#9;&#9;c0.8-0.8,1.7-1.7,2.9-2.6c2.2-1.7,5.2-3.3,8.5-4c3.3-0.8,7-0.8,10.4,0.4c-3.2,1.5-6.2,2.8-9,3.9c-2.8,1.2-5.5,2.2-7.8,3.2&#10;&#9;&#9;&#9;&#9;c-1.2,0.5-2.3,1-3.3,1.4c-1,0.4-1.8,0.8-2.6,1.2c-1.4,0.7-2.4,1.1-2.4,1.1c2.9-0.1,5.4-0.4,7.7-0.7c1.1-0.2,2.3-0.3,3.3-0.5&#10;&#9;&#9;&#9;&#9;c1.1-0.1,2-0.4,3-0.6c1.9-0.5,3.8-1,5.6-1.6c0.9-0.2,1.8-0.6,2.7-0.9c0.4-0.1,0.9-0.3,1.3-0.5l1.3-0.4c3.4-1.2,6.7-2.3,9.2-3&#10;&#9;&#9;&#9;&#9;c1.3-0.4,2.3-0.6,3.1-0.8C730.4,583.3,730.8,583.2,730.8,583.2z" style="fill: rgb(204, 204, 204); opacity: 1;"/>
		</g>
		<g>
			<path fill="#231F20" d="M751.4,561.3c0,0-0.2-0.3-0.5-0.7c-0.3-0.5-0.8-1.1-1.4-1.8c-1.3-1.4-3.3-3.2-5.9-4.4&#10;&#9;&#9;&#9;&#9;c-2.6-1.2-5.8-1.7-8.9-0.7c-3.1,0.9-6.1,3.3-7.8,7.5c0,0,0.5-0.4,1.3-1.1c0.9-0.6,2.1-1.4,3.7-1.9c1.6-0.6,3.5-0.9,5.6-0.7&#10;&#9;&#9;&#9;&#9;c2,0.2,4.2,0.9,6,2.5c-4.2,2.3-7.9,2.5-11.1,2.2c-1.6-0.1-2.9-0.4-4-0.6c-1-0.2-1.6-0.4-1.6-0.4c3.5,3,6.2,4.4,8.7,4.9&#10;&#9;&#9;&#9;&#9;c2.5,0.5,4.8,0.1,7.1-0.6c2.2-0.7,4.4-1.8,6-2.6c0.8-0.4,1.5-0.8,2-1.1C751.1,561.5,751.4,561.3,751.4,561.3z" style="fill: rgb(204, 204, 204); opacity: 1;"/>
		</g>
		<g>
			<path fill="#231F20" d="M722.3,639.4c0,0,0.2-0.2,0.6-0.6c0.4-0.4,0.9-1,1.6-1.8c1.3-1.6,3.3-4,5.1-7.6c1.8-3.6,3.5-8.3,3.3-14.4&#10;&#9;&#9;&#9;&#9;c-0.2-3-0.8-6.2-2.3-9.3c-1.4-3.1-3.7-6.3-6.9-8.8c-1.6-1.2-3.5-2.3-5.5-3c-2-0.7-4.1-1.2-6.2-1.4c-4.2-0.3-8.5,0.4-12.4,2&#10;&#9;&#9;&#9;&#9;c-4,1.6-7.4,4-10.4,6.7c-3,2.7-5.5,5.7-7.7,8.8c-4.4,6.2-7.7,13.2-9.7,20.4c-2,7.2-2.5,14.6-1.7,21.4c0,0,0-0.7,0.1-2&#10;&#9;&#9;&#9;&#9;c0.1-1.3,0.3-3.2,0.6-5.6c0.7-4.8,2.3-11.5,5.8-19c1.7-3.7,4-7.6,6.7-11.4c2.7-3.8,5.9-7.6,10-10.7c2-1.6,4.3-3,6.7-4&#10;&#9;&#9;&#9;&#9;c2.5-1,5.1-1.7,7.8-1.9c2.7-0.2,5.4,0.1,7.9,1c1.2,0.4,2.4,1,3.5,1.8c1.1,0.7,2,1.6,2.9,2.5c-4.2-2.7-9.3-3.3-13.8-2.2&#10;&#9;&#9;&#9;&#9;c-4.6,1-8.6,3.4-12.1,6.4c-3.5,3-6.4,6.5-9.1,10c-2.6,3.5-4.9,7-6.9,10.4c-3.9,6.8-6.4,13-7.9,17.5c-0.8,2.2-1.3,4-1.7,5.3&#10;&#9;&#9;&#9;&#9;c-0.4,1.2-0.5,1.9-0.5,1.9c5.6-12.6,12.6-24.3,21.2-34.2c4.2-5,8.7-9.1,13.3-11.2c2.3-1,4.7-1.6,6.9-1.7c2.2-0.1,4.2,0.4,6,1.3&#10;&#9;&#9;&#9;&#9;c1.8,1,3.5,2.4,4.8,4.2c1.3,1.8,2.3,3.8,2.9,5.9c0.6,2,0.9,4.2,0.9,6.2c0,2-0.1,4-0.4,5.7c-0.6,3.5-1.5,6.4-2.2,8.3&#10;&#9;&#9;&#9;&#9;c-0.3,1-0.6,1.7-0.8,2.2C722.4,639.1,722.3,639.4,722.3,639.4z" style="fill: rgb(204, 204, 204); opacity: 1;"/>
		</g>
		<g>
			<path fill="#231F20" d="M593.6,595.2c0,0,0.1-0.2,0.2-0.5c0.1-0.3,0.3-0.7,0.7-1.3c0.6-1,1.7-2.4,3.4-3.4c1.6-1.1,3.8-1.9,6.2-2&#10;&#9;&#9;&#9;&#9;c0.6,0,1.1,0,1.7,0.1c0.5,0.1,1.1,0.2,1.7,0.4c1.2,0.3,2.3,0.8,3.5,1.5c2.3,1.3,4.5,3.3,6.3,5.6c1.9,2.4,3.6,5.4,5.3,8.8&#10;&#9;&#9;&#9;&#9;c1.7,3.4,3.4,7.2,5.5,11c2.1,3.8,4.7,7.6,8,10.5c0,0-0.2-0.4-0.7-1c-0.4-0.7-1-1.6-1.7-2.9c-1.4-2.6-3-6.4-4.6-10.9&#10;&#9;&#9;&#9;&#9;c-1.6-4.5-3.4-9.6-5.9-14.3c-1.3-2.4-2.8-4.7-4.7-6.8c-1.9-2.1-4.1-4-6.8-5.5c3,0.2,6.1,1.4,8.8,3.2c2.7,1.8,4.9,4.2,6.6,6.8&#10;&#9;&#9;&#9;&#9;c3.4,5.2,4.9,10.9,5.9,15.6c1,4.7,1.6,8.7,2.1,11.5c0.3,1.4,0.5,2.5,0.7,3.3c0.2,0.8,0.3,1.2,0.3,1.2c0.1-4.4,0.3-8.5,0.1-12.8&#10;&#9;&#9;&#9;&#9;c-0.2-4.3-0.7-8.7-2.1-13.2c-1.4-4.5-3.7-9-7-12.7c-3.4-3.8-7.8-6.4-12.4-7.6c-2.3-0.6-4.6-0.8-6.9-0.6c-1.1,0.1-2.2,0.3-3.2,0.6&#10;&#9;&#9;&#9;&#9;c-1,0.3-2,0.7-2.9,1.1c-3.5,1.8-5.7,4.4-7,6.8c-1.2,2.4-1.4,4.5-1.4,5.8c0,0.7,0.1,1.2,0.2,1.5&#10;&#9;&#9;&#9;&#9;C593.5,595,593.6,595.2,593.6,595.2z" style="fill: rgb(204, 204, 204); opacity: 1;"/>
		</g>
		
		
		
		
	</g></svg>